<svg width="46" height="39" viewBox="0 0 46 39" fill="none" xmlns="http://www.w3.org/2000/svg">
<g clip-path="url(#clip0_9_1913)">
<path d="M26.9889 1.61255C27.1457 1.68453 27.3025 1.75647 27.4593 1.82838C31.3188 3.6257 31.3188 3.6257 32.0069 5.03291C32.1785 5.56238 32.1387 6.15868 31.991 6.68889C31.6555 7.24088 31.2106 7.82004 30.5717 8.02693C29.978 8.14003 29.3184 8.16576 28.7868 7.85188C28.4901 7.64596 28.1993 7.43196 27.9075 7.21925C26.4621 6.18129 24.7992 5.46858 23.0848 5.00738C23.0015 4.98408 22.9181 4.96078 22.8322 4.93677C19.1726 3.99639 15.2257 4.69423 11.9668 6.53506C10.8861 7.18523 9.91759 7.96748 8.99629 8.82657C8.93349 8.88478 8.87069 8.94298 8.80599 9.00294C7.16281 10.5818 6.01667 12.6601 5.27788 14.7994C5.25532 14.8632 5.23275 14.927 5.20951 14.9927C4.74439 16.4125 4.60576 17.8545 4.62013 19.3399C4.62072 19.4622 4.62072 19.4622 4.62132 19.5869C4.62946 20.8281 4.71282 21.9809 5.09223 23.1697C5.11724 23.2536 5.14225 23.3374 5.16802 23.4238C5.49666 24.5239 5.88557 25.5641 6.45016 26.5646C6.47956 26.6178 6.50897 26.6709 6.53926 26.7257C8.39402 30.0577 11.5927 32.5902 15.2622 33.6416C15.323 33.6588 15.3838 33.676 15.4465 33.6937C15.5119 33.7132 15.5773 33.7328 15.6446 33.7529C16.8382 34.097 18.0107 34.159 19.2444 34.1605C19.3169 34.1609 19.3894 34.1613 19.4641 34.1617C20.8806 34.1647 22.2772 34.013 23.6418 33.6195C23.7204 33.5973 23.7991 33.5751 23.8801 33.5523C24.4347 33.3915 24.9487 33.1973 25.4612 32.9299C25.5672 32.8785 25.6733 32.8273 25.7795 32.7764C26.847 32.2607 27.8336 31.6472 28.7984 30.9596C29.2672 30.6473 29.7534 30.6773 30.2989 30.7233C30.9542 30.8704 31.42 31.2124 31.8265 31.7417C32.161 32.272 32.1578 32.9183 32.0812 33.524C31.6193 34.9833 29.5315 35.9197 28.262 36.5793C27.5573 36.9354 26.8457 37.2706 26.0974 37.5252C25.9593 37.5725 25.8223 37.6235 25.687 37.6783C24.929 37.9813 24.1335 38.1442 23.3365 38.3094C23.1736 38.3432 23.0109 38.3779 22.8485 38.4136C20.803 38.8569 18.5303 38.8838 16.4649 38.5314C16.3889 38.5186 16.3129 38.5058 16.2345 38.4926C12.6259 37.8623 9.36378 36.2773 6.6199 33.8635C6.52489 33.7826 6.52489 33.7826 6.42795 33.7C5.67466 33.0563 5.02971 32.3464 4.41326 31.572C4.35747 31.5049 4.30167 31.4378 4.24418 31.3687C3.03328 29.9025 2.12925 28.2437 1.42793 26.4823C1.36442 26.326 1.29611 26.1716 1.22729 26.0176C-0.505866 21.8005 -0.327681 16.5554 1.34817 12.3621C1.89091 11.0681 2.51085 9.81215 3.30994 8.65683C3.36485 8.57724 3.36485 8.57724 3.42088 8.49604C4.53324 6.9008 5.83957 5.43206 7.38374 4.24355C7.45879 4.18403 7.53384 4.12452 7.61117 4.0632C12.9569 -0.0830663 20.7779 -1.32929 26.9889 1.61255Z" fill="#017CFE" style="fill:#017CFE;fill:color(display-p3 0.0039 0.4863 0.9961);fill-opacity:1;"/>
<path d="M26.3948 8.91141C26.8285 9.31173 27.1247 9.68805 27.1872 10.2892C27.1961 11.0919 27.0731 11.5784 26.6388 12.2426C26.092 12.7656 25.3746 13.0368 24.6205 13.0313C24.0942 12.9389 23.6373 12.6459 23.1706 12.3959C22.916 12.2621 22.658 12.1423 22.3953 12.0251C22.2689 11.9678 22.2689 11.9678 22.14 11.9094C21.256 11.5767 20.3399 11.4972 19.4036 11.5053C19.2958 11.506 19.188 11.5068 19.0769 11.5076C17.3399 11.5396 15.7714 12.1266 14.428 13.2398C14.3549 13.3001 14.2819 13.3604 14.2066 13.4225C12.8577 14.5854 11.8942 16.2178 11.6273 17.9926C11.4493 20.5366 11.899 22.7355 13.5946 24.6977C14.1214 25.2862 14.6896 25.7259 15.3616 26.1402C15.4594 26.2026 15.4594 26.2026 15.5592 26.2662C17.237 27.2729 19.3653 27.5188 21.2561 27.0771C22.5504 26.6979 23.7704 26.1068 24.7823 25.2066C24.8405 25.1554 24.8987 25.1042 24.9586 25.0515C25.8315 24.2336 26.5411 23.0827 26.9545 21.9647C26.9769 21.9041 26.9994 21.8435 27.0226 21.7811C27.0395 21.7352 27.0564 21.6893 27.0738 21.642C26.9118 21.6432 26.9118 21.6432 26.7465 21.6443C25.7275 21.6512 24.7086 21.6563 23.6896 21.6596C23.1658 21.6614 22.642 21.6638 22.1182 21.6676C21.6124 21.6713 21.1067 21.6734 20.601 21.6742C20.4083 21.6749 20.2155 21.6761 20.0228 21.6779C19.7524 21.6804 19.482 21.6807 19.2116 21.6806C19.1323 21.6818 19.053 21.683 18.9713 21.6843C18.3566 21.6804 17.913 21.529 17.4472 21.1232C16.8655 20.4451 16.6692 19.9459 16.6894 19.0435C16.73 18.6572 16.8385 18.3928 17.059 18.0775C17.1045 18.0039 17.15 17.9304 17.1969 17.8547C17.6851 17.3666 18.2758 17.0502 18.967 17.0454C19.0637 17.0445 19.1604 17.0437 19.2601 17.0428C19.3663 17.0423 19.4725 17.0418 19.5819 17.0413C19.6937 17.0405 19.8055 17.0396 19.9207 17.0388C20.2919 17.0361 20.6631 17.0344 21.0344 17.0328C21.0976 17.0325 21.1609 17.0323 21.2261 17.032C21.8234 17.0294 22.4207 17.0271 23.018 17.0257C23.7804 17.0238 24.5427 17.0202 25.305 17.0143C25.8418 17.0103 26.3787 17.0083 26.9155 17.0076C27.2357 17.0072 27.5558 17.006 27.8759 17.0026C28.1778 16.9994 28.4795 16.9987 28.7814 16.9999C28.9434 16.9999 29.1054 16.9973 29.2674 16.9947C30.0634 17.0013 30.7393 17.1991 31.3404 17.7426C31.8641 18.2934 32.0445 18.8448 32.0387 19.5892C32.0383 19.6975 32.0383 19.6975 32.0378 19.8079C31.9724 22.4544 30.9851 25.1318 29.2804 27.1586C29.2066 27.2501 29.1327 27.3416 29.059 27.4331C27.0189 29.927 24.0002 31.4965 20.8033 31.8749C19.6165 31.9887 18.3989 31.9795 17.2288 31.7417C17.1749 31.7312 17.121 31.7207 17.0654 31.7099C15.1032 31.321 13.2813 30.5319 11.7122 29.2804C11.6257 29.2121 11.5393 29.1439 11.4502 29.0735C10.948 28.6701 10.5056 28.2522 10.0996 27.7527C10.0018 27.6405 10.0018 27.6405 9.90201 27.526C7.59971 24.8564 6.69304 21.5596 6.87451 18.0775C6.93687 17.4717 7.06589 16.885 7.214 16.2952C7.22808 16.2344 7.24217 16.1737 7.25668 16.111C7.76846 13.9224 8.96952 12.0287 10.524 10.4391C10.5802 10.3776 10.6364 10.3161 10.6944 10.2528C14.5517 6.12822 21.8927 5.58012 26.3948 8.91141Z" fill="#012DB8" style="fill:#012DB8;fill:color(display-p3 0.0039 0.1765 0.7216);fill-opacity:1;"/>
<path d="M42.2657 6.53505C42.7367 6.86721 43.0116 7.23341 43.2683 7.74446C43.3036 7.8132 43.3389 7.88194 43.3752 7.95276C44.6523 10.5148 45.3625 13.3017 45.7454 16.1255C45.7556 16.2003 45.7658 16.2751 45.7763 16.3521C46.3894 21.1051 45.5353 25.9543 43.5865 30.3095C43.5552 30.3809 43.5238 30.4524 43.4915 30.526C43.1227 31.3507 42.7244 32.119 41.8573 32.4949C41.2138 32.702 40.6137 32.6377 40.0017 32.363C39.4986 32.0771 39.1377 31.6638 38.9336 31.1205C38.6905 30.238 38.932 29.5218 39.3271 28.7341C40.191 26.8977 40.8052 25.0079 41.1224 22.9985C41.1604 22.7584 41.2019 22.5191 41.244 22.2796C41.8941 18.3657 41.1701 14.2213 39.5976 10.6142C39.5721 10.5553 39.5466 10.4965 39.5204 10.436C39.4073 10.1769 39.2916 9.92271 39.1626 9.67096C38.821 9.00033 38.734 8.34687 38.9611 7.61715C39.2241 7.0271 39.6539 6.60432 40.2378 6.33911C40.958 6.07626 41.6029 6.16116 42.2657 6.53505Z" fill="#52C1FF" style="fill:#52C1FF;fill:color(display-p3 0.3216 0.7569 1.0000);fill-opacity:1;"/>
<path d="M36.2614 10.3957C37.2253 11.1574 37.5741 12.4506 37.9373 13.5794C37.9687 13.6761 38.0001 13.7728 38.0324 13.8724C39.0186 17.1111 39.0242 20.5646 38.2768 23.8487C38.2625 23.9121 38.2483 23.9756 38.2336 24.0409C38.075 24.7377 37.881 25.3977 37.5978 26.0554C37.561 26.1604 37.5243 26.2654 37.4864 26.3736C37.1433 27.2795 36.7821 28.1123 35.909 28.6081C35.3784 28.8464 34.7832 28.8738 34.2302 28.6996C33.6043 28.4181 33.1335 27.9802 32.8503 27.3497C32.5999 26.5061 32.7855 25.7619 33.1262 24.9786C33.195 24.8139 33.2636 24.6491 33.332 24.4843C33.3817 24.3655 33.3817 24.3655 33.4323 24.2444C34.7083 21.1019 34.5575 17.0876 33.2551 13.9802C33.224 13.9065 33.1929 13.8329 33.1608 13.757C32.8324 12.9794 32.5639 12.326 32.8334 11.4831C33.0875 10.8991 33.4773 10.4614 34.0501 10.1766C34.8289 9.88299 35.5667 9.937 36.2614 10.3957Z" fill="#52C1FF" style="fill:#52C1FF;fill:color(display-p3 0.3216 0.7569 1.0000);fill-opacity:1;"/>
</g>
<defs>
<clipPath id="clip0_9_1913">
<rect width="46" height="38.8708" fill="white" style="fill:white;fill-opacity:1;"/>
</clipPath>
</defs>
</svg>
