<svg width="48" height="41" viewBox="0 0 48 41" fill="none" xmlns="http://www.w3.org/2000/svg">
<g clip-path="url(#clip0_9_1782)">
<path d="M31.4371 23.5542C32.2577 23.5542 33.0783 23.5542 33.9239 23.5542C33.9243 23.7765 33.9247 23.9989 33.9252 24.2279C33.9268 24.9639 33.9294 25.6999 33.9325 26.4359C33.9343 26.882 33.9359 27.328 33.9366 27.7741C33.9372 28.1632 33.9385 28.5523 33.9405 28.9413C33.9416 29.1471 33.9423 29.3528 33.9422 29.5586C33.9422 29.7528 33.9431 29.947 33.9446 30.1412C33.945 30.212 33.945 30.2827 33.9448 30.3535C33.9422 31.1476 34.1101 31.9792 34.6764 32.5751C35.3218 33.1485 36.1964 33.2172 37.0206 33.173C37.6051 33.1151 38.3313 32.8932 38.7327 32.4296C39.1618 31.8176 39.4167 31.1789 39.421 30.4211C39.4215 30.3602 39.4219 30.2994 39.4224 30.2367C39.4227 30.1701 39.423 30.1034 39.4232 30.0368C39.4237 29.9661 39.4241 29.8953 39.4246 29.8245C39.4259 29.6331 39.4269 29.4416 39.4278 29.2502C39.4289 29.0499 39.4301 28.8495 39.4314 28.6492C39.4337 28.2702 39.4358 27.8911 39.4379 27.5121C39.4402 27.0805 39.4428 26.6488 39.4454 26.2172C39.4507 25.3295 39.4557 24.4419 39.4605 23.5542C40.2812 23.5542 41.1018 23.5542 41.9473 23.5542C41.9515 25.0721 41.9549 26.5899 41.9569 28.1077C41.9571 28.2875 41.9574 28.4672 41.9576 28.647C41.9577 28.6827 41.9577 28.7185 41.9578 28.7554C41.9586 29.3325 41.9601 29.9096 41.9618 30.4868C41.9636 31.0802 41.9646 31.6737 41.965 32.2672C41.9652 32.6325 41.966 32.9978 41.9676 33.3632C41.9687 33.6447 41.9688 33.9262 41.9685 34.2078C41.9686 34.3222 41.969 34.4367 41.9697 34.5512C41.9789 36.0806 41.728 37.5962 40.6185 38.7263C40.577 38.7673 40.5355 38.8082 40.4928 38.8504C40.4407 38.9024 40.4407 38.9024 40.3876 38.9554C39.709 39.5955 38.8468 39.9011 37.959 40.1173C37.9007 40.1324 37.8424 40.1475 37.7824 40.1631C36.0094 40.5534 34.0348 40.1443 32.5162 39.1789C32.484 39.1594 32.4517 39.1399 32.4184 39.1198C32.3285 39.0381 32.3285 39.0381 32.306 38.9303C32.3064 38.8881 32.3068 38.8459 32.3072 38.8025C32.3073 38.7546 32.3073 38.7067 32.3073 38.6573C32.3083 38.6057 32.3092 38.5541 32.3102 38.5009C32.3105 38.448 32.3108 38.3951 32.311 38.3405C32.3121 38.1713 32.3144 38.0021 32.3168 37.8328C32.3178 37.7182 32.3186 37.6035 32.3194 37.4889C32.3215 37.2076 32.3246 36.9264 32.3285 36.6451C32.5266 36.6878 32.6835 36.7837 32.8564 36.8856C33.8854 37.476 35.0024 37.8465 36.1961 37.8391C36.2934 37.8387 36.3905 37.84 36.4878 37.8415C37.0882 37.8447 37.6817 37.7389 38.2171 37.4545C38.2638 37.4303 38.2638 37.4303 38.3114 37.4057C38.566 37.268 38.7652 37.1089 38.9444 36.8797C38.9822 36.833 38.9822 36.833 39.0208 36.7854C39.5239 36.1032 39.5673 35.2676 39.5837 34.4545C39.5855 34.38 39.5873 34.3055 39.5892 34.231C39.5936 34.0504 39.5976 33.8698 39.6013 33.6891C39.5703 33.6891 39.5393 33.6891 39.5074 33.6891C39.4877 33.7412 39.4877 33.7412 39.4677 33.7943C39.1727 34.5002 38.5116 35.0346 37.818 35.3237C36.6552 35.7626 35.2102 35.718 34.0664 35.2176C32.8974 34.6744 32.167 33.8458 31.7085 32.6488C31.3798 31.6715 31.4178 30.6589 31.4228 29.6425C31.4237 29.4279 31.4237 29.2133 31.4239 28.9987C31.4243 28.5937 31.4255 28.1888 31.4269 27.7838C31.4285 27.3222 31.4293 26.8606 31.43 26.399C31.4314 25.4507 31.434 24.5025 31.4371 23.5542Z" fill="#00B14F" style="fill:#00B14F;fill:color(display-p3 0.0000 0.6941 0.3098);fill-opacity:1;"/>
<path d="M6.05289 19.9883C13.9757 19.9883 13.9757 19.9883 15.6762 21.6318C16.6705 22.7031 16.8946 24.1697 16.8516 25.5704C16.7969 26.6924 16.4128 27.7714 15.6717 28.6217C15.6492 28.6504 15.6268 28.679 15.6037 28.7084C14.7571 29.7733 13.3183 30.2892 12.0122 30.4428C11.7177 30.4705 11.4206 30.4629 11.1251 30.4608C11.0514 30.4606 10.9776 30.4605 10.9038 30.4604C10.7121 30.4601 10.5203 30.4591 10.3286 30.4581C10.132 30.4571 9.93535 30.4567 9.73874 30.4562C9.35469 30.4552 8.97065 30.4536 8.58661 30.4517C8.58672 30.5115 8.58682 30.5714 8.58693 30.633C8.58788 31.1958 8.58858 31.7585 8.58904 32.3212C8.58929 32.6106 8.58962 32.8999 8.59015 33.1893C8.59066 33.4682 8.59094 33.7472 8.59106 34.0262C8.59115 34.1329 8.59132 34.2396 8.59157 34.3463C8.59191 34.4952 8.59196 34.644 8.59194 34.7929C8.59211 34.8375 8.59228 34.8821 8.59245 34.928C8.59196 35.2322 8.59196 35.2322 8.53969 35.2845C7.71905 35.2845 6.8984 35.2845 6.05289 35.2845C6.05289 30.2368 6.05289 25.189 6.05289 19.9883ZM8.58661 22.3344C8.58661 24.2544 8.58661 26.1744 8.58661 28.1525C11.2044 28.3414 11.2044 28.3414 13.5221 27.3285C14.1244 26.6866 14.331 25.8278 14.3241 24.9674C14.291 24.2728 14.0137 23.5629 13.5047 23.0822C12.7843 22.4736 11.9577 22.3024 11.0426 22.316C10.9791 22.3163 10.9156 22.3165 10.8521 22.3166C10.6208 22.3176 10.3897 22.3202 10.1585 22.3226C9.38039 22.3284 9.38039 22.3284 8.58661 22.3344Z" fill="#00B14F" style="fill:#00B14F;fill:color(display-p3 0.0000 0.6941 0.3098);fill-opacity:1;"/>
<path d="M25.2903 23.3197C25.324 23.3282 25.3577 23.3368 25.3925 23.3456C26.8383 23.7215 28.0403 24.514 28.808 25.8172C29.0325 26.2043 29.2049 26.5852 29.3372 27.0117C29.3482 27.0465 29.3592 27.0812 29.3705 27.117C29.6348 28.0222 29.6264 28.937 29.6212 29.8703C29.6204 30.0612 29.6203 30.2521 29.6201 30.4431C29.6197 30.8031 29.6185 31.1632 29.6171 31.5233C29.6155 31.9338 29.6148 32.3444 29.6141 32.7549C29.6126 33.5981 29.61 34.4413 29.607 35.2845C28.8173 35.2845 28.0276 35.2845 27.214 35.2845C27.1985 34.6341 27.183 33.9838 27.1671 33.3138C27.0432 33.5306 26.9193 33.7473 26.7917 33.9707C26.6554 34.1465 26.6554 34.1465 26.5337 34.2727C26.5116 34.2956 26.4895 34.3186 26.4668 34.3422C26.4039 34.4068 26.3398 34.4703 26.2756 34.5337C26.2294 34.5806 26.2294 34.5806 26.1823 34.6285C25.4402 35.3325 24.3433 35.6325 23.3418 35.6199C21.9443 35.5601 20.7403 35.1524 19.6598 34.2522C19.6309 34.2297 19.6021 34.2072 19.5723 34.184C19.3117 33.9755 19.1121 33.7178 18.909 33.4546C18.8804 33.4178 18.8518 33.3811 18.8223 33.3433C18.2152 32.5232 17.8759 31.5016 17.736 30.4985C17.7317 30.4676 17.7274 30.4367 17.7229 30.4049C17.4962 28.6127 17.8601 26.7489 18.9633 25.298C19.9009 24.126 21.1928 23.4136 22.6747 23.198C23.5271 23.1053 24.4578 23.1046 25.2903 23.3197ZM21.0674 26.651C20.3103 27.5568 20.1094 28.7005 20.1977 29.8466C20.303 30.9264 20.7574 31.8964 21.591 32.6019C22.2935 33.1413 23.2118 33.3002 24.076 33.2095C24.944 33.0934 25.7567 32.7342 26.3225 32.0469C26.8489 31.3305 27.1355 30.494 27.1671 29.607C27.169 29.5675 27.1708 29.5281 27.1728 29.4874C27.1992 28.4388 26.9358 27.3539 26.2287 26.5572C26.2048 26.529 26.181 26.5008 26.1565 26.4718C25.5966 25.8568 24.7311 25.5501 23.9173 25.5097C22.8012 25.4767 21.8234 25.8113 21.0674 26.651Z" fill="#00B14F" style="fill:#00B14F;fill:color(display-p3 0.0000 0.6941 0.3098);fill-opacity:1;"/>
<path d="M8.15965 1.11128C8.28626 1.11142 8.41282 1.11032 8.53943 1.10913C9.27046 1.10647 9.99156 1.18758 10.7009 1.36949C10.739 1.37921 10.7771 1.38893 10.8163 1.39895C11.5759 1.60345 12.2967 1.95727 12.9502 2.39295C12.9662 2.5242 12.9662 2.5242 12.9639 2.6895C12.9635 2.74848 12.963 2.80745 12.9625 2.86821C12.9614 2.93008 12.9602 2.99196 12.959 3.05571C12.9583 3.11857 12.9576 3.18144 12.957 3.24431C12.9554 3.39847 12.9531 3.55259 12.9502 3.70673C12.8001 3.63297 12.659 3.55049 12.5162 3.46333C10.6827 2.39601 8.33561 2.17107 6.29622 2.6862C5.88291 2.79745 5.4981 2.9555 5.1144 3.14368C5.06244 3.16872 5.01049 3.19376 4.95696 3.21956C3.44652 3.98858 2.32793 5.36236 1.80151 6.96491C1.24898 8.75929 1.42306 10.7239 2.29505 12.3867C3.09665 13.8668 4.43602 14.9307 6.03357 15.4252C6.33318 15.513 6.63597 15.5758 6.94431 15.6246C6.99862 15.6333 7.05294 15.6419 7.1089 15.6508C8.6642 15.8363 10.3575 15.6067 11.6276 14.6422C12.7114 13.7874 13.1779 12.6832 13.4194 11.3548C13.4504 10.6735 13.4813 9.99224 13.5132 9.29031C11.7481 9.29031 9.9829 9.29031 8.16425 9.29031C8.16425 8.87225 8.16425 8.45418 8.16425 8.02345C10.332 8.02345 12.4997 8.02345 14.7332 8.02345C14.7332 11.476 14.7332 11.476 14.5132 12.302C14.4949 12.3726 14.4949 12.3726 14.4763 12.4446C14.1876 13.5178 13.6644 14.4392 12.9033 15.2493C12.8791 15.277 12.8549 15.3048 12.8299 15.3334C11.8322 16.4273 10.1557 16.9282 8.7273 17.0322C7.93541 17.0642 7.15975 17.0438 6.38126 16.8915C6.34674 16.8849 6.31222 16.8784 6.27665 16.8717C4.26909 16.4812 2.49912 15.2665 1.35523 13.5804C0.701324 12.5892 0.340036 11.4869 0.14079 10.3226C0.134696 10.2898 0.128602 10.257 0.122324 10.2233C-0.231882 8.31381 0.316368 6.18687 1.40765 4.59823C1.43596 4.55649 1.46426 4.51476 1.49343 4.47176C1.71661 4.15333 1.96747 3.86628 2.23562 3.58574C2.29437 3.52407 2.35224 3.46157 2.41003 3.399C3.51813 2.23503 5.09815 1.51079 6.66278 1.21993C6.70778 1.21154 6.75277 1.20315 6.79912 1.19451C7.25314 1.11957 7.70036 1.11016 8.15965 1.11128Z" fill="#00B14F" style="fill:#00B14F;fill:color(display-p3 0.0000 0.6941 0.3098);fill-opacity:1;"/>
<path d="M31.9532 5.39591C31.9921 5.42101 32.0311 5.44611 32.0712 5.47197C33.3374 6.33274 34.1451 7.71156 34.44 9.19649C34.5227 9.63528 34.5469 10.0586 34.5445 10.5046C34.5445 10.5721 34.5445 10.6397 34.5445 10.7073C34.5446 10.8887 34.544 11.0702 34.5434 11.2516C34.5428 11.442 34.5427 11.6323 34.5426 11.8227C34.5423 12.1823 34.5415 12.5419 34.5406 12.9015C34.5395 13.3112 34.539 13.721 34.5386 14.1307C34.5376 14.9728 34.5359 15.8148 34.5338 16.6569C34.1003 16.6569 33.6667 16.6569 33.2201 16.6569C33.219 16.3625 33.219 16.3625 33.218 16.0622C33.2156 15.4116 33.2125 14.761 33.209 14.1104C33.2069 13.7162 33.205 13.322 33.2038 12.9278C33.2027 12.5839 33.2011 12.2399 33.199 11.896C33.1979 11.7142 33.197 11.5324 33.1967 11.3506C33.2005 10.2888 33.2005 10.2888 33.0324 9.24341C33.0188 9.18898 33.0052 9.13455 32.9912 9.07847C32.6934 7.95841 31.9731 6.99613 30.975 6.4146C29.8388 5.79793 28.455 5.60963 27.2021 5.96775C26.4167 6.20562 25.7147 6.57045 25.1497 7.1789C25.1185 7.21095 25.0873 7.24301 25.0551 7.27604C24.0137 8.37763 23.7408 9.77634 23.7804 11.2414C23.8005 11.6174 23.8772 11.9779 23.9767 12.3402C23.9854 12.3726 23.9942 12.4049 24.0033 12.4383C24.29 13.4597 24.9367 14.4451 25.8647 14.9905C25.9288 15.0257 25.9288 15.0257 25.9942 15.0616C26.0375 15.086 26.0807 15.1105 26.1253 15.1356C27.1953 15.7075 28.5804 15.8845 29.7479 15.5308C30.1021 15.4116 30.4219 15.2708 30.7332 15.0616C30.7642 15.0616 30.7952 15.0616 30.8271 15.0616C30.8339 15.2688 30.8381 15.476 30.8418 15.6833C30.8447 15.7716 30.8447 15.7716 30.8477 15.8616C30.8485 15.9182 30.8492 15.9747 30.85 16.033C30.8512 16.0851 30.8525 16.1372 30.8537 16.1909C30.8271 16.3285 30.8271 16.3285 30.7158 16.4362C29.6776 17.1092 28.371 17.1666 27.1854 16.917C25.5951 16.555 24.2732 15.6754 23.3667 14.3109C23.3402 14.2719 23.3137 14.233 23.2864 14.1928C22.3678 12.7639 22.2249 10.9215 22.5221 9.29033C22.7651 8.19734 23.2521 7.27468 23.9767 6.42816C24.0001 6.39847 24.0235 6.36877 24.0476 6.33817C24.2552 6.0782 24.5127 5.88069 24.7743 5.67743C24.8145 5.64537 24.8546 5.61332 24.896 5.58029C26.8756 4.0598 29.8962 4.0092 31.9532 5.39591Z" fill="#00B14F" style="fill:#00B14F;fill:color(display-p3 0.0000 0.6941 0.3098);fill-opacity:1;"/>
<path d="M12.1874 3.89055C12.2893 3.93947 12.3918 3.97958 12.4976 4.01923C12.6854 4.09936 12.8511 4.17814 12.9501 4.36363C13.0286 4.76446 12.9901 5.17986 12.9501 5.58357C12.7781 5.63853 12.7781 5.63853 12.6371 5.56615C12.5894 5.53416 12.5418 5.50216 12.4927 5.4692C11.3116 4.70745 10.0252 4.39623 8.63342 4.3167C8.54432 4.31153 8.54432 4.31153 8.45343 4.30626C7.17723 4.2714 5.9233 4.66409 4.95875 5.50824C4.38093 6.06923 3.94847 6.75954 3.71846 7.53078C3.70914 7.5619 3.69982 7.59302 3.69022 7.62508C3.28692 9.0552 3.51335 10.5399 4.23019 11.8242C4.3659 12.0447 4.51999 12.2409 4.69207 12.434C4.72328 12.4696 4.75449 12.5053 4.78664 12.542C5.47501 13.28 6.53979 13.7508 7.54443 13.8013C8.3981 13.8277 9.21264 13.8001 9.99412 13.4193C10.0358 13.3997 10.0775 13.38 10.1204 13.3598C10.748 13.0429 11.2047 12.5549 11.4428 11.8856C11.5006 11.6639 11.5445 11.4387 11.5894 11.2141C10.4591 11.2141 9.32878 11.2141 8.16421 11.2141C8.16421 10.765 8.16421 10.316 8.16421 9.85336C9.72808 9.85336 11.292 9.85336 12.9032 9.85336C12.9032 11.1531 12.8819 12.5937 11.9179 13.607C11.8869 13.607 11.8559 13.607 11.824 13.607C11.8096 13.6456 11.8096 13.6456 11.7949 13.6849C11.7053 13.837 11.58 13.9385 11.4457 14.0498C11.4183 14.0728 11.3908 14.0958 11.3625 14.1194C11.1531 14.2909 10.9416 14.4272 10.6979 14.5454C10.6659 14.5639 10.6338 14.5823 10.6008 14.6013C9.40248 15.2673 7.79139 15.3212 6.48695 14.981C5.34941 14.6529 4.27308 14.0687 3.51905 13.1378C3.47015 13.0826 3.47015 13.0826 3.42026 13.0262C3.11203 12.6702 2.8912 12.286 2.67447 11.871C2.64834 11.8229 2.62221 11.7748 2.59529 11.7252C1.98029 10.5129 1.84809 8.81965 2.20526 7.50732C2.21434 7.47392 2.22341 7.44052 2.23276 7.4061C2.67245 5.83801 3.71977 4.57583 5.11436 3.75365C5.3427 3.62917 5.57825 3.52518 5.81817 3.42521C5.86897 3.40356 5.91978 3.3819 5.97213 3.35959C7.92868 2.59095 10.3566 2.96569 12.1874 3.89055Z" fill="#00B14F" style="fill:#00B14F;fill:color(display-p3 0.0000 0.6941 0.3098);fill-opacity:1;"/>
<path d="M45.7885 5.77676C45.8216 5.80591 45.8546 5.83506 45.8886 5.8651C45.8886 5.89607 45.8886 5.92704 45.8886 5.95894C45.9166 5.9717 45.9445 5.98447 45.9733 5.99761C46.8036 6.44231 47.3777 7.75142 47.6454 8.60777C47.6979 8.78515 47.7444 8.96365 47.788 9.14344C47.8099 9.23349 47.8339 9.32307 47.858 9.41257C48.099 10.4406 47.9975 11.5679 47.7185 12.5748C47.7095 12.6083 47.7005 12.6419 47.6912 12.6764C47.4132 13.683 46.8883 14.5465 46.1701 15.2962C46.1404 15.3283 46.1107 15.3604 46.0801 15.3935C45.1109 16.4107 43.6659 17.0005 42.2689 17.0418C40.6347 17.0644 39.0873 16.6073 37.8652 15.4839C37.4265 15.0522 37.0843 14.5816 36.7918 14.0411C36.7641 13.9903 36.7641 13.9903 36.7358 13.9385C36.5488 13.5832 36.5488 13.5832 36.5514 13.3724C36.6164 13.2551 36.6775 13.1624 36.7596 13.0586C36.803 13.0012 36.8465 12.9437 36.8899 12.8862C36.9228 12.8435 36.9228 12.8435 36.9564 12.7999C37.0168 12.7205 37.0749 12.6399 37.1322 12.5581C37.3206 12.2899 37.3206 12.2899 37.3959 12.1994C37.4269 12.1994 37.4579 12.1994 37.4898 12.1994C37.5052 12.2517 37.5206 12.3039 37.5365 12.3578C37.762 13.0927 38.0638 13.7173 38.6159 14.2639C38.6754 14.3263 38.6754 14.3263 38.7361 14.39C38.7739 14.4258 38.8116 14.4616 38.8505 14.4985C38.8745 14.5223 38.8985 14.5461 38.9233 14.5706C39.8513 15.443 41.0784 15.7159 42.3157 15.688C42.7077 15.6712 43.0745 15.599 43.4487 15.4839C43.5029 15.4674 43.5571 15.451 43.613 15.434C44.0201 15.2931 44.3671 15.0755 44.7156 14.827C44.7611 14.7946 44.8067 14.7623 44.8536 14.7289C45.8589 13.961 46.3861 12.733 46.5715 11.5119C46.6577 10.7901 46.6234 10.0429 46.4517 9.33724C46.4391 9.28516 46.4266 9.23309 46.4137 9.17943C46.2554 8.60317 45.9684 8.03062 45.6071 7.55425C45.574 7.51004 45.5409 7.46582 45.5068 7.42027C44.7958 6.51693 43.741 5.96799 42.6023 5.83119C41.0645 5.72352 39.7738 6.03452 38.5906 7.0534C38.4233 7.2009 38.261 7.35325 38.0998 7.50733C38.062 7.54314 38.0243 7.57894 37.9854 7.61583C37.7614 7.83361 37.5616 8.06428 37.3664 8.3081C37.2698 8.42765 37.1709 8.54467 37.0705 8.66106C36.8104 8.96322 36.5692 9.27654 36.332 9.59677C36.1513 9.8405 35.9672 10.0815 35.783 10.3226C35.7211 10.4037 35.6591 10.4848 35.5972 10.566C35.5682 10.6038 35.5393 10.6416 35.5094 10.6805C35.4534 10.7546 35.3981 10.8293 35.3437 10.9045C35.3187 10.9389 35.2937 10.9733 35.268 11.0088C35.2462 11.0394 35.2244 11.07 35.2019 11.1015C35.1731 11.134 35.1731 11.134 35.1437 11.1672C35.1128 11.1672 35.0818 11.1672 35.0499 11.1672C34.9831 9.20036 34.9831 9.20036 35.5336 8.58248C35.5623 8.55255 35.5909 8.52263 35.6204 8.4918C35.741 8.362 35.8437 8.22117 35.9487 8.07874C36.0472 7.94555 36.1491 7.81522 36.2512 7.68484C36.3079 7.61248 36.3642 7.53977 36.4203 7.46701C36.6664 7.15232 36.9333 6.85826 37.2083 6.56891C37.2323 6.54353 37.2563 6.51815 37.2811 6.492C37.6374 6.11832 38.0091 5.79115 38.4282 5.48973C38.4636 5.46336 38.4991 5.43699 38.5356 5.40982C40.7141 3.85958 43.7367 4.2392 45.7885 5.77676Z" fill="#00B14F" style="fill:#00B14F;fill:color(display-p3 0.0000 0.6941 0.3098);fill-opacity:1;"/>
<path d="M44.8809 7.48258C45.4366 8.04966 45.7872 8.76047 45.9825 9.52492C45.9924 9.5629 46.0024 9.60089 46.0127 9.64002C46.3035 10.8367 46.0769 12.1709 45.4663 13.2317C44.8926 14.1318 44.0143 14.8474 42.9608 15.0872C41.8806 15.303 40.7777 15.1495 39.8446 14.5513C39.7784 14.5035 39.7129 14.4545 39.6482 14.4047C39.5862 14.3585 39.5862 14.3585 39.523 14.3114C38.8162 13.7625 38.1104 12.8296 37.959 11.9179C37.933 11.6205 37.9755 11.4669 38.1643 11.2317C38.2072 11.1752 38.2501 11.1188 38.2929 11.0623C38.3152 11.0335 38.3374 11.0048 38.3604 10.9752C38.4295 10.884 38.4953 10.7912 38.5605 10.6972C38.5816 10.6669 38.6027 10.6366 38.6244 10.6053C38.6651 10.5466 38.7057 10.4878 38.7461 10.4289C38.7942 10.3605 38.8456 10.2944 38.8974 10.2287C38.9284 10.2287 38.9594 10.2287 38.9913 10.2287C38.9959 10.2849 39.0005 10.3411 39.0052 10.399C39.0839 11.2875 39.2598 12.23 39.9179 12.8853C39.9766 12.9501 39.9766 12.9501 39.9766 13.044C40.0036 13.0563 40.0307 13.0685 40.0585 13.0812C40.1709 13.1413 40.2576 13.2112 40.3549 13.2932C40.898 13.7194 41.5904 13.9039 42.2757 13.8416C42.7682 13.7746 43.2315 13.6326 43.623 13.3165C43.7303 13.2317 43.7303 13.2317 43.8241 13.2317C43.8434 13.1894 43.8434 13.1894 43.8631 13.1463C43.9179 13.044 43.9179 13.044 44.044 12.9091C44.7163 12.135 44.7779 11.1092 44.7156 10.1349C44.6521 9.44528 44.2717 8.74074 43.7473 8.29325C43.4913 8.09897 43.2347 7.94533 42.9326 7.83577C42.8983 7.82234 42.8639 7.80892 42.8285 7.79508C42.0742 7.53107 41.2412 7.63297 40.5241 7.95912C39.7271 8.3687 39.0688 9.10909 38.5221 9.80644C38.3147 10.0679 38.1049 10.3265 37.8886 10.5806C37.0182 11.6049 36.1911 12.6842 35.4365 13.7967C35.417 13.8253 35.3976 13.8539 35.3776 13.8833C35.326 13.9598 35.2749 14.0365 35.2239 14.1133C35.1842 14.1646 35.1842 14.1646 35.1438 14.217C35.1128 14.217 35.0818 14.217 35.0499 14.217C35.0464 13.949 35.0439 13.6811 35.0422 13.4131C35.0415 13.3221 35.0405 13.231 35.0393 13.1399C35.0376 13.0087 35.0368 12.8774 35.0362 12.7461C35.0354 12.7058 35.0347 12.6654 35.034 12.6238C35.0339 12.2986 35.1055 12.0569 35.3078 11.7949C35.3298 11.7659 35.3519 11.737 35.3746 11.7072C35.3981 11.677 35.4216 11.6469 35.4458 11.6158C35.4965 11.5495 35.5472 11.4833 35.5979 11.417C35.6238 11.3834 35.6497 11.3498 35.6763 11.3151C35.7748 11.1866 35.8715 11.0567 35.9682 10.9268C36.21 10.602 36.4574 10.2821 36.7085 9.96444C36.8304 9.81007 36.9506 9.65452 37.0704 9.49853C37.0897 9.47357 37.1089 9.44861 37.1287 9.4229C37.2257 9.29666 37.3221 9.16998 37.4176 9.04252C37.7553 8.5937 38.1243 8.18597 38.5221 7.78885C38.5491 7.75964 38.5761 7.73042 38.604 7.70032C39.3866 6.86715 40.5199 6.35111 41.6592 6.28885C42.8905 6.2766 43.9669 6.63219 44.8809 7.48258Z" fill="#00B14F" style="fill:#00B14F;fill:color(display-p3 0.0000 0.6941 0.3098);fill-opacity:1;"/>
<path d="M31.349 7.32843C32.2679 8.18551 32.635 9.28072 32.7038 10.5103C32.7095 10.7215 32.7098 10.9325 32.7091 11.1437C32.7091 11.2038 32.7092 11.2638 32.7092 11.3257C32.7092 11.4882 32.7089 11.6507 32.7086 11.8133C32.7083 11.9839 32.7082 12.1546 32.7082 12.3252C32.708 12.6474 32.7077 12.9696 32.7072 13.2918C32.7067 13.659 32.7064 14.0262 32.7062 14.3934C32.7057 15.1479 32.7048 15.9024 32.7038 16.6569C32.2703 16.6569 31.8367 16.6569 31.39 16.6569C31.389 16.3749 31.389 16.3749 31.388 16.0873C31.3856 15.4642 31.3825 14.8412 31.379 14.2181C31.3769 13.8406 31.375 13.463 31.3738 13.0855C31.3727 12.7561 31.3711 12.4267 31.369 12.0973C31.3679 11.9232 31.367 11.7491 31.3667 11.575C31.3646 10.4742 31.361 9.39925 30.6393 8.49266C30.0603 7.92076 29.3301 7.63224 28.5191 7.62755C27.7812 7.63883 27.1008 7.88881 26.5572 8.39881C25.9166 9.06695 25.6313 9.94518 25.647 10.8578C25.6807 11.7045 25.9487 12.5135 26.564 13.1133C27.1638 13.6434 27.8941 13.8677 28.6879 13.8535C29.3598 13.806 30.0195 13.661 30.5896 13.2912C30.6862 13.2317 30.6862 13.2317 30.827 13.1847C30.8379 13.3988 30.8445 13.6127 30.8504 13.827C30.8536 13.8877 30.8567 13.9484 30.86 14.0109C30.869 14.447 30.869 14.447 30.7542 14.5877C30.6555 14.6515 30.5621 14.6932 30.4516 14.7331C30.4071 14.7534 30.4071 14.7534 30.3617 14.774C29.3721 15.218 28.108 15.3609 27.0758 14.981C25.9831 14.5594 25.1677 13.8414 24.6705 12.7722C24.1524 11.5936 24.1166 10.2285 24.5464 9.01706C24.9509 7.98643 25.683 7.15971 26.6866 6.68217C28.2254 6.01103 30.0738 6.18507 31.349 7.32843Z" fill="#00B14F" style="fill:#00B14F;fill:color(display-p3 0.0000 0.6941 0.3098);fill-opacity:1;"/>
<path d="M23.9765 5.39591C23.9243 5.55253 23.8871 5.58227 23.7624 5.6833C23.5729 5.84153 23.4224 6.01695 23.2706 6.21116C23.1788 6.2874 23.1788 6.2874 23.0626 6.28099C22.9542 6.24392 22.8518 6.20304 22.7477 6.15544C21.6124 5.70163 20.3032 5.72885 19.1788 6.19943C18.2755 6.6069 17.6009 7.30111 17.2111 8.21409C16.875 9.13181 16.8627 10.0116 16.8629 10.9758C16.8628 11.1761 16.8616 11.3764 16.8605 11.5766C16.8586 11.9545 16.8576 12.3323 16.857 12.7102C16.8563 13.1409 16.8544 13.5717 16.8526 14.0024C16.8487 14.8873 16.8463 15.7721 16.8445 16.6569C16.4109 16.6569 15.9774 16.6569 15.5307 16.6569C15.5275 15.7294 15.5249 14.8018 15.5234 13.8743C15.5227 13.4435 15.5217 13.0128 15.5201 12.582C15.5187 12.2062 15.5178 11.8304 15.5175 11.4545C15.5173 11.2559 15.5169 11.0572 15.5158 10.8586C15.5069 9.07064 15.7201 7.38752 17.0322 6.0528C17.0737 6.01016 17.1152 5.96752 17.1579 5.92358C17.5118 5.57306 17.9035 5.33841 18.346 5.11438C18.3898 5.09128 18.4337 5.06817 18.4788 5.04437C20.1573 4.21414 22.4252 4.36172 23.9765 5.39591Z" fill="#00B14F" style="fill:#00B14F;fill:color(display-p3 0.0000 0.6941 0.3098);fill-opacity:1;"/>
<path d="M20.8701 6.32862C21.5526 6.31361 22.2397 6.45015 22.8035 6.85043C22.7786 6.89688 22.7537 6.94333 22.728 6.99119C22.5615 7.30211 22.3956 7.61283 22.2405 7.92961C22.1944 7.916 22.1944 7.916 22.1474 7.90211C21.3437 7.67283 20.5274 7.58035 19.7636 8.00182C19.2386 8.34915 18.9036 8.82573 18.7656 9.4452C18.7042 9.76317 18.7069 10.0806 18.7065 10.4033C18.706 10.4718 18.7055 10.5403 18.705 10.6088C18.7037 10.7933 18.703 10.9779 18.7024 11.1624C18.7017 11.3558 18.7004 11.5492 18.6992 11.7425C18.697 12.1081 18.6953 12.4737 18.6938 12.8393C18.692 13.2557 18.6896 13.6721 18.6873 14.0886C18.6824 14.9447 18.6783 15.8008 18.6745 16.6569C18.2409 16.6569 17.8074 16.6569 17.3607 16.6569C17.3575 15.7575 17.3549 14.8581 17.3534 13.9587C17.3527 13.5411 17.3517 13.1234 17.3501 12.7057C17.3487 12.3414 17.3478 11.9771 17.3475 11.6128C17.3473 11.4201 17.3469 11.2275 17.3458 11.0348C17.3449 10.8529 17.3446 10.6711 17.3448 10.4892C17.3447 10.4229 17.3445 10.3567 17.3439 10.2905C17.3354 9.19751 17.6351 8.17614 18.393 7.36656C19.0539 6.71925 19.9525 6.3684 20.8701 6.32862Z" fill="#00B14F" style="fill:#00B14F;fill:color(display-p3 0.0000 0.6941 0.3098);fill-opacity:1;"/>
<path d="M35.8474 0C36.281 0 36.7145 0 37.1612 0C37.1697 0.745998 37.1766 1.49196 37.1807 2.23799C37.1826 2.58441 37.1852 2.9308 37.1895 3.27719C37.1933 3.57922 37.1957 3.88123 37.1965 4.18328C37.197 4.34314 37.1982 4.50293 37.2009 4.66276C37.2036 4.8415 37.204 5.0201 37.2038 5.19886C37.2059 5.27779 37.2059 5.27779 37.2079 5.35831C37.205 5.63583 37.1779 5.78596 36.9781 5.9864C36.9145 6.04042 36.8505 6.0939 36.7859 6.14663C36.7139 6.22932 36.6432 6.31321 36.5747 6.39883C36.5399 6.44219 36.505 6.48556 36.4691 6.53024C36.4343 6.57397 36.3995 6.6177 36.3636 6.66276C36.3278 6.70697 36.292 6.75118 36.2551 6.79674C36.0822 7.00063 36.0822 7.00063 35.9413 7.22581C35.9103 7.22581 35.8793 7.22581 35.8474 7.22581C35.8474 4.84129 35.8474 2.45677 35.8474 0Z" fill="#00B14F" style="fill:#00B14F;fill:color(display-p3 0.0000 0.6941 0.3098);fill-opacity:1;"/>
<path d="M37.7243 0C38.1424 0 38.5604 0 38.9912 0C38.9912 1.48645 38.9912 2.9729 38.9912 4.5044C38.7899 4.61279 38.5886 4.72117 38.3812 4.83284C38.2637 4.91628 38.1538 4.99647 38.0439 5.08798C37.7822 5.30205 37.7822 5.30205 37.6774 5.30205C37.6763 4.61768 37.6755 3.93331 37.6749 3.24893C37.6747 2.93119 37.6744 2.61344 37.6738 2.2957C37.6733 1.98934 37.673 1.68298 37.6729 1.37662C37.6728 1.25945 37.6727 1.14228 37.6724 1.02511C37.6721 0.861624 37.672 0.698139 37.6721 0.534652C37.6719 0.485682 37.6717 0.436711 37.6715 0.386256C37.6716 0.341974 37.6717 0.297692 37.6717 0.252068C37.6717 0.213358 37.6716 0.174649 37.6716 0.134766C37.6774 0.0469208 37.6774 0.0469208 37.7243 0Z" fill="#00B14F" style="fill:#00B14F;fill:color(display-p3 0.0000 0.6941 0.3098);fill-opacity:1;"/>
</g>
<defs>
<clipPath id="clip0_9_1782">
<rect width="48" height="40.305" fill="white" style="fill:white;fill-opacity:1;"/>
</clipPath>
</defs>
</svg>
