<svg width="46" height="14" viewBox="0 0 46 14" fill="none" xmlns="http://www.w3.org/2000/svg">
<path d="M10.1213 0C9.05586 0 8.05313 0.406599 7.30109 1.15724L7.70845 1.93917L7.55177 2.06427C7.20708 1.43874 6.67439 0.938306 6.07902 0.562983C5.45232 0.218938 4.76294 0 4.04223 0C1.7861 0.0312769 0 1.97044 0 4.28493V9.1954C0 9.22667 7.00395e-09 9.28923 0.0313352 9.3205C0.0313352 9.35178 0.0626703 9.38306 0.0940055 9.41433C0.125341 9.44561 0.156676 9.47689 0.188011 9.47689C0.219346 9.47689 0.282016 9.50816 0.313352 9.50816H1.91144C1.94278 9.50816 2.00545 9.50816 2.03678 9.47689C2.06812 9.47689 2.09946 9.44561 2.13079 9.41433C2.16213 9.38306 2.19346 9.35178 2.19346 9.3205C2.2248 9.28923 2.2248 9.25795 2.2248 9.22667V4.22238C2.2248 3.09641 2.91417 2.1581 4.10491 2.1581C5.20164 2.1581 5.98501 2.9713 5.98501 4.1911V8.28837C5.98501 8.31964 5.98501 8.3822 6.01635 8.41348C6.01635 8.44475 6.04768 8.47603 6.07902 8.50731C6.11035 8.53858 6.14169 8.56986 6.17303 8.56986C6.20436 8.60114 6.2357 8.60114 6.29837 8.60114H7.83379C7.86512 8.60114 7.92779 8.60114 7.95913 8.56986C7.99046 8.53858 8.0218 8.53858 8.05313 8.50731C8.08447 8.47603 8.1158 8.44475 8.1158 8.41348C8.1158 8.3822 8.14714 8.31964 8.14714 8.28837V4.1911C8.1158 3.94088 8.17847 3.65939 8.24115 3.40918C8.33515 3.15896 8.46049 2.94002 8.6485 2.75236C8.83651 2.5647 9.05586 2.40832 9.2752 2.31449C9.52589 2.22066 9.77657 2.1581 10.0272 2.1581C11.1866 2.1581 11.8447 3.09641 11.8447 4.22238V9.1954C11.8447 9.28923 11.876 9.35178 11.9387 9.41433C12.0014 9.47689 12.064 9.50816 12.158 9.50816H13.7561C13.7875 9.50816 13.8501 9.50816 13.8815 9.47689C13.9128 9.47689 13.9441 9.44561 13.9755 9.41433C14.0068 9.38306 14.0381 9.35178 14.0381 9.3205C14.0381 9.28923 14.0695 9.22667 14.0695 9.1954V4.25365C14.0695 1.97044 12.346 0 10.1213 0Z" fill="#2FF19E" style="fill:#2FF19E;fill:color(display-p3 0.1843 0.9451 0.6196);fill-opacity:1;"/>
<path d="M24.6608 0.187661H23.1881C23.1567 0.187661 23.0941 0.187661 23.0627 0.218938C23.0314 0.218938 23.0001 0.250215 22.9687 0.281492C22.9374 0.312769 22.9061 0.344045 22.9061 0.375322C22.9061 0.406599 22.8747 0.469153 22.8747 0.50043V0.688091L23.4074 1.50129L23.2507 1.6264C22.812 1.12597 22.2793 0.719368 21.684 0.437876C21.0886 0.156384 20.4306 0 19.7725 0C18.5191 0.0625537 17.3284 0.59426 16.4823 1.50129C15.6363 2.40832 15.1349 3.59684 15.1349 4.81664C15.1349 6.03643 15.605 7.25623 16.451 8.16326C17.2971 9.07029 18.4878 9.60199 19.7099 9.66455C20.3679 9.66455 21.0259 9.50816 21.6526 9.22667C22.248 8.94518 22.812 8.53858 23.2194 8.03815L23.3447 8.13198L22.812 8.97646V9.16412C22.812 9.1954 22.812 9.25795 22.8434 9.28923C22.8747 9.3205 22.8747 9.35178 22.9061 9.38306C22.9374 9.41433 22.9687 9.44561 23.0001 9.44561C23.0314 9.47689 23.0941 9.47689 23.1254 9.47689H24.6295C24.6608 9.47689 24.7235 9.47689 24.7548 9.44561C24.7862 9.44561 24.8175 9.41433 24.8488 9.38306C24.8802 9.35178 24.9115 9.3205 24.9115 9.28923C24.9115 9.25795 24.9428 9.1954 24.9428 9.16412V0.50043C24.9428 0.469153 24.9428 0.406599 24.9115 0.375322C24.9115 0.344045 24.8802 0.312769 24.8488 0.281492C24.8175 0.250215 24.7862 0.218938 24.7548 0.218938C24.7235 0.187661 24.6922 0.187661 24.6608 0.187661ZM19.7099 7.60028C18.9892 7.60028 18.2684 7.31878 17.7671 6.78708C17.2344 6.28665 16.9524 5.56728 16.9524 4.84791C16.9524 4.12854 17.2344 3.40918 17.7671 2.90875C18.2998 2.37704 18.9892 2.09555 19.7099 2.09555C20.4306 2.09555 21.1513 2.37704 21.6526 2.90875C22.1853 3.44045 22.4674 4.12854 22.4674 4.84791C22.4674 5.56728 22.1853 6.28665 21.6526 6.78708C21.1513 7.31878 20.4619 7.60028 19.7099 7.60028Z" fill="#2FF19E" style="fill:#2FF19E;fill:color(display-p3 0.1843 0.9451 0.6196);fill-opacity:1;"/>
<path d="M45.6867 0.187661H44.2139C44.1826 0.187661 44.1199 0.187661 44.0886 0.218938C44.0573 0.218938 44.0259 0.250215 43.9946 0.281492C43.9633 0.312769 43.9319 0.344045 43.9319 0.375322C43.9006 0.406599 43.9006 0.469153 43.9006 0.50043V0.688091L44.4333 1.50129L44.2766 1.6264C43.8379 1.12597 43.3052 0.719368 42.7099 0.437876C42.1145 0.156384 41.4564 0 40.7984 0C39.5137 0 38.2916 0.50043 37.3829 1.40746C36.4742 2.31449 35.9728 3.53428 35.9728 4.81664C35.9728 6.09899 36.4742 7.31878 37.3829 8.22581C38.2916 9.13284 39.5137 9.63327 40.7984 9.63327C41.4564 9.63327 42.1145 9.47689 42.7412 9.1954C43.3366 8.9139 43.9006 8.5073 44.3079 8.00687L44.4333 8.10071L43.9006 9.00773V9.1954C43.9006 9.22667 43.9006 9.28923 43.9319 9.3205C43.9633 9.35178 43.9633 9.38306 43.9946 9.41433C44.0259 9.44561 44.0573 9.47689 44.0886 9.47689C44.1199 9.50816 44.1826 9.50816 44.2139 9.50816H45.6867C45.718 9.50816 45.7807 9.50816 45.812 9.47689C45.8434 9.47689 45.8747 9.44561 45.906 9.41433C45.9374 9.38306 45.9687 9.35178 45.9687 9.3205C45.9687 9.28923 46 9.22667 46 9.1954V0.50043C46 0.469153 46 0.406599 45.9687 0.375322C45.9687 0.344045 45.9374 0.312769 45.906 0.281492C45.8747 0.250215 45.8434 0.218938 45.812 0.218938C45.7494 0.187661 45.718 0.187661 45.6867 0.187661ZM40.7671 7.60028C40.0464 7.60028 39.3257 7.31878 38.8243 6.78708C38.3229 6.25537 38.0096 5.56728 38.0096 4.84791C38.0096 4.12854 38.2916 3.40918 38.8243 2.90875C39.357 2.37704 40.0464 2.09555 40.7671 2.09555C41.4878 2.09555 42.2085 2.37704 42.7099 2.90875C43.2112 3.44045 43.5246 4.12854 43.5246 4.84791C43.5246 5.56728 43.2425 6.28665 42.7099 6.78708C42.2085 7.31878 41.4878 7.60028 40.7671 7.60028Z" fill="#2FF19E" style="fill:#2FF19E;fill:color(display-p3 0.1843 0.9451 0.6196);fill-opacity:1;"/>
<path d="M34.7194 0.187744H33.2153C32.9646 0.187744 32.8393 0.312852 32.8393 0.437959V4.9731C32.8706 5.28587 32.808 5.59864 32.714 5.91141C32.5886 6.22418 32.432 6.47439 32.2126 6.69333C31.9933 6.91227 31.7112 7.09993 31.4292 7.22504C31.1472 7.35014 30.8025 7.38142 30.4892 7.38142C29.1731 7.38142 28.2957 6.41184 28.2957 4.9731V0.469236C28.2957 0.344128 28.0764 0.219021 27.951 0.219021H26.3216C26.2589 0.219021 26.1963 0.250298 26.1336 0.312852C26.0709 0.375405 26.0709 0.437959 26.0396 0.500513V5.00438C26.0396 6.1929 26.4783 7.31887 27.293 8.16334C28.1077 9.00782 29.2358 9.50825 30.4265 9.50825C31.5546 9.50825 32.6513 9.10165 33.4973 8.351L33.5914 8.41356L32.9333 9.32059V9.69591C32.9333 10.6342 31.5232 11.1346 30.7085 11.1346H30.1758C30.1445 11.1346 30.0818 11.1346 30.0505 11.1659C30.0191 11.1659 29.9878 11.1972 29.9565 11.2285C29.9251 11.2597 29.8938 11.291 29.8938 11.3223C29.8625 11.3536 29.8625 11.4161 29.8625 11.4474V12.9174C29.8625 13.0113 29.8938 13.0738 29.9565 13.1364C30.0191 13.1989 30.1131 13.2302 30.1758 13.2302H30.7085C33.2153 13.2302 35.0328 11.7915 35.0328 9.03909V0.469236C35.0328 0.406682 34.9701 0.312852 34.9388 0.281575C34.8761 0.219021 34.7821 0.187744 34.7194 0.187744Z" fill="#2FF19E" style="fill:#2FF19E;fill:color(display-p3 0.1843 0.9451 0.6196);fill-opacity:1;"/>
</svg>
