<svg width="48" height="44" viewBox="0 0 48 44" fill="none" xmlns="http://www.w3.org/2000/svg">
<path d="M30.5753 0.573761C27.0668 0.887157 19.6064 1.54453 14.0035 2.04137C3.06135 3.00832 3.43972 2.96627 2.78235 3.24145C1.47908 3.78034 0.493026 4.91545 0.103192 6.32956L0 6.7041V23.3867V40.0694L0.0993697 40.4325C0.336328 41.2771 0.722341 41.9421 1.31856 42.5345C2.02943 43.2454 2.87025 43.6696 3.84102 43.8187C4.38755 43.8989 43.5774 43.8989 44.1239 43.8187C45.0947 43.6696 45.9355 43.2454 46.6464 42.5345C47.2426 41.9421 47.6325 41.2733 47.8618 40.4439L47.965 40.0694V26.5016V12.9338L47.8618 12.5593C47.6325 11.7337 47.2464 11.0649 46.6502 10.4687C46.1113 9.92979 45.5113 9.56289 44.8119 9.34504C44.0934 9.11573 45.4081 9.13102 25.2437 9.13102C8.79039 9.13102 6.69981 9.12337 6.49725 9.07369C5.66407 8.85966 5.08314 8.22905 4.94937 7.38823C4.86911 6.88373 5.04492 6.49772 5.4424 6.29134L5.6526 6.18814H22.1671C37.1642 6.18814 38.7007 6.18432 38.8612 6.127C39.0943 6.04673 39.358 5.76009 39.4192 5.52313C39.4841 5.2556 39.4765 1.8885 39.4077 1.55981C39.2625 0.871868 38.7198 0.279472 38.0548 0.0730896C37.8675 0.0157623 37.7108 -0.0033493 37.3821 0.000473022C37.149 0.00429535 34.0876 0.260365 30.5753 0.573761ZM25.3813 14.3823C26.4667 14.5237 27.5369 14.7989 28.5573 15.1887C29.3943 15.5136 30.8466 16.3009 31.0415 16.5379C31.2097 16.7404 31.1753 16.8436 30.6632 17.6577C30.174 18.4259 30.1052 18.4985 29.9026 18.445C29.8529 18.4297 29.6313 18.3074 29.4134 18.1698C27.8808 17.2105 26.1457 16.6755 24.2118 16.5646C22.9391 16.492 21.5403 16.8895 20.6154 17.5851C19.4917 18.4335 18.9299 19.7101 19.1439 20.9369C19.3542 22.1293 20.195 23.081 21.7811 23.9065C22.3849 24.2199 22.9391 24.4454 23.9443 24.7817C26.0769 25.5003 27.4986 26.1156 28.6911 26.8303C30.2466 27.7628 31.1677 28.6839 31.7371 29.8878C32.2646 30.9923 32.3754 32.2994 32.062 33.7021C31.9282 34.2983 31.7792 34.7072 31.4887 35.2767C30.5485 37.1074 28.8134 38.3151 26.44 38.7852C25.5762 38.9572 25.1252 38.9954 24.1239 38.9687C23.1684 38.9457 22.5951 38.8846 21.7276 38.7126C19.6637 38.2998 17.9133 37.4972 16.2431 36.1901C15.8074 35.8462 15.7272 35.7621 15.7272 35.6321C15.7272 35.5901 15.9718 35.1926 16.2699 34.7569C16.8737 33.8779 16.9463 33.8091 17.191 33.9085C17.2559 33.939 17.5387 34.1339 17.8177 34.3403C20.0727 36.0373 22.7671 36.8513 25.1099 36.5532C27.6018 36.2322 29.3293 34.948 29.6962 33.1364C29.7841 32.7046 29.7574 31.8943 29.6427 31.5083C29.2873 30.3044 28.2286 29.219 26.6272 28.4164C26.031 28.1183 25.6565 27.9692 24.6475 27.6252C23.1264 27.1093 20.6727 26.1347 20.1224 25.8213C19.4 25.4162 18.735 24.9002 18.1541 24.3002C17.3668 23.4861 16.9005 22.6224 16.6788 21.5828C16.5642 21.0592 16.5565 20.0235 16.6559 19.5075C16.9731 17.8947 17.8751 16.5646 19.3006 15.6092C20.2943 14.9441 21.4868 14.5123 22.7862 14.3479C23.3136 14.2791 24.743 14.2982 25.3813 14.3823Z" fill="#EE4E2C" style="fill:#EE4E2C;fill:color(display-p3 0.9333 0.3059 0.1725);fill-opacity:1;"/>
</svg>
