<svg width="49" height="17" viewBox="0 0 49 17" fill="none" xmlns="http://www.w3.org/2000/svg">
<g clip-path="url(#clip0_9_1523)">
<path d="M3.05176e-05 0.462524L0.0867525 16.2604L10.8331 16.199C11.9637 16.0844 13.2358 15.8143 14.1249 15.1222C14.6131 14.7421 15.0997 14.2391 15.4185 13.5937V16.2279L23.303 16.17C29.6783 15.7426 31.8374 11.3429 31.8053 8.45902C31.7719 5.45245 29.7781 0.832147 22.602 0.491432L15.4185 0.462524V10.0706C14.994 9.13256 14.0813 8.21962 12.1194 7.6749C13.6075 6.82599 14.2778 5.5018 14.1213 4.11208C13.9723 2.78997 13.4097 0.990712 9.95861 0.520339L3.05176e-05 0.462524ZM7.91341 2.54747C9.89233 2.90363 10.2861 4.02409 10.291 4.87089C10.2964 5.7913 9.77623 6.9958 7.91341 7.08953L3.67849 7.07508V2.57637L7.91341 2.54747ZM19.2415 2.56192L21.5505 2.59444C26.11 2.53867 27.5834 5.76914 27.5668 8.37591C27.553 10.5411 26.6824 14.1413 21.5505 14.1285L19.1837 14.0996L19.2415 2.56192ZM9.15282 9.16363C11.169 9.36886 11.923 10.5431 11.9713 11.6171C12.0138 12.5636 11.5703 13.961 9.21063 14.1429H3.69294V9.22145L9.15282 9.16363Z" fill="#0B2972" style="fill:#0B2972;fill:color(display-p3 0.0431 0.1608 0.4471);fill-opacity:1;"/>
<path d="M38.7033 0C33.5497 0 29.3735 3.7595 29.3735 8.39397C29.3735 13.0284 33.5497 16.7843 38.7033 16.7843C43.857 16.7843 48.0368 13.0284 48.0368 8.39397C48.0368 3.7595 43.857 0 38.7033 0ZM38.7539 1.89343C41.7276 1.89343 44.1379 4.77835 44.1379 8.33615C44.1379 11.894 41.7276 14.7789 38.7539 14.7789C35.7802 14.7789 33.3699 11.894 33.3699 8.33615C33.3699 4.77835 35.7802 1.89343 38.7539 1.89343Z" fill="#FFB20C" style="fill:#FFB20C;fill:color(display-p3 1.0000 0.6980 0.0471);fill-opacity:1;"/>
</g>
<defs>
<clipPath id="clip0_9_1523">
<rect width="48.0368" height="16.7843" fill="white" style="fill:white;fill-opacity:1;"/>
</clipPath>
</defs>
</svg>
