<svg width="48" height="26" viewBox="0 0 48 26" fill="none" xmlns="http://www.w3.org/2000/svg">
<g clip-path="url(#clip0_9_1528)">
<path d="M9.16304 8.11722C9.19412 8.11764 9.22521 8.11806 9.25723 8.11849C9.30748 8.11954 9.30748 8.11954 9.35874 8.12061C9.39439 8.12122 9.43004 8.12184 9.46677 8.12247C9.58452 8.12465 9.70225 8.12726 9.81999 8.12999C9.86066 8.1309 9.90133 8.1318 9.94323 8.13274C11.1078 8.15977 12.2688 8.23612 13.4275 8.35499C13.455 8.35775 13.4825 8.36052 13.5109 8.36336C14.1835 8.43198 14.8516 8.53957 15.52 8.63999C15.603 9.09656 15.6854 9.55324 15.7675 10.01C15.7739 10.0458 15.7803 10.0815 15.787 10.1184C16.0971 11.8457 16.3894 13.576 16.6811 15.3065C16.6878 15.3462 16.6878 15.3462 16.6946 15.3867C16.741 15.662 16.7874 15.9373 16.8337 16.2126C16.8487 16.302 16.8637 16.3914 16.8788 16.4808C16.8858 16.5228 16.8929 16.5649 16.9002 16.6082C16.9316 16.7944 16.9634 16.9806 16.9968 17.1665C17.0053 17.2134 17.0053 17.2134 17.0138 17.2612C17.0285 17.3422 17.0433 17.423 17.0582 17.5039C17.0897 17.7007 17.0998 17.8935 17.0975 18.0925C17.097 18.1485 17.097 18.1485 17.0966 18.2056C17.0897 18.4932 17.0483 18.7397 16.92 19C16.8973 19.0491 16.8973 19.0491 16.8742 19.0992C16.5839 19.6508 16.0435 20.0241 15.543 20.369C15.4323 20.4453 15.3221 20.5224 15.2119 20.5995C14.7946 20.8913 14.3754 21.1803 13.9555 21.4682C13.8236 21.5587 13.6918 21.6494 13.56 21.74C13.5065 21.7768 13.453 21.8135 13.3995 21.8503C13.2944 21.9226 13.1893 21.9949 13.0842 22.0672C12.4143 22.5281 11.7428 22.9865 11.0709 23.4444C10.9278 23.5419 10.7848 23.6395 10.6418 23.7372C10.5707 23.7857 10.4995 23.834 10.4283 23.8823C10.238 24.0114 10.0486 24.1417 9.86065 24.2742C9.75907 24.3457 9.65712 24.4166 9.55512 24.4875C9.50537 24.5223 9.4558 24.5573 9.4064 24.5925C9.33719 24.6419 9.26743 24.6904 9.19749 24.7387C9.13739 24.7811 9.13739 24.7811 9.07608 24.8243C8.92837 24.8952 8.87508 24.8917 8.71999 24.84C8.60264 24.7767 8.49372 24.7031 8.3839 24.6276C8.35121 24.6057 8.31853 24.5837 8.28486 24.5611C8.17714 24.4886 8.06982 24.4156 7.96249 24.3425C7.88671 24.2913 7.8109 24.2403 7.73506 24.1892C7.57903 24.0841 7.42314 23.9788 7.26733 23.8734C6.96501 23.6691 6.66104 23.4673 6.3571 23.2654C5.14955 22.4627 3.94825 21.6506 2.7497 20.8346C2.65067 20.7673 2.55152 20.7001 2.45234 20.633C0.751778 19.4788 0.751778 19.4788 0.519992 18.52C0.502012 18.3906 0.498218 18.2641 0.498956 18.1335C0.499149 18.0961 0.499341 18.0587 0.499539 18.0202C0.512447 17.4966 0.620659 16.9841 0.719677 16.4714C0.748605 16.3206 0.776592 16.1697 0.804693 16.0188C0.852521 15.7626 0.9009 15.5066 0.9497 15.2506C1.01905 14.8868 1.08758 14.5228 1.15587 14.1588C1.18684 13.9937 1.21784 13.8285 1.24885 13.6634C1.25495 13.631 1.26105 13.5985 1.26734 13.565C1.31016 13.3371 1.35316 13.1092 1.39623 12.8814C1.53099 12.1685 1.66419 11.4554 1.79359 10.7416C1.80709 10.6672 1.8206 10.5928 1.83411 10.5184C1.8817 10.2563 1.92924 9.99409 1.97624 9.73181C1.99706 9.61569 2.01803 9.49959 2.0392 9.38353C2.05743 9.28354 2.07543 9.18351 2.09313 9.08343C2.10089 9.0412 2.10865 8.99897 2.11664 8.95546C2.12315 8.91924 2.12967 8.88303 2.13638 8.84572C2.15999 8.75999 2.15999 8.75999 2.23999 8.67999C2.33706 8.65622 2.33706 8.65622 2.45812 8.63718C2.50189 8.63022 2.54567 8.62325 2.59077 8.61608C2.65969 8.60564 2.65969 8.60564 2.72999 8.59499C2.77531 8.58772 2.82064 8.58045 2.86734 8.57296C3.07417 8.54071 3.27021 8.51597 3.47999 8.51999C3.45815 8.89157 3.39271 9.25398 3.32678 9.61964C3.30601 9.7348 3.28548 9.84999 3.26499 9.96519C3.23504 10.1335 3.20499 10.3017 3.17487 10.47C3.09331 10.9258 3.01257 11.3818 2.93187 11.8378C2.9234 11.8856 2.91493 11.9334 2.90621 11.9827C2.70159 13.139 2.50229 14.2962 2.30427 15.4536C2.27752 15.6098 2.25071 15.766 2.22388 15.9222C2.18151 16.169 2.13929 16.4157 2.09718 16.6625C2.08165 16.7534 2.06608 16.8443 2.05046 16.9352C2.02902 17.06 2.00776 17.1849 1.98654 17.3097C1.98034 17.3456 1.97413 17.3816 1.96773 17.4186C1.85875 18.0243 1.85875 18.0243 2.02499 18.6025C2.25119 18.8823 2.50748 19.1016 2.80421 19.3031C2.83867 19.3269 2.87313 19.3506 2.90864 19.3751C3.31281 19.6524 3.7225 19.9214 4.13249 20.19C4.24613 20.2646 4.35975 20.3392 4.47336 20.4138C4.54695 20.4622 4.62054 20.5105 4.69415 20.5588C4.92642 20.7113 5.15798 20.8649 5.389 21.0193C5.6315 21.1813 5.87526 21.3414 6.11919 21.5012C6.20041 21.5544 6.2816 21.6076 6.36279 21.6609C6.53518 21.774 6.70758 21.887 6.87999 22C7.08029 22.1313 7.28058 22.2626 7.48084 22.3939C7.58156 22.46 7.6823 22.526 7.78306 22.592C8.10978 22.8065 8.43476 23.0232 8.75999 23.24C8.77319 18.2636 8.78639 13.2872 8.79999 8.15999C8.93681 8.13262 9.03002 8.11505 9.16304 8.11722Z" fill="#DAB42D" style="fill:#DAB42D;fill:color(display-p3 0.8549 0.7059 0.1765);fill-opacity:1;"/>
<path d="M20.48 8.16C26.7674 8.16 26.7674 8.16 27.5875 8.31C27.6249 8.31677 27.6624 8.32354 27.701 8.33051C28.6421 8.50917 29.681 8.85229 30.2722 9.65844C30.7598 10.3888 30.87 11.2026 30.7445 12.0665C30.5995 12.75 30.1865 13.2918 29.61 13.67C29.34 13.8403 29.0572 13.9638 28.76 14.08C28.6877 14.1089 28.6154 14.1378 28.5431 14.1667C28.5084 14.1806 28.4737 14.1945 28.438 14.2088C28.4122 14.2191 28.3865 14.2294 28.36 14.24C28.3931 14.2484 28.3931 14.2484 28.4269 14.257C29.3721 14.5005 30.2916 14.8813 30.8173 15.7572C31.2381 16.582 31.2659 17.5966 30.9925 18.4725C30.6847 19.3164 30.1047 19.8647 29.3012 20.2431C28.3892 20.6468 27.3675 20.727 26.3833 20.7245C26.3176 20.7245 26.2518 20.7245 26.1861 20.7246C26.0114 20.7246 25.8367 20.7243 25.6621 20.7241C25.4976 20.7238 25.3332 20.7238 25.1688 20.7238C24.6892 20.7236 24.2096 20.723 23.73 20.7225C22.6575 20.7217 21.585 20.7209 20.48 20.72C20.48 16.5752 20.48 12.4304 20.48 8.16ZM23.88 10.48C23.88 11.3908 23.88 12.3016 23.88 13.24C24.1481 13.2425 24.4162 13.245 24.6925 13.2475C24.7754 13.2486 24.8582 13.2497 24.9436 13.2508C25.6707 13.2563 26.4897 13.2539 27.0436 12.7225C27.2876 12.459 27.3539 12.1638 27.3628 11.808C27.3454 11.4458 27.2191 11.1619 26.96 10.9075C26.5063 10.5345 25.904 10.4663 25.337 10.4722C25.2997 10.4723 25.2624 10.4724 25.224 10.4724C25.0868 10.4728 24.9496 10.474 24.8125 10.475C24.5048 10.4767 24.197 10.4783 23.88 10.48ZM23.88 15.44C23.88 16.4168 23.88 17.3936 23.88 18.4C24.1852 18.4017 24.4905 18.4033 24.805 18.405C24.9001 18.4057 24.9953 18.4065 25.0933 18.4072C26.2177 18.4147 26.2177 18.4147 27.2 17.92C27.5127 17.5957 27.5799 17.249 27.5769 16.8125C27.5687 16.57 27.5258 16.3706 27.4 16.16C27.3853 16.1348 27.3707 16.1096 27.3556 16.0836C27.0932 15.715 26.5429 15.5537 26.12 15.48C25.8614 15.4409 25.61 15.4348 25.3487 15.4361C25.2926 15.4362 25.2926 15.4362 25.2353 15.4362C25.0969 15.4364 24.9584 15.437 24.82 15.4375C24.5098 15.4383 24.1996 15.4392 23.88 15.44Z" fill="#A42924" style="fill:#A42924;fill:color(display-p3 0.6431 0.1608 0.1412);fill-opacity:1;"/>
<path d="M32.28 8.16001C33.336 8.15753 34.392 8.15506 35.48 8.15251C35.8116 8.15141 36.1433 8.15032 36.485 8.14919C36.8945 8.14865 36.8945 8.14865 37.0871 8.14855C37.2197 8.14844 37.3523 8.148 37.4849 8.14734C39.0635 8.13982 40.8119 8.19948 42.034 9.34536C42.7435 10.0482 43.04 11.0149 43.0497 11.993C43.0536 13.1703 42.8261 14.1944 41.9787 15.0639C40.9248 16.0667 39.5161 16.2974 38.1134 16.2878C38.0472 16.2877 37.981 16.2876 37.9147 16.2875C37.7431 16.2872 37.5715 16.2864 37.3999 16.2855C37.2237 16.2847 37.0475 16.2843 36.8712 16.2839C36.5275 16.2831 36.1837 16.2817 35.84 16.28C35.84 16.3022 35.8401 16.3243 35.8401 16.3471C35.841 16.8859 35.8417 17.4248 35.8421 17.9636C35.8423 18.2241 35.8426 18.4847 35.843 18.7452C35.8434 18.9966 35.8437 19.2479 35.8438 19.4992C35.8439 19.5952 35.844 19.6912 35.8442 19.7873C35.8445 19.9215 35.8446 20.0556 35.8445 20.1898C35.8447 20.2298 35.8448 20.2697 35.845 20.3109C35.8449 20.3474 35.8449 20.3839 35.8448 20.4216C35.8448 20.4533 35.8449 20.4851 35.8449 20.5178C35.84 20.6 35.84 20.6 35.8 20.72C34.6384 20.72 33.4768 20.72 32.28 20.72C32.28 16.5752 32.28 12.4304 32.28 8.16001ZM35.84 10.52C35.84 11.5892 35.84 12.6584 35.84 13.76C36.1716 13.7625 36.5033 13.765 36.845 13.7675C36.9485 13.7686 37.052 13.7697 37.1586 13.7708C38.1731 13.7775 38.1731 13.7775 39.0553 13.317C39.4389 12.9115 39.5005 12.4798 39.4906 11.9436C39.4739 11.5447 39.3417 11.25 39.0617 10.965C38.5469 10.5348 37.7815 10.5123 37.1408 10.5161C37.1074 10.5161 37.074 10.5162 37.0397 10.5162C36.9173 10.5164 36.7949 10.517 36.6725 10.5175C36.2604 10.5187 36.2604 10.5187 35.84 10.52Z" fill="#A32925" style="fill:#A32925;fill:color(display-p3 0.6392 0.1608 0.1451);fill-opacity:1;"/>
<path d="M44.16 8.16C45.3216 8.16 46.4832 8.16 47.68 8.16C47.68 12.3048 47.68 16.4496 47.68 20.72C46.5184 20.72 45.3568 20.72 44.16 20.72C44.16 16.5752 44.16 12.4304 44.16 8.16Z" fill="#A42A24" style="fill:#A42A24;fill:color(display-p3 0.6431 0.1647 0.1412);fill-opacity:1;"/>
<path d="M9.24002 0.399993C9.44751 0.557171 9.5947 0.739657 9.64002 0.999993C9.64676 1.2831 9.55585 1.48625 9.40002 1.71999C9.47118 1.72951 9.47118 1.72951 9.54377 1.73921C10.2058 1.83264 10.9288 1.97647 11.475 2.38249C11.7214 2.54785 11.9791 2.57785 12.2663 2.62346C13.0005 2.74085 13.6918 3.01363 14.1575 3.62249C14.4007 4.00063 14.4522 4.45008 14.36 4.88749C14.188 5.46945 13.7821 5.81201 13.2719 6.10218C13.0052 6.23999 13.0052 6.23999 12.84 6.23999C12.84 6.26639 12.84 6.29279 12.84 6.31999C12.8849 6.32293 12.8849 6.32293 12.9306 6.32593C12.97 6.32892 13.0094 6.33191 13.05 6.33499C13.089 6.33778 13.128 6.34056 13.1681 6.34343C13.28 6.35999 13.3489 6.37325 13.44 6.43999C13.5534 6.70354 13.5773 7.01506 13.6236 7.29749C13.6291 7.33057 13.6345 7.36365 13.6402 7.39773C13.6535 7.47847 13.6668 7.55923 13.68 7.63999C13.6582 7.63767 13.6364 7.63534 13.614 7.63294C11.5881 7.41707 9.57361 7.26517 7.53502 7.34999C7.49422 7.35166 7.45342 7.35332 7.41138 7.35503C6.36874 7.39863 5.32856 7.48681 4.29408 7.62482C4.1275 7.64367 3.9674 7.64597 3.80002 7.63999C3.82644 7.36885 3.8699 7.1047 3.92252 6.83749C3.92997 6.79905 3.93742 6.76061 3.9451 6.72101C3.96328 6.62731 3.98159 6.53364 4.00002 6.43999C4.06317 6.41991 4.12642 6.40012 4.18971 6.38046C4.22492 6.36941 4.26013 6.35836 4.29641 6.34698C4.43049 6.31206 4.54237 6.31102 4.68002 6.31999C4.68002 6.29359 4.68002 6.26719 4.68002 6.23999C4.62766 6.23319 4.62766 6.23319 4.57424 6.22624C4.04851 6.12342 3.5929 5.73809 3.29752 5.30609C3.14818 5.03054 3.0999 4.79546 3.10252 4.48249C3.10172 4.4488 3.10092 4.4151 3.1001 4.38038C3.10043 3.95181 3.3045 3.63864 3.58408 3.32906C4.01647 2.90809 4.66316 2.6942 5.24768 2.61656C5.59471 2.56919 5.8398 2.4917 6.13372 2.29923C6.69932 1.93377 7.41906 1.79509 8.08002 1.71999C8.05527 1.68617 8.03052 1.65234 8.00502 1.61749C7.85969 1.39613 7.82005 1.18488 7.85877 0.925305C7.92101 0.67544 8.11663 0.503611 8.32002 0.359993C8.61273 0.220002 8.95945 0.238849 9.24002 0.399993ZM6.60205 3.18609C6.33468 3.49216 6.12668 3.89478 6.14611 4.31218C6.20063 4.65641 6.3286 4.94154 6.56002 5.19999C6.57915 5.22325 6.59828 5.2465 6.61799 5.27046C7.02802 5.73007 7.68076 5.95937 8.28002 5.99999C8.24116 5.88236 8.20183 5.76505 8.16002 5.64843C8.14682 5.611 8.13362 5.57356 8.12002 5.53499C8.10682 5.49818 8.09362 5.46136 8.08002 5.42343C7.97 5.02892 7.94568 4.64055 7.94752 4.23249C7.94777 4.15612 7.94777 4.15612 7.94803 4.07821C7.95476 3.51524 8.03922 3.009 8.24002 2.47999C7.65194 2.46304 7.01614 2.78035 6.60205 3.18609ZM9.24002 2.47999C9.25353 2.52062 9.26704 2.56126 9.28096 2.60312C9.299 2.65874 9.31702 2.71436 9.33502 2.76999C9.34389 2.7965 9.35276 2.823 9.36189 2.85031C9.50351 3.29182 9.53454 3.72836 9.53252 4.18999C9.53245 4.21633 9.53237 4.24268 9.5323 4.26981C9.52968 4.83244 9.47813 5.31311 9.23955 5.82968C9.19467 5.91578 9.19467 5.91578 9.20002 5.99999C9.88078 5.92534 10.4806 5.68266 10.9596 5.1814C11.2148 4.85969 11.359 4.49232 11.32 4.07999C11.2256 3.591 10.9628 3.20855 10.56 2.91999C10.1626 2.67621 9.71485 2.4663 9.24002 2.47999ZM4.32002 3.67999C4.04265 3.98894 3.97602 4.27048 3.98252 4.68406C4.01806 5.00075 4.15917 5.25931 4.39002 5.47749C4.88828 5.86608 5.46516 5.95748 6.08002 5.95999C6.19421 5.94353 6.19421 5.94353 6.28002 5.91999C6.16875 5.83316 6.05546 5.76159 5.93252 5.69249C5.6052 5.49697 5.32958 5.26643 5.16002 4.91999C5.14728 4.89437 5.13455 4.86874 5.12143 4.84234C4.95208 4.43107 5.00239 3.94742 5.15721 3.54202C5.17134 3.50835 5.18546 3.47468 5.20002 3.43999C5.21497 3.40261 5.22993 3.36523 5.24533 3.32671C5.2625 3.28379 5.2625 3.28379 5.28002 3.23999C4.9292 3.23999 4.57136 3.44043 4.32002 3.67999ZM12.2 3.23999C12.2115 3.26861 12.2229 3.29723 12.2347 3.32671C12.2571 3.38279 12.2571 3.38279 12.28 3.43999C12.2941 3.47366 12.3083 3.50733 12.3228 3.54202C12.4904 3.9807 12.5209 4.4637 12.3327 4.90187C12.0815 5.36998 11.6789 5.66806 11.2 5.87999C11.2 5.89319 11.2 5.90639 11.2 5.91999C11.6877 6.04239 12.3247 5.9165 12.7669 5.69702C13.1051 5.49366 13.3796 5.23247 13.48 4.83999C13.5282 4.38806 13.4751 4.06417 13.1925 3.70999C12.9662 3.4668 12.6717 3.34038 12.36 3.23999C12.3072 3.23999 12.2544 3.23999 12.2 3.23999Z" fill="#DAB42C" style="fill:#DAB42C;fill:color(display-p3 0.8549 0.7059 0.1725);fill-opacity:1;"/>
<path d="M13.6 11.4C13.8193 11.4534 13.9711 11.5534 14.12 11.72C14.1728 11.8127 14.2054 11.8982 14.24 12C14.2545 11.9802 14.2691 11.9605 14.2841 11.9401C14.4504 11.7282 14.4504 11.7282 14.615 11.6825C14.6496 11.6816 14.6843 11.6808 14.72 11.68C14.705 11.6991 14.69 11.7182 14.6745 11.7379C14.2265 12.3845 14.0813 13.5431 14.16 14.32C14.1965 14.4129 14.1965 14.4129 14.24 14.48C14.2632 14.4503 14.2632 14.4503 14.2869 14.4201C14.3077 14.3945 14.3285 14.3689 14.35 14.3425C14.3704 14.3169 14.3908 14.2914 14.4119 14.2651C14.48 14.2 14.48 14.2 14.64 14.16C14.574 14.3052 14.508 14.4504 14.44 14.6C14.4532 14.6132 14.4664 14.6264 14.48 14.64C14.546 14.5872 14.612 14.5344 14.68 14.48C14.6932 14.5064 14.7064 14.5328 14.72 14.56C14.6802 14.664 14.6802 14.664 14.6225 14.785C14.6036 14.8251 14.5846 14.8652 14.5652 14.9065C14.5503 14.9374 14.5353 14.9682 14.52 15C14.5497 14.9752 14.5794 14.9505 14.61 14.925C14.7002 14.8553 14.7783 14.8082 14.88 14.76C14.8656 14.7889 14.8511 14.8179 14.8362 14.8478C14.8177 14.8864 14.7991 14.9251 14.78 14.965C14.7614 15.003 14.7429 15.0411 14.7237 15.0803C14.6756 15.2119 14.665 15.3009 14.68 15.44C14.7219 15.528 14.7219 15.528 14.78 15.6075C14.9024 15.8145 14.9267 16.0038 14.88 16.24C14.8126 16.3665 14.7302 16.4549 14.6 16.52C14.334 16.5513 14.1272 16.5387 13.9064 16.3804C13.8072 16.2901 13.7453 16.197 13.68 16.08C13.5553 16.1187 13.5198 16.1603 13.45 16.2725C13.3673 16.4879 13.3698 16.7338 13.4 16.96C13.4451 17.0573 13.4451 17.0573 13.52 17.12C13.6751 17.1373 13.6751 17.1373 13.75 17.06C13.7665 17.0402 13.783 17.0204 13.8 17C13.8773 17.1545 13.8554 17.3036 13.8112 17.465C13.7498 17.6432 13.6834 17.8036 13.5775 17.96C13.4533 18.1439 13.4084 18.3457 13.36 18.56C13.2808 18.56 13.2016 18.56 13.12 18.56C13.1127 18.587 13.1055 18.614 13.098 18.6418C13.0879 18.6775 13.0779 18.7132 13.0675 18.75C13.0578 18.7852 13.048 18.8205 13.038 18.8568C12.998 18.9654 12.9603 19.0366 12.88 19.12C12.7722 19.1521 12.6733 19.1525 12.56 19.16C12.56 19.1996 12.56 19.2392 12.56 19.28C12.5336 19.28 12.5072 19.28 12.48 19.28C12.4404 19.181 12.4404 19.181 12.4 19.08C12.2753 19.1058 12.2753 19.1058 12.24 19.2C12.2136 19.2 12.1872 19.2 12.16 19.2C12.16 19.0284 12.16 18.8568 12.16 18.68C12.1336 18.7724 12.1072 18.8648 12.08 18.96C12.0404 18.9468 12.0008 18.9336 11.96 18.92C11.9336 18.9332 11.9072 18.9464 11.88 18.96C11.858 18.7346 11.922 18.6244 12.04 18.44C11.9872 18.4796 11.9344 18.5192 11.88 18.56C11.88 18.5204 11.88 18.4808 11.88 18.44C11.8404 18.44 11.8008 18.44 11.76 18.44C11.8 18.32 11.8 18.32 11.8875 18.2525C12.0194 18.1909 12.096 18.182 12.24 18.2C12.273 18.2206 12.306 18.2412 12.34 18.2625C12.4372 18.3276 12.4372 18.3276 12.5525 18.33C12.8653 18.2073 13.0326 17.8864 13.1675 17.5948C13.1782 17.5701 13.1889 17.5454 13.2 17.52C13.1472 17.52 13.0944 17.52 13.04 17.52C13.0293 17.5455 13.0185 17.5711 13.0075 17.5975C12.96 17.68 12.96 17.68 12.84 17.72C12.8361 17.6957 12.8322 17.6715 12.8281 17.6465C12.7882 17.4227 12.7285 17.2246 12.6361 17.0168C12.5703 16.8402 12.5575 16.6794 12.5673 16.4928C12.601 16.1118 12.601 16.1118 12.4889 15.7593C12.4096 15.6841 12.3288 15.623 12.24 15.56C12.24 15.5336 12.24 15.5072 12.24 15.48C12.2078 15.4651 12.2078 15.4651 12.175 15.45C12.08 15.4 12.08 15.4 11.9575 15.3175C11.7799 15.2003 11.6503 15.1885 11.44 15.2C11.4136 15.2264 11.3872 15.2528 11.36 15.28C11.3758 15.3985 11.4239 15.4953 11.48 15.6C11.3311 15.6992 11.2545 15.6826 11.0823 15.6711C11.0552 15.674 11.028 15.6769 11 15.68C10.8922 15.8417 10.9049 15.9768 10.8977 16.1675C10.8785 16.2896 10.8562 16.326 10.76 16.4C10.76 16.3736 10.76 16.3472 10.76 16.32C10.6467 16.3032 10.6467 16.3032 10.52 16.32C10.4816 16.3695 10.4816 16.3695 10.4425 16.42C10.4153 16.453 10.388 16.486 10.36 16.52C10.21 16.5325 10.21 16.5325 10.08 16.52C10.0778 16.4625 10.0763 16.405 10.075 16.3475C10.0741 16.3154 10.0731 16.2834 10.0722 16.2504C10.08 16.16 10.08 16.16 10.16 16.04C10.1072 16.0796 10.0544 16.1192 10 16.16C9.9868 16.1204 9.9736 16.0808 9.96 16.04C9.9204 16.04 9.8808 16.04 9.84 16.04C9.86189 15.905 9.88219 15.8367 9.96 15.72C10.0194 15.7002 10.0194 15.7002 10.08 15.68C10.0536 15.6668 10.0272 15.6536 10 15.64C10 15.5872 10 15.5344 10 15.48C9.9604 15.4668 9.9208 15.4536 9.88 15.44C9.9225 15.38 9.9225 15.38 10 15.32C10.1475 15.3125 10.1475 15.3125 10.28 15.32C10.2932 15.3596 10.3064 15.3992 10.32 15.44C10.5724 15.3731 10.7017 15.1674 10.84 14.96C10.8285 14.8141 10.7552 14.7388 10.6575 14.635C10.52 14.4883 10.52 14.4883 10.52 14.4C10.5816 14.3601 10.5816 14.3601 10.6652 14.3157C10.8587 14.1994 10.9577 14.0551 11.0775 13.8675C11.37 13.4364 11.5856 13.1921 12.1145 13.0832C12.2652 13.0313 12.3148 12.9724 12.4 12.84C12.4311 12.7527 12.4311 12.7527 12.44 12.68C12.3094 12.7521 12.2444 12.7933 12.16 12.92C12.0256 12.7407 12.029 12.6157 12.04 12.4C12.1192 12.4132 12.1984 12.4264 12.28 12.44C12.28 12.3212 12.28 12.2024 12.28 12.08C12.2272 12.0536 12.1744 12.0272 12.12 12C12.0936 12.0396 12.0672 12.0792 12.04 12.12C12.0136 12.12 11.9872 12.12 11.96 12.12C11.8959 11.9797 11.8712 11.8742 11.88 11.72C11.9328 11.7068 11.9856 11.6936 12.04 11.68C12.04 11.6536 12.04 11.6272 12.04 11.6C11.9872 11.6 11.9344 11.6 11.88 11.6C11.88 11.5736 11.88 11.5472 11.88 11.52C12.2417 11.4181 12.7149 11.3423 13.07 11.505C13.3334 11.6729 13.4664 11.9249 13.5475 12.22C13.5634 12.3472 13.5625 12.4719 13.56 12.6C13.5072 12.6 13.4544 12.6 13.4 12.6C13.4198 12.6594 13.4198 12.6594 13.44 12.72C13.4528 13.0156 13.4468 13.3077 13.4 13.6C13.3736 13.6 13.3472 13.6 13.32 13.6C13.3079 13.6347 13.2958 13.6695 13.2833 13.7053C13.191 13.9592 13.1123 14.1677 12.92 14.36C12.9741 14.4826 13.0328 14.5597 13.1323 14.6489C13.4969 14.9871 13.7558 15.3162 13.9867 15.7567C14.0672 15.9061 14.1494 16.0113 14.28 16.12C14.3868 16.1401 14.3868 16.1401 14.48 16.12C14.532 16.0765 14.532 16.0765 14.5298 15.9711C14.5186 15.8211 14.4818 15.7492 14.4025 15.6225C14.3771 15.5809 14.3518 15.5393 14.3256 15.4965C14.2971 15.451 14.2686 15.4055 14.24 15.36C13.7298 14.5454 13.6515 13.981 13.8224 13.0359C13.9148 12.5097 13.976 11.9663 13.6725 11.4975C13.6486 11.4653 13.6246 11.4331 13.6 11.4Z" fill="#FEFEFC" style="fill:#FEFEFC;fill:color(display-p3 0.9961 0.9961 0.9882);fill-opacity:1;"/>
<path d="M5.03012 12.2352C5.06059 12.2353 5.09106 12.2354 5.12245 12.2355C5.15688 12.2355 5.19131 12.2355 5.22679 12.2355C5.26421 12.2357 5.30162 12.2359 5.34017 12.2361C5.37829 12.2362 5.41641 12.2362 5.45569 12.2363C5.57797 12.2365 5.70024 12.237 5.82252 12.2375C5.9052 12.2377 5.98788 12.2379 6.07056 12.2381C6.27372 12.2385 6.47687 12.2392 6.68002 12.24C6.75321 12.82 6.82624 13.3999 6.89906 13.9799C6.93288 14.2492 6.96675 14.5186 7.00076 14.7878C7.03357 15.0477 7.06623 15.3076 7.09879 15.5675C7.11125 15.6666 7.12375 15.7658 7.13631 15.865C7.15388 16.0038 7.17127 16.1426 7.18861 16.2815C7.19646 16.3431 7.19646 16.3431 7.20448 16.4058C7.20919 16.4439 7.2139 16.4819 7.21876 16.5211C7.22289 16.5539 7.22702 16.5867 7.23127 16.6205C7.24118 16.7333 7.24002 16.8468 7.24002 16.96C6.28962 16.96 5.33922 16.96 4.36002 16.96C4.3848 16.6378 4.41135 16.3197 4.45166 15.9997C4.45667 15.9591 4.46168 15.9186 4.46685 15.8767C4.4832 15.7447 4.49972 15.6127 4.51627 15.4806C4.52778 15.3882 4.53928 15.2958 4.55078 15.2033C4.57477 15.0108 4.59886 14.8182 4.623 14.6256C4.65401 14.3783 4.68474 14.1309 4.7154 13.8835C4.73903 13.6932 4.76281 13.5029 4.78664 13.3126C4.79805 13.2213 4.80941 13.1301 4.82071 13.0388C4.83643 12.9119 4.85237 12.785 4.86838 12.6582C4.87303 12.6202 4.87769 12.5823 4.88248 12.5432C4.88686 12.5089 4.89123 12.4746 4.89573 12.4392C4.89948 12.4093 4.90323 12.3793 4.90708 12.3484C4.92459 12.2558 4.93531 12.2417 5.03012 12.2352ZM5.44002 13.64C5.38411 13.7899 5.38411 13.7899 5.44002 13.88C5.55919 13.8811 5.67834 13.8819 5.79752 13.8825C5.83152 13.8828 5.86553 13.8832 5.90056 13.8835C5.93292 13.8837 5.96527 13.8838 5.99861 13.8839C6.02856 13.8841 6.05852 13.8843 6.08938 13.8846C6.16108 13.8877 6.16108 13.8877 6.20002 13.84C6.20002 13.774 6.20002 13.708 6.20002 13.64C5.94922 13.64 5.69842 13.64 5.44002 13.64ZM5.44002 14.56C5.44002 14.6392 5.44002 14.7184 5.44002 14.8C5.69082 14.8 5.94162 14.8 6.20002 14.8C6.20002 14.7208 6.20002 14.6416 6.20002 14.56C5.94922 14.56 5.69842 14.56 5.44002 14.56ZM5.40002 15.48C5.41322 15.5592 5.42642 15.6384 5.44002 15.72C5.55919 15.7211 5.67834 15.7219 5.79752 15.7225C5.83152 15.7228 5.86553 15.7232 5.90056 15.7235C5.93292 15.7237 5.96527 15.7238 5.99861 15.7239C6.02856 15.7241 6.05852 15.7243 6.08938 15.7246C6.16108 15.7277 6.16108 15.7277 6.20002 15.68C6.20002 15.614 6.20002 15.548 6.20002 15.48C5.93602 15.48 5.67202 15.48 5.40002 15.48Z" fill="#DAB42C" style="fill:#DAB42C;fill:color(display-p3 0.8549 0.7059 0.1725);fill-opacity:1;"/>
<path d="M4.04001 17.12C5.20161 17.12 6.36321 17.12 7.56001 17.12C7.56001 17.5292 7.56001 17.9384 7.56001 18.36C7.24321 18.36 6.92641 18.36 6.60001 18.36C6.60001 18.2544 6.60001 18.1488 6.60001 18.04C6.08521 18.04 5.57041 18.04 5.04001 18.04C5.04001 18.1456 5.04001 18.2512 5.04001 18.36C4.71001 18.36 4.38001 18.36 4.04001 18.36C4.04001 17.9508 4.04001 17.5416 4.04001 17.12Z" fill="#DAB32D" style="fill:#DAB32D;fill:color(display-p3 0.8549 0.7020 0.1765);fill-opacity:1;"/>
<path d="M5.51999 10.84C5.71799 10.84 5.91599 10.84 6.11999 10.84C6.11999 10.9984 6.11999 11.1568 6.11999 11.32C6.25199 11.32 6.38399 11.32 6.51999 11.32C6.51999 11.1748 6.51999 11.0296 6.51999 10.88C6.70479 10.88 6.88959 10.88 7.07999 10.88C7.07999 11.276 7.07999 11.672 7.07999 12.08C6.23519 12.08 5.39039 12.08 4.51999 12.08C4.51999 11.684 4.51999 11.288 4.51999 10.88C4.70479 10.88 4.88959 10.88 5.07999 10.88C5.07999 11.0252 5.07999 11.1704 5.07999 11.32C5.22519 11.32 5.37039 11.32 5.51999 11.32C5.51999 11.1616 5.51999 11.0032 5.51999 10.84Z" fill="#DAB32C" style="fill:#DAB32C;fill:color(display-p3 0.8549 0.7020 0.1725);fill-opacity:1;"/>
<path d="M12.16 15.56C12.28 15.64 12.28 15.64 12.3175 15.775C12.3471 15.9214 12.3471 15.9214 12.445 16C12.52 16.08 12.52 16.08 12.53 16.23C12.5267 16.2729 12.5234 16.3158 12.52 16.36C12.4746 16.3592 12.4293 16.3583 12.3825 16.3575C12.2474 16.3434 12.2474 16.3434 12.2 16.4C12.1346 16.7545 12.2847 16.9948 12.48 17.28C12.5195 17.3337 12.5593 17.3872 12.6 17.44C12.5093 17.5499 12.4587 17.5958 12.3177 17.6275C12.2508 17.6337 12.2508 17.6337 12.1825 17.64C11.9739 17.6593 11.8774 17.7023 11.72 17.84C11.6936 17.84 11.6672 17.84 11.64 17.84C11.6136 17.8004 11.5872 17.7608 11.56 17.72C11.4487 17.7359 11.4068 17.7525 11.33 17.8375C11.2013 17.9554 11.0909 17.9692 10.92 18C10.9068 17.9868 10.8936 17.9736 10.88 17.96C10.8836 17.8857 10.8898 17.8115 10.8975 17.7375C10.9016 17.697 10.9056 17.6565 10.9098 17.6148C10.9132 17.5835 10.9165 17.5522 10.92 17.52C10.8804 17.619 10.8804 17.619 10.84 17.72C10.7608 17.7068 10.6816 17.6936 10.6 17.68C10.6212 17.5272 10.6599 17.4375 10.76 17.32C10.7468 17.3068 10.7336 17.2936 10.72 17.28C10.6804 17.3064 10.6408 17.3328 10.6 17.36C10.5959 17.3344 10.5918 17.3088 10.5875 17.2825C10.5784 17.2553 10.5694 17.228 10.56 17.2C10.5204 17.1868 10.4808 17.1736 10.44 17.16C10.48 17.1 10.48 17.1 10.56 17.04C10.6687 17.0291 10.7703 17.0346 10.88 17.04C10.88 17.0136 10.88 16.9872 10.88 16.96C10.814 16.9468 10.748 16.9336 10.68 16.92C10.68 16.8408 10.68 16.7616 10.68 16.68C10.8758 16.6968 10.9492 16.7794 11.08 16.92C11.2407 17.075 11.351 17.1017 11.5725 17.11C11.6478 17.1134 11.6478 17.1134 11.7245 17.1169C11.7626 17.1179 11.8007 17.1189 11.84 17.12C11.8236 17.0958 11.8072 17.0715 11.7903 17.0466C11.6518 16.8312 11.5714 16.657 11.5447 16.4012C11.528 16.3122 11.528 16.3122 11.4397 16.2766C11.4002 16.2585 11.4002 16.2585 11.36 16.24C11.33 16.115 11.33 16.115 11.32 16C11.3408 15.9883 11.3616 15.9767 11.383 15.9647C11.5776 15.8503 11.7024 15.7381 11.84 15.56C11.9564 15.5018 12.0353 15.532 12.16 15.56Z" fill="#FEFDFA" style="fill:#FEFDFA;fill:color(display-p3 0.9961 0.9922 0.9804);fill-opacity:1;"/>
<path d="M12.52 10.28C12.6 10.29 12.6 10.29 12.68 10.32C12.6932 10.3596 12.7064 10.3992 12.72 10.44C12.7068 10.4664 12.6936 10.4928 12.68 10.52C12.718 10.5233 12.7559 10.5266 12.795 10.53C13.019 10.5624 13.2765 10.6283 13.4321 10.799C13.48 10.88 13.48 10.88 13.4775 10.9825C13.4322 11.1004 13.3879 11.1365 13.28 11.2C13.2404 11.2132 13.2008 11.2264 13.16 11.24C13.1468 11.2664 13.1336 11.2928 13.12 11.32C12.7636 11.32 12.4072 11.32 12.04 11.32C12.04 11.2804 12.04 11.2408 12.04 11.2C12.0095 11.1958 11.979 11.1917 11.9475 11.1875C11.8288 11.1571 11.7831 11.1452 11.72 11.04C11.7175 10.9 11.7175 10.9 11.76 10.76C11.8625 10.69 11.8625 10.69 12 10.64C12.0269 10.6289 12.0538 10.6178 12.0814 10.6064C12.2281 10.5469 12.3174 10.52 12.48 10.52C12.4792 10.4878 12.4784 10.4556 12.4775 10.4225C12.48 10.32 12.48 10.32 12.52 10.28Z" fill="#FDFBF5" style="fill:#FDFBF5;fill:color(display-p3 0.9922 0.9843 0.9608);fill-opacity:1;"/>
<path d="M10.56 12.4C10.6128 12.4396 10.6656 12.4792 10.72 12.52C10.7295 12.656 10.7237 12.7819 10.7137 12.9173C10.7017 13.1845 10.8031 13.3077 10.9675 13.505C11.0402 13.6003 11.0701 13.6424 11.08 13.76C11.0255 13.8544 11.0255 13.8544 10.9475 13.95C10.9221 13.982 10.8966 14.0139 10.8705 14.0469C10.8472 14.071 10.8239 14.0951 10.8 14.12C10.7736 14.12 10.7472 14.12 10.72 14.12C10.6509 14.0441 10.6509 14.0441 10.575 13.945C10.5497 13.9125 10.5245 13.88 10.4984 13.8466C10.44 13.76 10.44 13.76 10.44 13.68C10.4004 13.68 10.3608 13.68 10.32 13.68C10.2936 13.7328 10.2672 13.7856 10.24 13.84C10.1608 13.84 10.0816 13.84 9.99999 13.84C9.99999 13.72 9.99999 13.72 10.0425 13.6525C10.1008 13.5087 10.0834 13.3847 10.04 13.24C9.9684 13.1008 9.88708 12.97 9.79999 12.84C9.83999 12.8 9.83999 12.8 9.95499 12.79C10.08 12.8 10.08 12.8 10.155 12.855C10.2 12.92 10.2 12.92 10.2 13C10.2264 13 10.2528 13 10.28 13C10.2684 12.9797 10.2569 12.9594 10.245 12.9384C10.1514 12.7649 10.0997 12.6424 10.12 12.44C10.2536 12.487 10.3524 12.5262 10.44 12.64C10.4532 12.6928 10.4664 12.7456 10.48 12.8C10.5064 12.668 10.5328 12.536 10.56 12.4Z" fill="#FEFDFB" style="fill:#FEFDFB;fill:color(display-p3 0.9961 0.9922 0.9843);fill-opacity:1;"/>
<path d="M12.12 11.96C12.275 12.035 12.275 12.035 12.32 12.08C12.3229 12.1408 12.3234 12.2017 12.3225 12.2625C12.3221 12.2955 12.3218 12.3286 12.3214 12.3626C12.3209 12.3882 12.3205 12.4137 12.32 12.44C12.1725 12.4856 12.1725 12.4856 12.06 12.435C12.0105 12.4177 12.0105 12.4177 11.96 12.4C11.9062 12.4394 11.853 12.4795 11.8 12.52C11.6525 12.53 11.6525 12.53 11.52 12.52C11.48 12.48 11.48 12.48 11.4725 12.3425C11.48 12.2 11.48 12.2 11.56 12.12C11.5732 12.186 11.5864 12.252 11.6 12.32C11.7188 12.2936 11.8376 12.2672 11.96 12.24C11.96 12.2004 11.96 12.1608 11.96 12.12C11.9864 12.12 12.0128 12.12 12.04 12.12C12.0664 12.0672 12.0928 12.0144 12.12 11.96Z" fill="#DBB633" style="fill:#DBB633;fill:color(display-p3 0.8588 0.7137 0.2000);fill-opacity:1;"/>
<path d="M13.16 10.68C13.2829 10.6897 13.344 10.705 13.435 10.79C13.48 10.88 13.48 10.88 13.4775 10.9825C13.4318 11.1013 13.3897 11.1373 13.28 11.2C13.19 11.2275 13.19 11.2275 13.12 11.24C13.12 11.2136 13.12 11.1872 13.12 11.16C13.0804 11.16 13.0408 11.16 13 11.16C13 11.1336 13 11.1072 13 11.08C13.0396 11.0536 13.0792 11.0272 13.12 11C13.1267 10.8583 13.1267 10.8583 13.12 10.72C13.1332 10.7068 13.1464 10.6936 13.16 10.68Z" fill="#F9F4E1" style="fill:#F9F4E1;fill:color(display-p3 0.9765 0.9569 0.8824);fill-opacity:1;"/>
<path d="M12.68 10.64C12.88 10.68 12.88 10.68 12.955 10.7275C13 10.8 13 10.8 12.995 10.9225C12.96 11.04 12.96 11.04 12.84 11.12C12.7872 11.12 12.7344 11.12 12.68 11.12C12.68 10.9616 12.68 10.8032 12.68 10.64Z" fill="#DBB635" style="fill:#DBB635;fill:color(display-p3 0.8588 0.7137 0.2078);fill-opacity:1;"/>
<path d="M11.52 12.12C11.5332 12.12 11.5464 12.12 11.56 12.12C11.5732 12.186 11.5864 12.252 11.6 12.32C11.6232 12.3147 11.6464 12.3093 11.6703 12.3039C11.8463 12.2641 12.0216 12.2274 12.2 12.2C12.1 12.28 12.1 12.28 12 12.36C11.9687 12.3897 11.9373 12.4194 11.905 12.45C11.7694 12.5403 11.6797 12.5353 11.52 12.52C11.48 12.48 11.48 12.48 11.475 12.3425C11.48 12.2 11.48 12.2 11.52 12.12Z" fill="#FCFAF2" style="fill:#FCFAF2;fill:color(display-p3 0.9882 0.9804 0.9490);fill-opacity:1;"/>
<path d="M12.52 10.64C12.5068 10.7984 12.4936 10.9568 12.48 11.12C12.28 11.08 12.28 11.08 12.2 11C12.1825 10.8825 12.1825 10.8825 12.2 10.76C12.314 10.6675 12.3725 10.64 12.52 10.64Z" fill="#DBB634" style="fill:#DBB634;fill:color(display-p3 0.8588 0.7137 0.2039);fill-opacity:1;"/>
<path d="M11.92 10.76C11.9596 10.76 11.9992 10.76 12.04 10.76C12.0458 10.8046 12.0515 10.8491 12.0575 10.895C12.0713 11.0329 12.0713 11.0329 12.12 11.12C12.025 11.125 12.025 11.125 11.92 11.12C11.84 11.04 11.84 11.04 11.83 10.94C11.84 10.84 11.84 10.84 11.92 10.76Z" fill="#DCB93B" style="fill:#DCB93B;fill:color(display-p3 0.8627 0.7255 0.2314);fill-opacity:1;"/>
<path d="M13.16 10.76C13.2128 10.7864 13.2656 10.8128 13.32 10.84C13.325 10.935 13.325 10.935 13.32 11.04C13.24 11.12 13.24 11.12 13.135 11.125C13.1037 11.1234 13.0723 11.1217 13.04 11.12C13.0664 11.0804 13.0928 11.0408 13.12 11C13.1356 10.9204 13.1493 10.8404 13.16 10.76Z" fill="#DBB635" style="fill:#DBB635;fill:color(display-p3 0.8588 0.7137 0.2078);fill-opacity:1;"/>
<path d="M12.36 11.56C12.495 11.555 12.495 11.555 12.64 11.56C12.6664 11.5864 12.6928 11.6128 12.72 11.64C12.495 11.76 12.495 11.76 12.36 11.76C12.36 11.694 12.36 11.628 12.36 11.56Z" fill="#DEBD47" style="fill:#DEBD47;fill:color(display-p3 0.8706 0.7412 0.2784);fill-opacity:1;"/>
<path d="M11.04 13.76C11.0796 13.7732 11.1192 13.7864 11.16 13.8C11.0808 13.9188 11.0808 13.9188 11 14.04C10.9736 14.0268 10.9472 14.0136 10.92 14C10.995 13.805 10.995 13.805 11.04 13.76Z" fill="#DCBA3E" style="fill:#DCBA3E;fill:color(display-p3 0.8627 0.7294 0.2431);fill-opacity:1;"/>
</g>
<defs>
<clipPath id="clip0_9_1528">
<rect width="48" height="25.36" fill="white" style="fill:white;fill-opacity:1;"/>
</clipPath>
</defs>
</svg>
