<svg width="48" height="16" viewBox="0 0 48 16" fill="none" xmlns="http://www.w3.org/2000/svg">
<g clip-path="url(#clip0_9_1680)">
<path d="M16.3535 0.0561793C16.3272 0.352479 16.3008 0.648771 16.2742 0.945052C16.2619 1.08261 16.2496 1.22017 16.2374 1.35774C16.2268 1.47761 16.2161 1.59746 16.2053 1.71732C16.1996 1.78082 16.1939 1.84432 16.1883 1.90782C16.1821 1.97861 16.1757 2.04938 16.1693 2.12015C16.1675 2.14136 16.1656 2.16256 16.1637 2.18441C16.1611 2.21316 16.1611 2.21316 16.1584 2.24249C16.1569 2.25925 16.1554 2.27601 16.1539 2.29328C16.1484 2.3311 16.1484 2.3311 16.1297 2.34975C16.1011 2.35093 16.0724 2.35085 16.0438 2.35026C16.0257 2.35 16.0076 2.34974 15.9889 2.34947C15.9692 2.34918 15.9496 2.34888 15.9293 2.34858C14.9057 2.34289 13.9978 2.71244 13.2616 3.42311C12.6193 4.0911 12.3132 4.97207 12.3218 5.8885C12.3401 6.74913 12.7219 7.54129 13.2954 8.16758C13.3084 8.18188 13.3213 8.19618 13.3347 8.21092C13.4462 8.32819 13.5767 8.42474 13.7056 8.52187C13.7212 8.5336 13.7367 8.54533 13.7528 8.55741C14.4885 9.09067 15.4468 9.32503 16.3459 9.18216C16.7573 9.11004 17.142 8.98094 17.5096 8.78292C17.5209 8.77694 17.5322 8.77096 17.5439 8.7648C17.7138 8.67453 17.8648 8.56897 18.0131 8.44728C18.0236 8.43872 18.0342 8.43017 18.0451 8.42135C18.4112 8.12389 18.6773 7.7749 18.9081 7.36576C18.9718 7.37651 19.024 7.39227 19.0816 7.42122C19.0969 7.42883 19.1122 7.43644 19.1279 7.44428C19.1443 7.45258 19.1606 7.46087 19.1775 7.46941C19.1947 7.47805 19.212 7.48668 19.2297 7.49558C19.2663 7.51395 19.3029 7.53237 19.3395 7.55084C19.3941 7.57845 19.4488 7.60591 19.5036 7.63334C19.6694 7.7166 19.8346 7.80088 19.9986 7.8878C20.2002 7.99464 20.4043 8.09622 20.6085 8.19788C20.6464 8.21679 20.6843 8.2357 20.7222 8.25462C20.8137 8.30023 20.9051 8.34581 20.9966 8.39134C20.9862 8.45267 20.9724 8.50211 20.9425 8.55661C20.9352 8.56992 20.9279 8.58324 20.9204 8.59695C20.9085 8.61805 20.9085 8.61805 20.8963 8.63958C20.8881 8.65433 20.8798 8.66908 20.8713 8.68428C20.525 9.29092 20.0342 9.84451 19.4862 10.2747C19.4755 10.2831 19.4649 10.2914 19.4539 10.3001C18.2267 11.2591 16.6488 11.6852 15.1042 11.5054C14.4768 11.4241 13.8668 11.2563 13.2954 10.9833C13.2764 10.9742 13.2764 10.9742 13.2569 10.9649C12.7311 10.7123 12.2454 10.3905 11.8206 9.98973C11.7762 9.94821 11.7312 9.90834 11.6848 9.86911C11.6253 9.81752 11.5742 9.76193 11.5234 9.70187C11.4879 9.66073 11.4511 9.62103 11.4139 9.58143C11.2749 9.43274 11.1513 9.27425 11.035 9.10735C11.0197 9.08551 11.0197 9.08551 11.0042 9.06322C10.9842 9.03443 10.9644 9.00554 10.9447 8.97655C10.9356 8.9635 10.9266 8.95044 10.9173 8.93698C10.9094 8.92524 10.9014 8.9135 10.8931 8.90141C10.8859 8.89308 10.8787 8.88474 10.8713 8.87616C10.859 8.87616 10.8467 8.87616 10.834 8.87616C10.8243 8.89423 10.8145 8.91231 10.8045 8.93093C10.6583 9.19875 10.4917 9.44584 10.2933 9.67798C10.2756 9.69909 10.2579 9.72021 10.2403 9.74135C10.0632 9.95237 9.87558 10.1404 9.65926 10.312C9.63835 10.3294 9.61747 10.3468 9.59662 10.3643C8.4304 11.3336 6.79665 11.6544 5.31506 11.5237C3.80839 11.3743 2.31014 10.7238 1.32876 9.53812C1.30223 9.50403 1.27583 9.46983 1.24952 9.43557C1.22974 9.41111 1.20993 9.38668 1.19008 9.36229C0.45715 8.45332 0.00471477 7.24493 -0.00426975 6.07424C-0.00445238 6.05455 -0.00463472 6.03485 -0.00482288 6.01455C-0.00800038 5.58276 -0.00636996 5.16189 0.074761 4.73655C0.080904 4.70392 0.080904 4.70392 0.087171 4.67063C0.2593 3.78282 0.626487 2.94395 1.19357 2.23787C1.20853 2.21895 1.22348 2.20003 1.23888 2.18054C1.47343 1.88798 1.73677 1.61077 2.03268 1.38011C2.05235 1.36417 2.072 1.34819 2.09161 1.33218C3.19259 0.440096 4.6174 0.0282078 6.02312 0.0561793C6.03818 0.0564137 6.05324 0.056648 6.06875 0.0568895C7.26181 0.0791175 8.52187 0.396328 9.49049 1.11432C9.5254 1.14011 9.56072 1.16535 9.59669 1.18963C9.61042 1.19903 9.62414 1.20843 9.63828 1.21811C9.64977 1.22573 9.66126 1.23335 9.6731 1.2412C9.69656 1.26823 9.69656 1.26823 9.70098 1.31214C9.69593 1.36846 9.68429 1.38815 9.64928 1.43168C9.63378 1.45159 9.63378 1.45159 9.61795 1.47191C9.60659 1.48623 9.59522 1.50055 9.58351 1.5153C9.26601 1.93082 9.02031 2.40505 8.79173 2.87413C8.78375 2.8904 8.77578 2.90667 8.76756 2.92343C8.76059 2.93781 8.75362 2.95219 8.74643 2.96701C8.72692 3.00239 8.72692 3.00239 8.68962 3.03968C8.57179 3.06199 8.4823 2.99372 8.38428 2.93712C8.3472 2.91638 8.3101 2.89567 8.27298 2.87499C8.25488 2.86483 8.23678 2.85467 8.21813 2.84421C7.22551 2.28952 6.01087 2.12506 4.9113 2.422C4.29703 2.59632 3.76112 2.89587 3.30067 3.33803C3.28514 3.35287 3.28514 3.35287 3.26929 3.36801C2.72249 3.90063 2.36604 4.74566 2.34668 5.50597C2.34631 5.53435 2.34606 5.56272 2.34589 5.5911C2.34576 5.60644 2.34563 5.62178 2.3455 5.63759C2.34517 5.68687 2.34505 5.73615 2.34502 5.78544C2.34501 5.80225 2.34499 5.81906 2.34498 5.83638C2.34527 6.0772 2.35173 6.30966 2.40562 6.5453C2.40872 6.55994 2.41182 6.57459 2.41502 6.58967C2.516 7.06297 2.69729 7.51435 2.98368 7.90652C2.99069 7.91627 2.99771 7.92603 3.00494 7.93608C3.56888 8.71286 4.41999 9.13522 5.35183 9.28639C6.05124 9.3856 6.81075 9.3124 7.45893 9.02533C7.47168 9.01969 7.48444 9.01404 7.49758 9.00823C7.80126 8.87095 8.0634 8.68319 8.29804 8.44728C8.31451 8.43081 8.33097 8.41435 8.34793 8.39739C8.69608 8.03191 8.89774 7.56719 9.01995 7.08402C9.02589 7.06083 9.03182 7.03763 9.03794 7.01374C9.05244 6.95706 9.06686 6.90036 9.08121 6.84365C9.06515 6.84373 9.04909 6.84382 9.03255 6.84391C8.64193 6.84597 8.25131 6.84751 7.86069 6.84848C7.67179 6.84896 7.48289 6.84962 7.29399 6.85068C7.12936 6.85161 6.96473 6.85221 6.8001 6.85242C6.71291 6.85254 6.62573 6.85283 6.53855 6.85351C6.4565 6.85414 6.37445 6.85433 6.2924 6.85419C6.26228 6.85422 6.23216 6.8544 6.20204 6.85476C6.1609 6.85523 6.11981 6.85511 6.07867 6.85486C6.04415 6.85499 6.04415 6.85499 6.00893 6.85512C5.93075 6.84027 5.90322 6.81291 5.8553 6.75041C5.84367 6.70921 5.84367 6.70921 5.84371 6.66691C5.8435 6.65076 5.84329 6.63461 5.84307 6.61796C5.84332 6.60049 5.84357 6.58301 5.84382 6.565C5.84372 6.5464 5.84362 6.52781 5.84351 6.50865C5.84329 6.44724 5.84374 6.38586 5.84423 6.32445C5.84426 6.28174 5.84426 6.23904 5.84422 6.19634C5.84425 6.10686 5.8446 6.01739 5.84519 5.92792C5.84593 5.81323 5.84601 5.69856 5.84587 5.58387C5.84582 5.49569 5.84604 5.40752 5.84636 5.31935C5.84649 5.27706 5.84655 5.23477 5.84653 5.19248C5.84657 5.13338 5.84696 5.0743 5.84747 5.0152C5.84741 4.99772 5.84736 4.98024 5.8473 4.96223C5.84848 4.87219 5.85132 4.80881 5.91124 4.73655C5.98426 4.68787 6.04566 4.69419 6.13035 4.69477C6.14723 4.69474 6.16411 4.69471 6.18149 4.69467C6.23827 4.69461 6.29504 4.69482 6.35182 4.69502C6.39243 4.69503 6.43304 4.69503 6.47365 4.69501C6.5841 4.69499 6.69454 4.69521 6.80499 4.69547C6.92034 4.69571 7.03569 4.69573 7.15104 4.69577C7.36957 4.69589 7.58809 4.6962 7.80661 4.69657C8.05535 4.69699 8.3041 4.69719 8.55284 4.69738C9.06461 4.69777 9.57637 4.69843 10.0881 4.69926C10.0917 4.67693 10.0917 4.67693 10.0954 4.65415C10.1002 4.62448 10.1002 4.62448 10.1051 4.59421C10.1098 4.56496 10.1098 4.56496 10.1146 4.53512C10.2718 3.66655 10.7247 2.82094 11.2815 2.14463C11.295 2.12825 11.295 2.12825 11.3087 2.11153C11.5353 1.83804 11.7834 1.57893 12.0647 1.36146C12.0863 1.34382 12.1079 1.32612 12.1295 1.30836C12.2878 1.17837 12.4509 1.06059 12.6241 0.95123C12.6349 0.944395 12.6456 0.937559 12.6567 0.930516C13.1548 0.615773 13.6955 0.375552 14.265 0.224001C14.2929 0.216547 14.2929 0.216547 14.3214 0.208942C14.9225 0.051878 15.7391 -0.107918 16.3535 0.0561793Z" fill="#363642" style="fill:#363642;fill:color(display-p3 0.2118 0.2118 0.2588);fill-opacity:1;"/>
<path d="M36.6835 4.08283C36.7786 4.17192 36.8492 4.27512 36.9213 4.38286C36.951 4.42724 36.9816 4.47018 37.0141 4.51251C37.0232 4.49939 37.0323 4.48626 37.0417 4.47274C37.2282 4.21299 37.4453 4.00169 37.7227 3.84122C37.7344 3.83445 37.7461 3.82768 37.7581 3.8207C38.3665 3.47584 39.1221 3.45393 39.7883 3.62606C40.0467 3.69882 40.2856 3.81177 40.5011 3.97175C40.5114 3.97941 40.5218 3.98708 40.5324 3.99497C40.9855 4.33869 41.2146 4.85679 41.3029 5.40756C41.318 5.51799 41.3242 5.62647 41.3238 5.73786C41.3238 5.76103 41.3238 5.76103 41.3239 5.78467C41.3239 5.83594 41.3238 5.88722 41.3237 5.93849C41.3237 5.97544 41.3237 6.01239 41.3237 6.04935C41.3237 6.14931 41.3236 6.24927 41.3235 6.34924C41.3233 6.45383 41.3233 6.55843 41.3233 6.66303C41.3233 6.86094 41.3231 7.05886 41.3229 7.25678C41.3227 7.48216 41.3226 7.70755 41.3225 7.93293C41.3223 8.39643 41.322 8.85992 41.3216 9.32341C40.9031 9.32341 40.4847 9.32341 40.0536 9.32341C40.0532 9.16278 40.0532 9.16278 40.0528 8.9989C40.0518 8.64478 40.0506 8.29066 40.0492 7.93653C40.0484 7.72187 40.0476 7.5072 40.0471 7.29253C40.0467 7.10534 40.0461 6.91815 40.0452 6.73096C40.0448 6.63192 40.0444 6.53289 40.0443 6.43385C40.0442 6.34045 40.0438 6.24706 40.0433 6.15367C40.0431 6.11956 40.043 6.08545 40.0431 6.05135C40.0433 5.65078 39.9698 5.25845 39.6853 4.95538C39.3888 4.67708 39.0237 4.6117 38.6318 4.61857C38.3307 4.63047 38.0613 4.74328 37.8346 4.94139C37.8234 4.95088 37.8121 4.96038 37.8005 4.97016C37.5454 5.20283 37.4187 5.59104 37.4021 5.92909C37.3999 6.0183 37.3999 6.10752 37.3998 6.19675C37.3996 6.23096 37.3994 6.26516 37.3992 6.29936C37.3987 6.39165 37.3984 6.48394 37.3982 6.57624C37.3979 6.6729 37.3974 6.76956 37.3969 6.86622C37.396 7.04901 37.3954 7.2318 37.3947 7.41459C37.394 7.6228 37.3931 7.831 37.3922 8.03921C37.3902 8.46727 37.3886 8.89534 37.3871 9.32341C36.9686 9.32341 36.5502 9.32341 36.1191 9.32341C36.1187 9.16108 36.1187 9.16108 36.1183 8.99548C36.1173 8.63763 36.1161 8.27979 36.1147 7.92195C36.1139 7.70502 36.1131 7.48809 36.1126 7.27117C36.1122 7.08201 36.1116 6.89286 36.1107 6.7037C36.1103 6.60362 36.1099 6.50354 36.1098 6.40346C36.1097 6.30909 36.1093 6.21472 36.1088 6.12035C36.1086 6.08588 36.1085 6.05141 36.1086 6.01694C36.1088 5.61153 36.0361 5.24227 35.7497 4.93673C35.4718 4.67222 35.1044 4.61203 34.7363 4.61864C34.3477 4.63386 34.0506 4.79586 33.7872 5.07527C33.5683 5.33311 33.4688 5.70668 33.4683 6.03833C33.4682 6.05246 33.4681 6.06658 33.468 6.08113C33.4677 6.12814 33.4676 6.17515 33.4674 6.22216C33.4672 6.25598 33.467 6.2898 33.4668 6.32362C33.4663 6.41523 33.466 6.50683 33.4656 6.59844C33.4652 6.69425 33.4647 6.79007 33.4642 6.88588C33.4632 7.06722 33.4624 7.24856 33.4616 7.4299C33.4607 7.63639 33.4596 7.84288 33.4586 8.04937C33.4565 8.47405 33.4545 8.89873 33.4526 9.32341C33.0403 9.32341 32.628 9.32341 32.2032 9.32341C32.2032 7.45275 32.2032 5.5821 32.2032 3.65475C32.6094 3.65475 33.0155 3.65475 33.4339 3.65475C33.4401 3.85782 33.4462 4.06088 33.4526 4.2701C33.5357 4.1778 33.5357 4.1778 33.6204 4.08363C34.4372 3.29125 35.8509 3.36483 36.6835 4.08283Z" fill="#363642" style="fill:#363642;fill:color(display-p3 0.2118 0.2118 0.2588);fill-opacity:1;"/>
<path d="M44.5689 3.53843C44.5833 3.53824 44.5976 3.53806 44.6124 3.53787C45.2188 3.53169 45.7835 3.60958 46.3189 3.91581C46.3311 3.92268 46.3433 3.92954 46.3559 3.93662C46.9731 4.28864 47.4398 4.88999 47.6329 5.57481C47.7492 6.01948 47.7361 6.39525 47.7361 6.88067C46.1731 6.88682 44.6101 6.89297 42.9998 6.89931C43.0881 7.23485 43.1785 7.49286 43.3914 7.75707C43.4058 7.77534 43.4202 7.79361 43.4351 7.81243C43.6974 8.12445 44.1163 8.28612 44.5102 8.33512C44.8061 8.35458 45.1029 8.35312 45.3866 8.26054C45.3988 8.25664 45.411 8.25274 45.4236 8.24873C45.8684 8.10207 46.1014 7.8016 46.3189 7.40278C46.7558 7.40278 47.1927 7.40278 47.6428 7.40278C47.6114 7.54448 47.5764 7.64726 47.5146 7.77455C47.5056 7.79326 47.4965 7.81197 47.4872 7.83125C47.1538 8.50389 46.6008 9.01782 45.89 9.26747C45.0714 9.54132 44.1071 9.50541 43.3296 9.12179C43.1791 9.04528 43.0407 8.96006 42.9065 8.85724C42.8892 8.84407 42.8719 8.83089 42.8541 8.81732C42.25 8.34026 41.901 7.64672 41.8041 6.88823C41.7964 6.81743 41.7914 6.74667 41.7877 6.67555C41.7866 6.65552 41.7866 6.65552 41.7855 6.63509C41.7463 5.77238 42.0777 5.01019 42.6453 4.37798C43.1239 3.87679 43.876 3.54574 44.5689 3.53843ZM43.6151 5.03462C43.6002 5.04686 43.5852 5.05909 43.5698 5.0717C43.3423 5.26556 43.134 5.53798 43.0744 5.83644C44.1943 5.83644 45.3142 5.83644 46.4681 5.83644C46.3502 5.40415 46.1227 5.07603 45.7312 4.84539C45.0644 4.49106 44.1986 4.54163 43.6151 5.03462Z" fill="#363642" style="fill:#363642;fill:color(display-p3 0.2118 0.2118 0.2588);fill-opacity:1;"/>
<path d="M25.9752 3.65479C26.4182 3.65479 26.8613 3.65479 27.3178 3.65479C27.752 4.6527 27.752 4.6527 27.8667 4.9286C27.9856 5.21454 28.1078 5.49901 28.23 5.78356C28.2591 5.85145 28.2883 5.91935 28.3174 5.98725C28.3223 5.9986 28.3272 6.00996 28.3322 6.02166C28.4074 6.197 28.4823 6.37251 28.5569 6.54811C28.5667 6.57123 28.5766 6.59434 28.5864 6.61745C28.6329 6.72693 28.6794 6.83644 28.7259 6.94597C28.8069 7.13692 28.8886 7.32716 28.9773 7.51469C29.249 6.85058 29.249 6.85058 29.5169 6.18494C29.669 5.80329 29.823 5.42242 29.9769 5.04148C30.046 4.87032 30.115 4.69911 30.184 4.52787C30.2137 4.45397 30.2435 4.38007 30.2733 4.30618C30.2971 4.24696 30.321 4.18774 30.3448 4.1285C30.3712 4.06292 30.3976 3.99735 30.424 3.93179C30.4318 3.9123 30.4397 3.89282 30.4477 3.87274C30.4549 3.85485 30.4622 3.83697 30.4696 3.81854C30.4758 3.80303 30.4821 3.78752 30.4885 3.77154C30.5053 3.73191 30.5244 3.69329 30.5437 3.65479C30.9806 3.65479 31.4175 3.65479 31.8676 3.65479C31.7605 3.93315 31.7605 3.93315 31.7036 4.06808C31.6972 4.08334 31.6908 4.0986 31.6843 4.11432C31.6634 4.16394 31.6426 4.21354 31.6217 4.26314C31.6068 4.2986 31.5919 4.33407 31.577 4.36953C31.5462 4.443 31.5154 4.51647 31.4845 4.58993C31.4411 4.69336 31.3978 4.79684 31.3545 4.90034C31.2112 5.24335 31.0672 5.58612 30.9224 5.92854C30.7998 6.21869 30.678 6.50916 30.557 6.80002C30.5485 6.82038 30.5485 6.82038 30.5399 6.84115C30.5342 6.85478 30.5285 6.86842 30.5227 6.88248C30.4149 7.14169 30.3062 7.40057 30.1977 7.65952C30.1484 7.77723 30.0992 7.89495 30.05 8.01269C29.9063 8.35626 29.7622 8.69959 29.6172 9.04257C29.4945 9.33272 29.3727 9.6232 29.2517 9.91406C29.2461 9.92763 29.2404 9.9412 29.2346 9.95518C29.2289 9.96882 29.2233 9.98245 29.2174 9.99651C29.1312 10.2038 29.0443 10.4109 28.9576 10.6181C28.9435 10.6517 28.9294 10.6853 28.9153 10.719C28.9082 10.7358 28.9012 10.7525 28.894 10.7698C28.8482 10.8792 28.8025 10.9886 28.7568 11.0981C28.7256 11.173 28.6944 11.2479 28.6631 11.3228C28.6481 11.3587 28.6331 11.3947 28.6182 11.4307C28.5975 11.4804 28.5767 11.5301 28.556 11.5799C28.5498 11.5948 28.5436 11.6097 28.5372 11.625C28.4946 11.7268 28.4946 11.7268 28.4739 11.7475C28.4344 11.7493 28.3949 11.7497 28.3554 11.7497C28.343 11.7497 28.3306 11.7497 28.3179 11.7497C28.2768 11.7496 28.2357 11.7495 28.1947 11.7494C28.1663 11.7493 28.1379 11.7493 28.1095 11.7493C28.0346 11.7492 27.9597 11.749 27.8848 11.7488C27.8084 11.7486 27.7321 11.7485 27.6557 11.7484C27.5058 11.7482 27.3558 11.7479 27.2059 11.7475C27.2155 11.6818 27.2264 11.6227 27.253 11.5617C27.2588 11.5482 27.2647 11.5347 27.2707 11.5207C27.277 11.5063 27.2834 11.4919 27.2899 11.477C27.2966 11.4616 27.3033 11.4462 27.3101 11.4304C27.3245 11.3972 27.3389 11.3641 27.3534 11.3309C27.3921 11.2423 27.4304 11.1534 27.4688 11.0646C27.4765 11.0466 27.4843 11.0286 27.4924 11.01C27.5635 10.8455 27.6326 10.6801 27.7012 10.5145C27.7947 10.2891 27.8891 10.0641 27.9846 9.83952C28.0051 9.79147 28.0255 9.7434 28.0459 9.69533C28.1014 9.56467 28.1571 9.43416 28.2149 9.3045C28.223 9.28614 28.2311 9.26777 28.2395 9.24885C28.2537 9.21686 28.2681 9.18496 28.2828 9.15318C28.3176 9.07467 28.3297 9.03254 28.3061 8.9505C28.2856 8.8988 28.2626 8.8484 28.2393 8.7979C28.2326 8.78301 28.2258 8.76812 28.2188 8.75277C28.2043 8.72075 28.1897 8.68874 28.1751 8.65675C28.1363 8.57182 28.0978 8.48674 28.0593 8.40166C28.0516 8.38464 28.0439 8.36763 28.0359 8.3501C27.9721 8.20902 27.9102 8.06722 27.8492 7.92492C27.7571 7.71059 27.6621 7.49769 27.566 7.2851C27.4515 7.03167 27.3384 6.77769 27.2269 6.52291C27.1095 6.2549 26.9915 5.98723 26.8726 5.71993C26.8648 5.70252 26.8571 5.68512 26.8491 5.66718C26.794 5.54335 26.7389 5.41953 26.6838 5.29571C26.5593 5.01609 26.4349 4.73643 26.3108 4.4566C26.3028 4.43849 26.2948 4.42039 26.2865 4.40173C26.2384 4.29305 26.1903 4.18432 26.1423 4.07554C26.1273 4.04154 26.1123 4.00755 26.0973 3.97357C26.0766 3.9269 26.056 3.88018 26.0355 3.83346C26.0293 3.8196 26.0232 3.80573 26.0168 3.79145C25.9752 3.69634 25.9752 3.69634 25.9752 3.65479Z" fill="#363642" style="fill:#363642;fill:color(display-p3 0.2118 0.2118 0.2588);fill-opacity:1;"/>
<path d="M24.4648 1.6409C24.4648 2.30547 24.4648 2.97005 24.4648 3.65476C24.8648 3.65476 25.2648 3.65476 25.6768 3.65476C25.6768 4.01782 25.6768 4.38087 25.6768 4.75493C25.2769 4.75493 24.8769 4.75493 24.4648 4.75493C24.4665 5.20696 24.4665 5.20696 24.4687 5.65898C24.4697 5.84356 24.4707 6.02815 24.4713 6.21273C24.4717 6.34722 24.4723 6.48171 24.4732 6.6162C24.4736 6.68726 24.474 6.75832 24.4741 6.82938C24.4522 7.40429 24.4522 7.40429 24.6513 7.9249C24.9027 8.17434 25.3709 8.13643 25.6768 8.14866C25.6768 8.53633 25.6768 8.924 25.6768 9.32342C24.2343 9.32342 24.2343 9.32342 23.7562 8.89454C23.7427 8.88276 23.7292 8.87098 23.7154 8.85885C23.2744 8.44849 23.2223 7.79411 23.2004 7.22776C23.1934 7.01408 23.1945 6.80029 23.1949 6.58652C23.195 6.52182 23.195 6.45711 23.1951 6.39241C23.1951 6.27065 23.1953 6.14888 23.1955 6.02712C23.1957 5.88818 23.1958 5.74923 23.1959 5.61028C23.1961 5.32517 23.1964 5.04005 23.1968 4.75493C22.8768 4.75493 22.5568 4.75493 22.2272 4.75493C22.2272 4.39188 22.2272 4.02882 22.2272 3.65476C22.5472 3.65476 22.8671 3.65476 23.1968 3.65476C23.1968 3.21171 23.1968 2.76866 23.1968 2.31219C23.6727 2.05263 23.6727 2.05263 23.8739 1.94508C23.896 1.93326 23.9181 1.92145 23.9402 1.90964C24.0032 1.87597 24.0662 1.84235 24.1292 1.80872C24.1558 1.7945 24.1558 1.7945 24.1829 1.77999C24.2283 1.75572 24.2737 1.73151 24.3191 1.70733C24.3321 1.7004 24.345 1.69347 24.3584 1.68634C24.444 1.6409 24.444 1.6409 24.4648 1.6409Z" fill="#363642" style="fill:#363642;fill:color(display-p3 0.2118 0.2118 0.2588);fill-opacity:1;"/>
<path d="M32.2406 10.2185C32.3883 10.2185 32.5359 10.2185 32.6881 10.2185C32.6942 10.7846 32.7004 11.3507 32.7067 11.934C32.7437 11.8848 32.7806 11.8355 32.8186 11.7848C33.0783 11.4429 33.5275 11.2407 33.9445 11.1818C33.9919 11.1764 34.039 11.1725 34.0866 11.1695C34.101 11.1685 34.1154 11.1674 34.1302 11.1664C34.6482 11.1484 35.1469 11.3388 35.5255 11.6895C35.9054 12.0521 36.1097 12.5439 36.1257 13.0669C36.1304 13.5559 35.9664 14.0326 35.6343 14.3954C35.6131 14.4189 35.6131 14.4189 35.5914 14.4429C35.2384 14.8149 34.753 15.0184 34.242 15.0356C33.7687 15.0433 33.3031 14.8851 32.9503 14.5655C32.9365 14.5531 32.9365 14.5531 32.9223 14.5404C32.8279 14.4505 32.7678 14.3559 32.6881 14.2462C32.6819 14.48 32.6758 14.7139 32.6694 14.9548C32.5279 14.9548 32.3864 14.9548 32.2406 14.9548C32.2406 13.3918 32.2406 11.8288 32.2406 10.2185ZM32.9864 12.1018C32.695 12.4492 32.5996 12.8527 32.6322 13.2952C32.6507 13.4674 32.7073 13.6245 32.7813 13.78C32.7891 13.7971 32.797 13.8141 32.805 13.8317C32.8787 13.98 32.9827 14.0928 33.0983 14.2089C33.1113 14.2226 33.1243 14.2362 33.1377 14.2503C33.4189 14.5254 33.8156 14.625 34.1972 14.625C34.6042 14.6194 34.9553 14.4459 35.2483 14.1683C35.407 14.0001 35.5217 13.7925 35.597 13.5749C35.603 13.5579 35.6089 13.5409 35.6151 13.5234C35.7004 13.2274 35.6847 12.8739 35.5784 12.5866C35.5718 12.5675 35.5653 12.5483 35.5586 12.5286C35.4262 12.1744 35.1375 11.8705 34.7951 11.7115C34.1615 11.4383 33.4544 11.5916 32.9864 12.1018Z" fill="#363642" style="fill:#363642;fill:color(display-p3 0.2118 0.2118 0.2588);fill-opacity:1;"/>
<path d="M39.3823 11.5983C39.3954 11.6084 39.4085 11.6185 39.4221 11.6289C39.5408 11.725 39.6018 11.8226 39.6993 11.9526C39.7054 11.7188 39.7116 11.485 39.7179 11.244C39.8595 11.244 40.001 11.244 40.1468 11.244C40.1468 12.4686 40.1468 13.6931 40.1468 14.9548C40.0053 14.9548 39.8638 14.9548 39.7179 14.9548C39.7118 14.7209 39.7056 14.4871 39.6993 14.2462C39.6378 14.3262 39.5762 14.4062 39.5128 14.4886C39.3918 14.6081 39.2687 14.7027 39.1212 14.787C39.1019 14.7981 39.0826 14.8093 39.0627 14.8208C38.6188 15.0603 38.114 15.081 37.6333 14.9549C37.3608 14.8718 37.1115 14.7387 36.9023 14.5445C36.8853 14.5293 36.8683 14.514 36.8508 14.4982C36.4734 14.1424 36.2973 13.6575 36.2648 13.1482C36.2516 12.6269 36.4494 12.1358 36.8021 11.7557C37.492 11.0454 38.6123 10.9786 39.3823 11.5983ZM37.0592 12.1264C36.8939 12.3222 36.772 12.5932 36.7344 12.8477C36.7324 12.8614 36.7304 12.8751 36.7282 12.8892C36.6766 13.2896 36.7798 13.7034 37.0216 14.0283C37.2686 14.3435 37.6192 14.5682 38.0211 14.6191C38.4861 14.6577 38.8902 14.5467 39.2518 14.2462C39.536 14.0031 39.7118 13.6452 39.7552 13.2766C39.7832 12.8075 39.6576 12.4102 39.3508 12.0517C39.0929 11.7775 38.712 11.5893 38.3334 11.5759C37.8213 11.5674 37.402 11.7442 37.0592 12.1264Z" fill="#363642" style="fill:#363642;fill:color(display-p3 0.2118 0.2118 0.2588);fill-opacity:1;"/>
<path d="M44.5661 10.2185C44.7138 10.2185 44.8615 10.2185 45.0137 10.2185C45.0198 11.2584 45.026 12.2983 45.0323 13.3698C45.2804 13.1234 45.2804 13.1234 45.5171 12.8663C45.5404 12.8418 45.564 12.8174 45.5881 12.7936C45.6003 12.7814 45.6126 12.7692 45.6252 12.7566C45.638 12.744 45.6508 12.7313 45.664 12.7183C45.6843 12.6981 45.6843 12.6981 45.7051 12.6774C45.7625 12.6203 45.8201 12.5633 45.8776 12.5063C45.9198 12.4643 45.9621 12.4223 46.0043 12.3803C46.0171 12.3677 46.0298 12.3551 46.043 12.3421C46.103 12.2824 46.1609 12.2221 46.2161 12.158C46.2847 12.0786 46.358 12.0048 46.4326 11.9311C46.4466 11.9172 46.4606 11.9032 46.475 11.8889C46.5342 11.83 46.5935 11.7712 46.6528 11.7124C46.6963 11.6692 46.7399 11.6259 46.7834 11.5826C46.7966 11.5696 46.8097 11.5565 46.8233 11.5431C46.8981 11.4687 46.9693 11.3924 47.0379 11.3123C47.0969 11.2444 47.0969 11.2444 47.1594 11.2398C47.1834 11.24 47.2074 11.2402 47.2322 11.2404C47.245 11.2405 47.2578 11.2405 47.2709 11.2406C47.3118 11.2408 47.3526 11.2412 47.3935 11.2417C47.4211 11.2419 47.4488 11.2421 47.4765 11.2422C47.5444 11.2426 47.6123 11.2433 47.6802 11.2441C47.6497 11.3217 47.5929 11.3735 47.5346 11.4309C47.518 11.4474 47.518 11.4474 47.501 11.4643C47.4644 11.5008 47.4277 11.5372 47.3909 11.5736C47.3654 11.599 47.3398 11.6245 47.3143 11.6499C47.2469 11.717 47.1795 11.784 47.112 11.851C47.0043 11.9579 46.8967 12.0649 46.7892 12.172C46.7518 12.2092 46.7143 12.2463 46.6769 12.2835C46.524 12.4352 46.524 12.4352 46.3803 12.5956C46.3439 12.6384 46.3042 12.6777 46.2642 12.7172C46.2498 12.7314 46.2354 12.7456 46.2205 12.7603C46.2099 12.7707 46.1993 12.781 46.1884 12.7917C46.2121 12.8569 46.2393 12.9082 46.2814 12.9632C46.2925 12.9779 46.3037 12.9926 46.3151 13.0077C46.3272 13.0234 46.3392 13.039 46.3516 13.0551C46.3772 13.0888 46.4027 13.1225 46.4283 13.1562C46.4412 13.1732 46.4542 13.1902 46.4675 13.2078C46.524 13.2826 46.5794 13.3582 46.6348 13.4339C46.7273 13.5601 46.8216 13.6849 46.9168 13.8092C47.0185 13.9419 47.1178 14.0761 47.215 14.2122C47.3074 14.341 47.4035 14.4669 47.5004 14.5925C47.7361 14.8991 47.7361 14.8991 47.7361 14.9548C47.3024 15.0105 47.3024 15.0105 47.1678 14.9257C47.0879 14.846 47.0348 14.7491 46.9813 14.6504C46.9356 14.57 46.8796 14.498 46.8236 14.4245C46.8018 14.395 46.7801 14.3655 46.7584 14.336C46.6901 14.2436 46.6211 14.1516 46.552 14.0597C46.4285 13.8953 46.3062 13.73 46.1844 13.5643C46.149 13.5161 46.1136 13.4681 46.0781 13.42C46.0661 13.4038 46.0541 13.3876 46.0418 13.3709C46.0189 13.3398 45.9959 13.3087 45.9729 13.2775C45.9626 13.2636 45.9523 13.2496 45.9416 13.2352C45.9326 13.2229 45.9235 13.2106 45.9141 13.1979C45.893 13.1687 45.8728 13.1388 45.8528 13.1087C45.7803 13.1382 45.7315 13.1876 45.6776 13.2423C45.6681 13.2519 45.6586 13.2614 45.6487 13.2712C45.6286 13.2914 45.6086 13.3116 45.5885 13.3319C45.5583 13.3624 45.5279 13.3928 45.4976 13.4232C45.4066 13.5145 45.3165 13.6058 45.2343 13.7051C45.2001 13.7427 45.2001 13.7427 45.1581 13.7777C45.0699 13.8531 45.022 13.9076 45.0115 14.0255C45.0108 14.0688 45.0109 14.1121 45.0118 14.1554C45.0117 14.1783 45.0115 14.2013 45.0113 14.2249C45.0109 14.2977 45.0117 14.3704 45.0125 14.4432C45.0125 14.4927 45.0123 14.5422 45.0121 14.5918C45.0116 14.7128 45.0127 14.8337 45.0137 14.9548C44.866 14.9548 44.7183 14.9548 44.5661 14.9548C44.5661 13.3918 44.5661 11.8288 44.5661 10.2185Z" fill="#363642" style="fill:#363642;fill:color(display-p3 0.2118 0.2118 0.2588);fill-opacity:1;"/>
<path d="M42.4288 11.1665C42.7223 11.1555 43.0133 11.2169 43.2795 11.3373C43.298 11.3455 43.3165 11.3537 43.3356 11.3622C43.6537 11.519 43.8983 11.8285 44.0207 12.1554C44.1119 12.4275 44.1403 12.6944 44.1394 12.9797C44.1394 13.0012 44.1394 13.0227 44.1394 13.0448C44.1394 13.1152 44.1392 13.1855 44.1391 13.2558C44.1391 13.3048 44.139 13.3539 44.139 13.4029C44.139 13.5183 44.1388 13.6338 44.1386 13.7492C44.1384 13.8808 44.1383 14.0123 44.1382 14.1438C44.138 14.4142 44.1377 14.6845 44.1373 14.9548C43.9896 14.9548 43.8419 14.9548 43.6897 14.9548C43.6894 14.8902 43.689 14.8255 43.6886 14.7589C43.6874 14.5446 43.6859 14.3302 43.6844 14.1159C43.6834 13.986 43.6826 13.8562 43.6819 13.7263C43.6812 13.6008 43.6803 13.4753 43.6793 13.3498C43.679 13.3021 43.6787 13.2544 43.6785 13.2067C43.6763 12.7335 43.6679 12.2831 43.3219 11.9193C43.0609 11.665 42.7329 11.5886 42.3783 11.5905C42.0562 11.5985 41.7706 11.7012 41.5267 11.9153C41.5078 11.9316 41.5078 11.9316 41.4885 11.9483C41.2804 12.1405 41.1296 12.441 41.1139 12.7269C41.1138 12.7435 41.1136 12.7602 41.1135 12.7774C41.1132 12.8063 41.1132 12.8063 41.113 12.8358C41.1129 12.8568 41.1128 12.8777 41.1126 12.8993C41.1124 12.9326 41.1124 12.9326 41.1121 12.9666C41.1116 13.0273 41.1112 13.088 41.1108 13.1487C41.1104 13.2122 41.1099 13.2757 41.1094 13.3392C41.1085 13.4594 41.1076 13.5796 41.1068 13.6998C41.1059 13.8366 41.1049 13.9735 41.1038 14.1104C41.1017 14.3918 41.0997 14.6733 41.0978 14.9548C40.9501 14.9548 40.8025 14.9548 40.6503 14.9548C40.6503 13.7302 40.6503 12.5057 40.6503 11.244C40.7918 11.244 40.9334 11.244 41.0792 11.244C41.0853 11.4533 41.0915 11.6625 41.0978 11.878C41.1409 11.8227 41.184 11.7673 41.2284 11.7102C41.4755 11.3979 41.8499 11.2373 42.2364 11.1796C42.3005 11.1728 42.3645 11.1708 42.4288 11.1665Z" fill="#363642" style="fill:#363642;fill:color(display-p3 0.2118 0.2118 0.2588);fill-opacity:1;"/>
<path d="M19.1504 6.82477C19.2436 6.83385 19.3286 6.85562 19.4178 6.88365C19.4308 6.88772 19.4439 6.89179 19.4573 6.89598C19.5003 6.90942 19.5432 6.923 19.5861 6.93658C19.6166 6.94615 19.6472 6.95571 19.6777 6.96526C19.7584 6.99051 19.839 7.01588 19.9196 7.04128C20.0464 7.08122 20.1733 7.12099 20.3002 7.16077C20.3315 7.17057 20.3627 7.18038 20.394 7.1902C20.6449 7.26895 20.8962 7.34596 21.1481 7.42139C21.1603 7.42506 21.1725 7.42873 21.1851 7.43252C21.2178 7.44234 21.2505 7.45212 21.2832 7.46189C21.3321 7.47741 21.3321 7.47741 21.3694 7.49606C21.3609 7.63582 21.3131 7.7521 21.2598 7.88065C21.2515 7.90127 21.2431 7.9219 21.2346 7.94314C21.1957 8.03839 21.1565 8.13238 21.1083 8.22328C20.9917 8.21427 20.8977 8.16038 20.7948 8.10907C20.7527 8.08847 20.7106 8.06794 20.6685 8.04745C20.6574 8.04205 20.6463 8.03665 20.6349 8.03109C20.5021 7.96678 20.3676 7.90633 20.2331 7.84569C20.014 7.74671 19.7957 7.64615 19.5781 7.54384C19.5653 7.53782 19.5524 7.53179 19.5392 7.52559C19.3522 7.43781 19.167 7.34675 18.9826 7.25365C19.1066 6.86859 19.1066 6.86859 19.1504 6.82477Z" fill="#363642" style="fill:#363642;fill:color(display-p3 0.2118 0.2118 0.2588);fill-opacity:1;"/>
<path d="M16.5585 0.0745544C16.5912 0.0763891 16.5912 0.0763891 16.6342 0.0823483C16.658 0.0856518 16.658 0.0856518 16.6824 0.0890222C16.7082 0.0928215 16.7082 0.0928215 16.7345 0.0966976C16.7519 0.0992305 16.7694 0.101763 16.7874 0.104373C17.2123 0.168358 17.2123 0.168358 17.323 0.22373C17.31 0.338079 17.2817 0.445941 17.2512 0.556774C17.2431 0.586722 17.2431 0.586722 17.2347 0.617275C17.2169 0.682999 17.1988 0.748692 17.1808 0.814384C17.1684 0.860094 17.1559 0.905806 17.1434 0.951519C17.1173 1.04716 17.0912 1.14279 17.065 1.23841C17.0347 1.34898 17.0045 1.45958 16.9743 1.57019C16.9453 1.6767 16.9162 1.7832 16.8871 1.88969C16.8747 1.93499 16.8623 1.98029 16.85 2.0256C16.8327 2.08873 16.8154 2.15185 16.7981 2.21496C16.793 2.2338 16.7879 2.25264 16.7826 2.27206C16.7755 2.29774 16.7755 2.29774 16.7683 2.32394C16.7642 2.33886 16.7601 2.35378 16.7559 2.36916C16.745 2.40542 16.745 2.40542 16.7263 2.44271C16.5679 2.4319 16.4151 2.40098 16.2601 2.36812C16.257 2.24559 16.2693 2.12853 16.2855 2.00717C16.2882 1.98645 16.2909 1.96572 16.2937 1.94437C16.3026 1.87624 16.3116 1.80813 16.3207 1.74003C16.3269 1.69263 16.3331 1.64522 16.3394 1.59782C16.3524 1.49871 16.3655 1.3996 16.3786 1.3005C16.3938 1.18584 16.4089 1.07117 16.4239 0.956482C16.4384 0.846057 16.4529 0.735644 16.4675 0.625237C16.4737 0.578258 16.4799 0.531277 16.4861 0.484293C16.4947 0.41888 16.5033 0.353483 16.5121 0.288088C16.5159 0.258724 16.5159 0.258724 16.5198 0.228767C16.5222 0.21107 16.5245 0.193374 16.527 0.175141C16.529 0.159676 16.5311 0.144211 16.5332 0.128278C16.5398 0.0932013 16.5398 0.0932013 16.5585 0.0745544Z" fill="#363642" style="fill:#363642;fill:color(display-p3 0.2118 0.2118 0.2588);fill-opacity:1;"/>
<path d="M17.5841 0.316956C17.7246 0.322507 17.8435 0.374469 17.9722 0.427671C17.9933 0.436169 18.0144 0.444666 18.0361 0.45342C18.191 0.516414 18.191 0.516414 18.2554 0.559365C18.2457 0.650482 18.2272 0.720691 18.1863 0.802576C18.1759 0.823844 18.1654 0.845112 18.1546 0.867025C18.149 0.878202 18.1434 0.889378 18.1377 0.900894C18.1074 0.961437 18.0777 1.02229 18.0479 1.08308C18.0417 1.09552 18.0356 1.10797 18.0293 1.12079C17.9711 1.2393 17.9155 1.35894 17.8603 1.47889C17.7569 1.70298 17.6515 1.9261 17.5456 2.14901C17.5379 2.16534 17.5301 2.18167 17.5222 2.19849C17.4999 2.24542 17.4776 2.29235 17.4552 2.33927C17.4487 2.35316 17.4421 2.36704 17.4353 2.38135C17.3927 2.47072 17.3489 2.55939 17.3044 2.64782C17.2086 2.63588 17.1256 2.60685 17.0363 2.57206C17.0226 2.56681 17.0089 2.56156 16.9948 2.55615C16.9612 2.54329 16.9277 2.5303 16.8942 2.51729C16.903 2.3542 16.9544 2.20723 17.0053 2.05352C17.0148 2.02435 17.0244 1.99517 17.0339 1.96598C17.059 1.88902 17.0843 1.81213 17.1096 1.73524C17.1346 1.65941 17.1593 1.58351 17.1841 1.50762C17.2135 1.4177 17.2429 1.32778 17.2725 1.2379C17.3221 1.08671 17.3715 0.935426 17.4202 0.78392C17.4249 0.769049 17.4297 0.754178 17.4347 0.738857C17.4575 0.667955 17.4802 0.597036 17.5029 0.526085C17.5109 0.500999 17.519 0.475914 17.527 0.45083C17.534 0.428943 17.541 0.407057 17.5482 0.384507C17.5655 0.335602 17.5655 0.335602 17.5841 0.316956Z" fill="#363642" style="fill:#363642;fill:color(display-p3 0.2118 0.2118 0.2588);fill-opacity:1;"/>
<path d="M19.2809 6.2467C19.4133 6.24347 19.5405 6.2527 19.6717 6.27008C19.6912 6.27256 19.7107 6.27505 19.7307 6.27761C19.7946 6.28579 19.8584 6.29414 19.9222 6.3025C19.9668 6.30827 20.0115 6.31403 20.0561 6.31979C20.1493 6.33185 20.2425 6.34399 20.3358 6.35619C20.4552 6.37181 20.5746 6.38723 20.694 6.40258C20.7861 6.41444 20.8781 6.4264 20.9701 6.43839C21.0141 6.44411 21.0581 6.44981 21.1022 6.45547C21.1637 6.46339 21.2252 6.47146 21.2867 6.47956C21.3048 6.48187 21.3229 6.48418 21.3416 6.48655C21.4295 6.49829 21.5099 6.51294 21.5932 6.54505C21.5898 6.70643 21.5623 6.8586 21.5279 7.01589C21.5237 7.03521 21.5195 7.05454 21.5151 7.07445C21.4839 7.21376 21.4839 7.21376 21.4626 7.23499C21.3362 7.23247 21.2148 7.20469 21.0931 7.17261C21.0759 7.16819 21.0586 7.16376 21.0408 7.15919C20.9843 7.14465 20.9279 7.12991 20.8715 7.11517C20.8318 7.10491 20.7922 7.09466 20.7525 7.08443C20.6695 7.06299 20.5866 7.04146 20.5037 7.01986C20.398 6.99235 20.2924 6.96498 20.1867 6.93767C20.0851 6.91142 19.9836 6.8851 19.882 6.85877C19.863 6.85384 19.8439 6.8489 19.8243 6.84382C19.6176 6.79021 19.4113 6.7358 19.2064 6.67558C19.217 6.5286 19.2453 6.38965 19.2809 6.2467Z" fill="#363642" style="fill:#363642;fill:color(display-p3 0.2118 0.2118 0.2588);fill-opacity:1;"/>
<path d="M18.5537 0.727203C18.6599 0.736064 18.732 0.778836 18.8206 0.833258C18.8346 0.841643 18.8485 0.850029 18.8629 0.858669C18.9606 0.91775 19.0569 0.978667 19.1504 1.0442C19.1439 1.161 19.1067 1.22049 19.0339 1.30992C19.0133 1.33623 18.9928 1.3626 18.9724 1.38902C18.9617 1.40274 18.9511 1.41646 18.9401 1.4306C18.8868 1.50124 18.8375 1.57451 18.788 1.64789C18.6796 1.80799 18.5674 1.965 18.4536 2.12128C18.3208 2.30376 18.1887 2.4868 18.0584 2.67114C18.0493 2.68403 18.0402 2.69691 18.0308 2.71019C18.0222 2.7224 18.0136 2.73461 18.0048 2.74719C17.9966 2.75874 17.9884 2.77029 17.9799 2.78219C17.9584 2.81374 17.9387 2.84659 17.9192 2.87946C17.8825 2.92754 17.8825 2.92754 17.8402 2.94895C17.762 2.94471 17.7093 2.90645 17.6447 2.8646C17.6319 2.85667 17.6192 2.84874 17.606 2.84057C17.5144 2.78321 17.5144 2.78321 17.4909 2.75971C17.4983 2.66631 17.5198 2.59842 17.5647 2.51665C17.5818 2.48511 17.5818 2.48511 17.5992 2.45293C17.6117 2.43049 17.6241 2.40805 17.6366 2.38561C17.6494 2.36219 17.6621 2.33875 17.6749 2.3153C17.7069 2.25662 17.7391 2.19807 17.7714 2.13954C17.7974 2.09221 17.8232 2.04476 17.849 1.9973C17.8852 1.9308 17.9214 1.86435 17.9578 1.79794C18.0169 1.68982 18.0756 1.58146 18.1342 1.47308C18.1644 1.41724 18.1947 1.3614 18.2249 1.30557C18.2455 1.26754 18.2661 1.22951 18.2867 1.19146C18.317 1.13536 18.3474 1.07929 18.3778 1.02322C18.3869 1.00632 18.396 0.989427 18.4054 0.972017C18.4513 0.88748 18.4987 0.806155 18.5537 0.727203Z" fill="#363642" style="fill:#363642;fill:color(display-p3 0.2118 0.2118 0.2588);fill-opacity:1;"/>
<path d="M21.4618 5.51706C21.487 5.51694 21.487 5.51694 21.5127 5.51682C21.6281 5.51715 21.6281 5.51715 21.6491 5.53811C21.651 5.58468 21.6517 5.63073 21.6516 5.67731C21.6516 5.69126 21.6516 5.70522 21.6516 5.7196C21.6516 5.74918 21.6516 5.77876 21.6515 5.80834C21.6514 5.85368 21.6515 5.89903 21.6516 5.94437C21.6516 5.97306 21.6516 6.00174 21.6516 6.03043C21.6516 6.04405 21.6516 6.05767 21.6517 6.07169C21.6512 6.16782 21.6512 6.16782 21.6304 6.2094C21.3822 6.21548 21.1364 6.19664 20.8889 6.17808C20.8447 6.17482 20.8005 6.17156 20.7563 6.16831C20.6643 6.16152 20.5723 6.15464 20.4803 6.14771C20.3622 6.13883 20.2441 6.1302 20.126 6.12164C20.035 6.115 19.9441 6.10821 19.8531 6.10138C19.8095 6.09813 19.766 6.09494 19.7224 6.09179C19.6618 6.0874 19.6012 6.0828 19.5406 6.07815C19.5226 6.07689 19.5045 6.07563 19.486 6.07433C19.4695 6.07302 19.4531 6.07172 19.4361 6.07037C19.4218 6.0693 19.4075 6.06824 19.3928 6.06714C19.3555 6.06022 19.3555 6.06022 19.2996 6.02293C19.2946 5.98304 19.2946 5.98304 19.2975 5.93428C19.2989 5.90809 19.2989 5.90809 19.3004 5.88137C19.3016 5.86309 19.3029 5.84481 19.3042 5.82597C19.3052 5.80762 19.3062 5.78927 19.3072 5.77036C19.3153 5.63428 19.3153 5.63428 19.3369 5.6127C19.3938 5.60812 19.4504 5.6047 19.5074 5.60202C19.5253 5.60111 19.5432 5.6002 19.5617 5.59926C19.6214 5.59624 19.6812 5.59336 19.741 5.59048C19.7827 5.58842 19.8243 5.58636 19.866 5.58429C19.9538 5.57995 20.0416 5.57568 20.1294 5.57146C20.2408 5.56609 20.3523 5.56055 20.4637 5.55497C20.55 5.55066 20.6364 5.54644 20.7228 5.54225C20.7638 5.54025 20.8048 5.53822 20.8458 5.53616C21.0511 5.52589 21.2562 5.51767 21.4618 5.51706Z" fill="#363642" style="fill:#363642;fill:color(display-p3 0.2118 0.2118 0.2588);fill-opacity:1;"/>
<path d="M19.3928 1.28662C19.4857 1.29048 19.5299 1.3186 19.5956 1.38219C19.6195 1.40479 19.6195 1.40479 19.6438 1.42786C19.6595 1.44278 19.6751 1.45771 19.6912 1.47309C19.719 1.49773 19.747 1.52222 19.7751 1.54651C19.8768 1.63468 19.8768 1.63468 19.8837 1.68543C19.8763 1.74511 19.8609 1.76266 19.8189 1.80495C19.8059 1.81828 19.7929 1.83162 19.7795 1.84536C19.765 1.8597 19.7506 1.87404 19.7356 1.88881C19.7206 1.90413 19.7055 1.91945 19.6899 1.93524C19.6398 1.98592 19.5894 2.03624 19.539 2.08654C19.5129 2.11271 19.4868 2.13889 19.4608 2.16507C19.379 2.2474 19.2969 2.32948 19.2146 2.41142C19.1297 2.49596 19.0453 2.5809 18.961 2.66605C18.8887 2.73915 18.8161 2.81199 18.7432 2.88463C18.6998 2.92802 18.6564 2.97153 18.6132 3.01523C18.5651 3.0639 18.5165 3.11214 18.4678 3.1603C18.4536 3.17486 18.4393 3.18943 18.4246 3.20444C18.3267 3.30006 18.3267 3.30006 18.2488 3.30221C18.1878 3.27705 18.1485 3.24534 18.1004 3.20026C18.0843 3.1855 18.0682 3.17074 18.0516 3.15553C18.013 3.11402 18.013 3.11402 17.9943 3.05808C18.0452 2.95205 18.1156 2.8665 18.1913 2.77721C18.2148 2.74906 18.2383 2.7209 18.2618 2.69271C18.2734 2.67882 18.285 2.66493 18.2969 2.65061C18.3435 2.59414 18.3887 2.53665 18.4337 2.47886C18.5071 2.38462 18.5819 2.29164 18.6575 2.19915C18.7299 2.11041 18.8012 2.02105 18.8707 1.92994C18.9611 1.81144 19.0549 1.69593 19.1492 1.58053C19.2094 1.50683 19.2687 1.43248 19.3278 1.35786C19.3555 1.32391 19.3555 1.32391 19.3928 1.28662Z" fill="#363642" style="fill:#363642;fill:color(display-p3 0.2118 0.2118 0.2588);fill-opacity:1;"/>
<path d="M21.4999 4.58713C21.5604 4.66578 21.5728 4.74687 21.5873 4.84236C21.5897 4.85722 21.5921 4.87209 21.5945 4.8874C21.6106 4.99347 21.617 5.09511 21.6118 5.20248C21.5564 5.23368 21.5114 5.24603 21.4483 5.25217C21.4305 5.25397 21.4126 5.25578 21.3943 5.25763C21.3651 5.26035 21.3651 5.26035 21.3354 5.26313C21.3148 5.26516 21.2942 5.2672 21.2731 5.2693C21.205 5.27599 21.1369 5.28247 21.0688 5.28894C21.0216 5.29352 20.9743 5.29811 20.927 5.30271C20.8278 5.31232 20.7287 5.32182 20.6295 5.33124C20.515 5.34212 20.4005 5.35322 20.2861 5.36442C20.1758 5.37521 20.0655 5.38583 19.9552 5.39638C19.9084 5.40088 19.8615 5.40542 19.8147 5.41001C19.7492 5.4164 19.6836 5.42261 19.6181 5.42877C19.5891 5.43166 19.5891 5.43166 19.5594 5.4346C19.4689 5.44291 19.389 5.44772 19.2996 5.42624C19.2767 5.34387 19.2583 5.26281 19.2471 5.178C19.2451 5.16269 19.243 5.14738 19.2409 5.1316C19.2436 5.09059 19.2436 5.09059 19.2668 5.06144C19.3048 5.03034 19.3309 5.02259 19.3788 5.0126C19.3949 5.00913 19.4111 5.00565 19.4277 5.00207C19.4454 4.9985 19.4631 4.99492 19.4813 4.99124C19.4999 4.98729 19.5186 4.98334 19.5378 4.97927C19.5996 4.96623 19.6615 4.9535 19.7234 4.94076C19.7664 4.93175 19.8093 4.92273 19.8523 4.91368C19.9657 4.88987 20.0792 4.86632 20.1926 4.84282C20.3076 4.81896 20.4225 4.79487 20.5375 4.77079C20.6668 4.74371 20.7962 4.71665 20.9256 4.68976C20.9454 4.68565 20.9652 4.68153 20.9855 4.6773C21.0222 4.66968 21.0589 4.66207 21.0955 4.65448C21.1877 4.63531 21.2798 4.61552 21.3716 4.59464C21.4175 4.5848 21.4535 4.57757 21.4999 4.58713Z" fill="#363642" style="fill:#363642;fill:color(display-p3 0.2118 0.2118 0.2588);fill-opacity:1;"/>
<path d="M21.2113 3.66576C21.2722 3.7004 21.2821 3.73083 21.3065 3.79577C21.3179 3.82584 21.3179 3.82584 21.3296 3.85652C21.3366 3.87609 21.3435 3.89565 21.3508 3.91581C21.3568 3.93192 21.3628 3.94802 21.369 3.96462C21.4207 4.10875 21.4207 4.10875 21.4067 4.17687C21.3571 4.2205 21.3124 4.24275 21.2492 4.26065C21.2327 4.26541 21.2162 4.27016 21.1993 4.27506C21.1723 4.28256 21.1723 4.28256 21.1449 4.29022C21.1258 4.29565 21.1068 4.30109 21.0872 4.30668C21.0243 4.32461 20.9613 4.34231 20.8984 4.35999C20.8545 4.37239 20.8107 4.38481 20.7669 4.39724C20.6751 4.42327 20.5832 4.44918 20.4912 4.47501C20.3736 4.50806 20.2561 4.54137 20.1386 4.57477C20.0481 4.60047 19.9576 4.62603 19.867 4.65155C19.8237 4.66378 19.7804 4.67605 19.7371 4.68836C19.6764 4.70558 19.6156 4.72263 19.5549 4.73964C19.5371 4.74471 19.5193 4.74979 19.501 4.75502C19.3963 4.78408 19.2964 4.80468 19.1877 4.81086C19.1295 4.76392 19.118 4.69998 19.1003 4.62906C19.0933 4.60151 19.0933 4.60151 19.0861 4.57341C19.0827 4.55947 19.0793 4.54552 19.0758 4.53116C19.1545 4.43783 19.2386 4.40327 19.3515 4.36101C19.3698 4.35392 19.3881 4.34683 19.407 4.33952C19.4674 4.31616 19.528 4.29313 19.5886 4.2701C19.6308 4.25387 19.673 4.23761 19.7151 4.22132C19.7812 4.19577 19.8473 4.17024 19.9135 4.1448C20.1664 4.04744 20.4183 3.94724 20.6701 3.84705C20.7535 3.81394 20.8368 3.78085 20.9201 3.74777C20.9476 3.73684 20.9476 3.73684 20.9756 3.72569C20.9924 3.71905 21.0091 3.7124 21.0264 3.70555C21.0409 3.69976 21.0555 3.69397 21.0705 3.688C21.1596 3.65365 21.1596 3.65365 21.2113 3.66576Z" fill="#363642" style="fill:#363642;fill:color(display-p3 0.2118 0.2118 0.2588);fill-opacity:1;"/>
<path d="M20.232 2.01385C20.3441 2.10533 20.4738 2.25119 20.5303 2.38679C20.5256 2.44228 20.5207 2.47105 20.4806 2.51072C20.4672 2.51963 20.4539 2.52854 20.4401 2.53771C20.425 2.54794 20.41 2.55817 20.3945 2.56871C20.3782 2.57944 20.3618 2.59017 20.345 2.60123C20.3107 2.62449 20.2763 2.64777 20.242 2.67108C20.2246 2.68278 20.2073 2.69449 20.1894 2.70654C20.115 2.75727 20.0424 2.81028 19.9697 2.86345C19.8419 2.95648 19.712 3.04623 19.5812 3.13504C19.4803 3.20376 19.3809 3.27419 19.2821 3.34594C19.2686 3.35571 19.2551 3.36549 19.2411 3.37556C19.182 3.41827 19.123 3.46105 19.0643 3.50435C19.0144 3.54117 18.9641 3.5776 18.9139 3.61399C18.8985 3.6255 18.8831 3.63701 18.8672 3.64887C18.7987 3.69801 18.7529 3.72724 18.6687 3.74138C18.5978 3.72694 18.5784 3.71033 18.5363 3.65245C18.5199 3.63103 18.5199 3.63103 18.5031 3.60918C18.4728 3.54901 18.4676 3.51621 18.4792 3.44966C18.5116 3.41084 18.5399 3.3824 18.5782 3.3506C18.5884 3.34174 18.5985 3.33288 18.609 3.32375C18.6893 3.25422 18.7722 3.18766 18.8549 3.12108C18.915 3.07092 18.9721 3.01831 19.0292 2.96484C19.118 2.8817 19.2094 2.80377 19.3043 2.7276C19.3605 2.68107 19.4141 2.63223 19.4674 2.58258C19.5366 2.51822 19.607 2.45643 19.6807 2.39728C19.7719 2.32397 19.8577 2.24614 19.9429 2.16602C19.9707 2.13994 19.9988 2.11418 20.0268 2.08844C20.05 2.0667 20.05 2.0667 20.0736 2.04452C20.1329 2.00539 20.1622 2.00087 20.232 2.01385Z" fill="#363642" style="fill:#363642;fill:color(display-p3 0.2118 0.2118 0.2588);fill-opacity:1;"/>
<path d="M20.8286 2.83429C20.8632 2.86576 20.8632 2.86576 20.888 2.90888C20.897 2.92416 20.906 2.93945 20.9152 2.9552C20.9236 2.97068 20.9319 2.98616 20.9405 3.00211C20.9482 3.01567 20.956 3.02922 20.964 3.04319C21.0335 3.17091 21.0335 3.17091 21.0151 3.24452C20.9344 3.32128 20.8367 3.36515 20.7377 3.41351C20.7195 3.42251 20.7013 3.43151 20.6825 3.44078C20.5423 3.50979 20.4015 3.57741 20.2604 3.64448C20.1342 3.70447 20.0086 3.76535 19.8831 3.82664C19.7576 3.88791 19.6319 3.94881 19.5062 4.00953C19.4582 4.03268 19.4104 4.05594 19.3626 4.07935C19.3056 4.10717 19.2485 4.13452 19.1912 4.16171C19.1751 4.1697 19.159 4.17768 19.1424 4.1859C19.0717 4.21889 19.0347 4.23507 18.956 4.22304C18.9049 4.19375 18.8869 4.17727 18.8625 4.12442C18.8533 4.10578 18.8533 4.10578 18.8439 4.08676C18.8304 4.03487 18.8366 4.00433 18.852 3.9531C18.8809 3.9253 18.8809 3.9253 18.9198 3.9016C18.9351 3.89217 18.9503 3.88274 18.9661 3.87302C18.9927 3.85728 18.9927 3.85728 19.0199 3.84122C19.0401 3.82902 19.0603 3.81682 19.0812 3.80425C19.1398 3.76901 19.1987 3.73421 19.2576 3.69952C19.3242 3.66033 19.3907 3.62098 19.4571 3.58162C19.4706 3.57364 19.4841 3.56565 19.498 3.55743C19.6258 3.48161 19.753 3.40458 19.8799 3.32727C19.9112 3.30831 19.9112 3.30831 19.9431 3.28897C20.0464 3.22629 20.1495 3.16332 20.2522 3.09958C20.3032 3.06795 20.3544 3.03655 20.4056 3.00519C20.4302 2.99009 20.4547 2.97489 20.4791 2.95958C20.513 2.9383 20.5471 2.9174 20.5813 2.89657C20.6105 2.8785 20.6105 2.8785 20.6402 2.86007C20.7079 2.8299 20.7552 2.82714 20.8286 2.83429Z" fill="#363642" style="fill:#363642;fill:color(display-p3 0.2118 0.2118 0.2588);fill-opacity:1;"/>
</g>
<defs>
<clipPath id="clip0_9_1680">
<rect width="47.736" height="15.0667" fill="white" style="fill:white;fill-opacity:1;"/>
</clipPath>
</defs>
</svg>
