<svg width="48" height="48" viewBox="0 0 48 48" fill="none" xmlns="http://www.w3.org/2000/svg">
<path d="M22.2828 0C22.2828 0 21.6596 3.17644 21.5995 3.18331H21.8122C21.174 3.24951 20.5392 3.34507 19.9098 3.46969L20.0826 3.41555C20.0231 3.42698 18.4786 0.582035 18.4786 0.582035L15.2014 1.60907C15.2014 1.60907 15.5568 4.8267 15.5014 4.85124L15.7119 4.78537C15.1143 5.04315 14.529 5.3287 13.958 5.6411L14.1233 5.52621C14.07 5.5549 11.7456 3.30217 11.7456 3.30217L8.92529 5.26217C8.92529 5.26217 10.2264 8.22625 10.181 8.26622L10.3691 8.13543C9.87006 8.56522 9.39159 9.01835 8.93532 9.49332L9.06801 9.3224C9.02571 9.36572 6.1338 7.91132 6.1338 7.91132L4.02882 10.625C4.02882 10.625 6.1569 13.0642 6.12547 13.1159L6.26875 12.9312C5.9185 13.4948 5.59528 14.0747 5.30021 14.669L5.37914 14.4568C5.35173 14.5108 2.15722 13.9876 2.15722 13.9876L0.960024 17.2067C0.960024 17.2067 3.72024 18.8978 3.70571 18.9566L3.78824 18.7347C3.62184 19.3801 3.48642 20.0331 3.38243 20.6915L3.39454 20.4592C3.38453 20.519 0.179626 20.975 0.179626 20.975L0 24.4048C0 24.4048 3.13946 25.1933 3.14318 25.2537L3.1462 25.1962C3.18936 25.9034 3.26845 26.608 3.38318 27.3072L0.693704 28.511L1.42338 31.5501C4.33762 41.0677 13.5356 47.6216 23.9999 47.6368C34.4642 47.6216 43.6622 41.0677 46.5764 31.5501L47.3061 28.511L44.6015 27.3004C44.7242 26.5445 44.8053 25.7824 44.8443 25.0177L44.8566 25.2537C44.8603 25.1933 48 24.4048 48 24.4048L47.8202 20.975C47.8202 20.975 44.6155 20.519 44.6055 20.4592L44.6079 20.5064C44.5083 19.9344 44.3848 19.3668 44.2379 18.8051L44.2943 18.9566C44.2798 18.8978 47.0398 17.2067 47.0398 17.2067L45.8426 13.9876C45.8426 13.9876 42.6481 14.5108 42.6207 14.4568C42.362 13.9608 42.0836 13.4753 41.7859 13.0016L41.8745 13.1159C41.8431 13.0642 43.9712 10.625 43.9712 10.625L41.866 7.91132C41.866 7.91132 38.9743 9.36572 38.932 9.3224L38.9475 9.34247C38.5521 8.94313 38.1408 8.55991 37.7145 8.19373L37.8188 8.26622C37.7734 8.22625 39.0747 5.26217 39.0747 5.26217L36.2544 3.30217C36.2544 3.30217 33.9298 5.5549 33.8765 5.52621L33.9144 5.55252C33.4183 5.2877 32.9116 5.04302 32.3958 4.81906L32.4986 4.85124C32.4432 4.8267 32.7986 1.60907 32.7986 1.60907L29.5212 0.582035C29.5212 0.582035 27.9767 3.42698 27.9172 3.41555L27.9812 3.43562C27.4284 3.32906 26.8714 3.24489 26.3118 3.18331H26.4004C26.3402 3.17644 25.7172 0 25.7172 0H22.2828Z" fill="#1CB14D" style="fill:#1CB14D;fill:color(display-p3 0.1098 0.6941 0.3020);fill-opacity:1;"/>
<path fill-rule="evenodd" clip-rule="evenodd" d="M18.956 15.149C18.9214 20.38 22.4429 23.5951 23.94 24.4594C25.437 23.5951 28.9586 20.38 28.924 15.149C28.8894 9.91802 25.437 6.70294 23.94 5.83862C22.4429 6.70294 18.9906 9.91802 18.956 15.149Z" fill="#FDC14F" style="fill:#FDC14F;fill:color(display-p3 0.9922 0.7569 0.3098);fill-opacity:1;"/>
<path fill-rule="evenodd" clip-rule="evenodd" d="M2.98618 32.1304C3.608 33.7319 4.40727 35.2443 5.36031 36.6438C14.0946 31.3423 26.7408 39.9963 41.8483 37.7331C42.9276 36.3352 43.8468 34.8075 44.5772 33.1762C22.9035 40.6534 11.8451 28.6771 2.98618 32.1304Z" fill="#FDC14F" style="fill:#FDC14F;fill:color(display-p3 0.9922 0.7569 0.3098);fill-opacity:1;"/>
<path fill-rule="evenodd" clip-rule="evenodd" d="M7.07149 38.8492C8.0306 39.9397 9.09347 40.9364 10.2448 41.8243C23.6235 34.6542 29.1389 40.7154 36.3319 42.8368C37.6814 41.9533 38.9301 40.9291 40.0574 39.7847C28.6041 41.4418 19.9721 32.9065 7.07149 38.8492Z" fill="#FDC14F" style="fill:#FDC14F;fill:color(display-p3 0.9922 0.7569 0.3098);fill-opacity:1;"/>
<path d="M22.3208 40.1789C18.9455 40.1789 15.5706 41.2968 12.7975 43.531C16.0968 45.4233 19.9211 46.5052 23.9999 46.5052C27.2205 46.5052 30.2818 45.8293 33.052 44.6139C30.0859 41.6574 26.2035 40.1789 22.3208 40.1789Z" fill="#FDC14F" style="fill:#FDC14F;fill:color(display-p3 0.9922 0.7569 0.3098);fill-opacity:1;"/>
<path d="M25.6353 32.9565H22.3645V46.9048H25.6353V32.9565Z" fill="#1CB14D" style="fill:#1CB14D;fill:color(display-p3 0.1098 0.6941 0.3020);fill-opacity:1;"/>
<path fill-rule="evenodd" clip-rule="evenodd" d="M10.9361 18.0769C10.8177 18.0787 10.7092 18.0843 10.6117 18.0928C10.1278 19.5821 9.77255 23.9727 13.0053 28.0853C13.3048 28.4664 13.6146 28.8171 13.9311 29.1402C16.0381 31.4761 19.2836 33.0546 22.9788 33.3022V46.4812C23.3174 46.4963 23.6575 46.5052 23.9998 46.5052C24.3421 46.5052 24.6822 46.4963 25.0208 46.4812V33.302C28.7097 33.0548 31.9502 31.4813 34.0576 29.1519C34.0592 29.1502 34.061 29.1483 34.0627 29.1466C34.3813 28.8219 34.6928 28.4688 34.9943 28.0853C38.227 23.9727 37.8718 19.5821 37.3879 18.0928C37.2904 18.0843 37.1821 18.0787 37.0637 18.0769C35.2875 18.0499 31.2649 18.8527 28.1899 22.673C25.5728 25.9244 25.3008 29.3989 25.5432 31.4278C25.1553 31.8362 24.6075 32.0912 23.9998 32.0912C23.3921 32.0912 22.8443 31.8362 22.4564 31.4278C22.6988 29.3989 22.4268 25.9244 19.8097 22.673C16.7347 18.8527 12.7123 18.0499 10.9361 18.0769Z" fill="#FDC14F" style="fill:#FDC14F;fill:color(display-p3 0.9922 0.7569 0.3098);fill-opacity:1;"/>
</svg>
