<svg width="50" height="50" viewBox="0 0 50 50" fill="none" xmlns="http://www.w3.org/2000/svg">
<g clip-path="url(#clip0_9_1575)">
<path d="M29.0645 40.767L42.1871 32.8447L42.6516 32.534L42.729 32.4563C42.8065 32.3786 42.8839 32.3786 42.9613 32.3786C43.271 32.3786 43.5032 32.6117 43.5032 32.9223V33V43.0194V43.0971V43.1748C43.5032 43.5631 43.1161 43.8738 42.729 43.9515H42.6516H42.5742H25.271H24.729H7.27097H7.19355H7.11613C6.72904 43.8738 6.41936 43.6408 6.41936 43.2524C6.41936 43.1748 6.41936 43.1748 6.41936 43.0971C6.41936 43.0194 6.41936 43.0194 6.41936 43.0194V33.0388V32.8835C6.41936 32.6505 6.65162 32.4175 6.96129 32.4175C7.03871 32.4175 7.11613 32.4175 7.19355 32.4951C7.19355 32.4951 7.27097 32.4951 7.27097 32.5728L7.73549 32.8835L20.8581 40.8058C20.8581 40.8058 22.9484 41.9709 24.9613 41.9709C27.0516 41.932 29.0645 40.767 29.0645 40.767ZM24.9613 37.1942C23.8 37.1942 22.9484 36.5728 22.9484 36.5728L20.6258 35.1748L3.70968 24.0291L3.47742 23.8738C3.24517 23.7184 2.93549 23.6408 2.70323 23.6408C1.85162 23.6408 1.07742 24.3398 1.07742 25.1942V25.4272V43.8738V45.4272V45.9709C1.23226 47.6019 2.47097 48.9223 4.09678 49H4.63871H6.41936H43.6581H45.4387H45.9806C47.6065 48.8447 48.8452 47.6019 49 46.0485V45.3495V43.8738V25.4272V25.2718C48.9226 24.4175 48.2258 23.7184 47.3742 23.7184C47.0645 23.7184 46.8323 23.7961 46.6 23.9515L46.3677 24.1068L29.3742 35.1359L26.8968 36.6117C26.8194 36.6117 25.8903 37.1942 24.9613 37.1942Z" fill="#00539E" style="fill:#00539E;fill:color(display-p3 0.0000 0.3255 0.6196);fill-opacity:1;"/>
<path d="M35.8 16.1068L32.0065 10.1262C34.1742 11.9903 38.0452 14.6311 39.7484 16.0291H35.8V16.1068ZM32.0065 26.5146L35.8 20.6117H39.7484C37.8516 22.2427 34.4839 24.4175 32.0065 26.5146ZM27.2064 26.1262V20.6117H30.8452C29.9161 22.0097 28.3677 24.2621 27.2064 26.1262ZM27.2064 10.4757C28.3677 12.2621 29.9161 14.5922 30.8452 16.068H27.2064V10.4757ZM22.7161 26.1262C21.5548 24.2621 20.0065 22.0097 19.0774 20.6117H22.7161V26.1262ZM10.1355 20.6117H14.0839L17.8774 26.5146C15.4387 24.4175 11.9935 22.2427 10.1355 20.6117ZM17.9161 10.0874L14.2 15.9903H10.1355C11.8387 14.6311 15.7484 11.9515 17.9161 10.0874ZM22.7161 10.4757V16.068H19.0774C19.929 14.6311 21.5548 12.2621 22.7161 10.4757ZM47.529 15.6408L47.2194 15.4078L25.8903 1.31068L25.8129 1.23301C25.5806 1.07767 25.271 1 24.9613 1C24.6516 1 24.3419 1.07767 24.1097 1.23301L23.9548 1.31068L2.62581 15.4854L2.39355 15.6408C1.54194 16.2621 1 17.1942 1 18.3592C1 19.4466 1.46452 20.3786 2.23871 20.9223C2.39355 21.0777 2.62581 21.1553 2.78065 21.233L23.9548 35.2524L24.1871 35.4078C24.4194 35.5631 24.729 35.6408 24.9613 35.6408C25.271 35.6408 25.5806 35.5631 25.8129 35.4078L25.9677 35.3301L47.1419 21.3107L47.6839 20.9223C48.4581 20.301 48.9226 19.3689 48.9226 18.3592C48.9226 17.1942 48.3806 16.2621 47.529 15.6408Z" fill="#00539E" style="fill:#00539E;fill:color(display-p3 0.0000 0.3255 0.6196);fill-opacity:1;"/>
</g>
<defs>
<clipPath id="clip0_9_1575">
<rect width="48" height="48" fill="white" style="fill:white;fill-opacity:1;" transform="translate(1 1)"/>
</clipPath>
</defs>
</svg>
