<svg width="48" height="48" viewBox="0 0 48 48" fill="none" xmlns="http://www.w3.org/2000/svg">
<g clip-path="url(#clip0_9_1767)">
<path d="M42.4977 0C45.5385 0 48 2.49774 48 5.50226V42.4615C48 45.5023 45.5023 47.9638 42.4977 47.9638H5.50226C2.46154 47.9638 0 45.4661 0 42.4615V5.50226C0 2.49774 2.49774 0 5.50226 0H42.4977Z" fill="#10357F" style="fill:#10357F;fill:color(display-p3 0.0627 0.2078 0.4980);fill-opacity:1;"/>
<path d="M42.4977 2.42532H5.50227C3.80091 2.42532 2.46155 3.83709 2.46155 5.46605V42.4253C2.46155 44.1267 3.87331 45.466 5.50227 45.466H42.4615C44.1629 45.466 45.5023 44.0543 45.5023 42.4253V5.46605C45.5023 3.80089 44.1991 2.42532 42.4977 2.42532Z" fill="white" style="fill:white;fill-opacity:1;"/>
<path d="M24 3.58371L24.1086 3.8371C24.1086 3.8371 24.5792 4.63348 25.8099 5.42986C27.0045 6.22624 28.8507 7.02262 31.638 7.02262C32.4344 7.02262 33.3393 6.95023 34.3167 6.76923H34.4977L34.5701 6.87783C35.2217 9.04977 37.2488 10.1357 39.0588 10.6787C40.8688 11.2217 42.5701 11.2217 42.5701 11.2217H42.9321L42.7511 11.5113C42.7511 11.5113 42.3167 12.1267 41.9185 13.2127C41.4479 14.2986 41.0135 15.9276 41.0135 17.9547V34.8597C41.0135 34.9683 41.0135 35.1131 41.0135 35.2217C41.0135 37.5385 40.905 40.0724 37.3212 40.905C33.7013 41.7375 26.0995 43.5837 25.4479 43.6923C24.724 43.8733 24.181 44.5249 24.181 44.5249L24.0724 44.7783L23.9638 44.5973C23.9638 44.5973 23.4208 43.9457 22.6968 43.7647C22.0452 43.5837 14.4072 41.7738 10.7511 40.905C7.1674 40.0724 7.0588 37.5023 7.0588 35.2217C7.0588 35.1131 7.0588 34.9683 7.0588 34.8597V17.9547C7.0588 15.8914 6.62441 14.3348 6.22622 13.2127C5.79183 12.1267 5.39364 11.5113 5.39364 11.5113L5.10405 11.2217H5.46604C5.46604 11.2217 7.1674 11.2217 8.97735 10.6787C10.8597 10.1357 12.7783 8.97737 13.466 6.84163L13.5384 6.73303H13.7194C14.6968 6.91403 15.6018 6.98642 16.3982 6.98642C19.1131 6.98642 20.9955 6.19004 22.2262 5.39366C23.4208 4.59728 23.9276 3.8009 23.9276 3.8009L24 3.58371Z" fill="#10357F" style="fill:#10357F;fill:color(display-p3 0.0627 0.2078 0.4980);fill-opacity:1;"/>
<path d="M39.276 13.2127C39.2036 13.2127 39.1674 13.2127 39.0226 13.1403C38.4796 13.0317 37.5023 12.7783 36.3439 12.3439C35.2579 11.9095 34.0272 11.1493 33.3756 9.80996C33.3756 9.80996 33.1946 9.44797 33.086 9.19457C33.086 9.08598 33.086 9.01358 33.086 9.01358C33.086 9.01358 32.9774 9.01358 32.905 9.08598C32.7964 9.08598 32.2534 9.19457 32.2534 9.19457C31.7828 9.26697 31.3484 9.30317 30.914 9.30317C28.4887 9.30317 26.4254 8.39819 25.267 7.71041C24.543 7.27602 24.1086 6.91403 24.1086 6.91403C24.1086 6.91403 23.638 7.27602 22.9502 7.71041C21.7557 8.362 19.6923 9.30317 17.3032 9.30317C16.8688 9.30317 16.3982 9.30317 15.9638 9.19457C15.9638 9.19457 15.4208 9.08598 15.3122 9.08598C15.2398 9.08598 15.1312 9.01358 15.1312 9.01358C15.1312 9.01358 15.0588 9.12218 15.0588 9.19457C14.9864 9.37557 14.7692 9.80996 14.7692 9.80996C14.1177 11.1493 12.8869 11.9457 11.8009 12.3439C10.6425 12.7783 9.62897 12.9955 9.08599 13.1403C8.97739 13.1403 8.90499 13.2127 8.83259 13.2127C8.76019 13.2127 8.6516 13.2127 8.6516 13.2127C8.6516 13.2127 8.6516 13.2851 8.72399 13.3213C8.72399 13.3937 8.79639 13.5023 8.83259 13.5747C8.94119 13.9367 9.19458 14.552 9.30318 15.276C9.30318 15.276 9.48418 16.4344 9.48418 17.5204V19.2217H18.3168C18.8597 16.543 21.2851 14.552 24.1448 14.552C27.0045 14.552 29.3575 16.543 29.9729 19.2217H38.8054V17.5204C38.8054 16.4344 38.9864 15.276 38.9864 15.276C39.095 14.4796 39.3484 13.9367 39.457 13.5747C39.5294 13.5023 39.5294 13.3937 39.5656 13.3213C39.5656 13.2489 39.638 13.2127 39.638 13.2127C39.638 13.2127 39.3484 13.2127 39.276 13.2127Z" fill="white" style="fill:white;fill-opacity:1;"/>
<path d="M18.1719 21.6832H9.41176V33.1945C9.41176 33.4841 9.41176 35.1855 9.41176 35.5475C9.41176 37.9728 10.3891 38.3348 12.3801 38.8054C13.828 39.1674 16.7602 39.819 18.7511 40.3258C19.7285 40.5792 20.6335 40.7601 21.3575 40.9411C22.009 41.1221 22.552 41.2307 22.552 41.2307C22.552 41.2307 22.6606 41.2307 22.8054 41.3031V26.3167C20.4887 25.7737 18.6787 24 18.1719 21.6832Z" fill="#00AEEF" style="fill:#00AEEF;fill:color(display-p3 0.0000 0.6824 0.9373);fill-opacity:1;"/>
<path d="M25.267 26.2444V41.267C25.448 41.267 25.5204 41.1946 25.5204 41.1946C25.5928 41.1946 26.0633 41.086 26.7149 40.905C27.3665 40.724 28.3077 40.543 29.3213 40.2896C31.3122 39.819 34.1719 39.1313 35.6923 38.7693C37.6833 38.2987 38.6606 37.8643 38.6606 35.5113C38.6606 35.1494 38.6606 33.5204 38.6606 33.1584V21.6471H29.8281C29.3213 24 27.5113 25.7738 25.267 26.2444Z" fill="#ED1C24" style="fill:#ED1C24;fill:color(display-p3 0.9294 0.1098 0.1412);fill-opacity:1;"/>
<path d="M28.4887 21.4661L29.4661 20.4887L28.4887 19.5113L26.9683 19.9457C26.8959 19.5113 26.7149 19.1493 26.4977 18.8597L27.9095 18.0634V16.6516H26.4977L25.7013 18.0634C25.4118 17.81 24.9774 17.7014 24.6154 17.5928L25.0498 16.0724L24.0362 15.0588L23.0588 16.0362L23.4932 17.5566C23.0588 17.629 22.6968 17.81 22.4072 18.0272L21.6108 16.6154H20.1991V18.0272L21.6108 18.8235C21.3575 19.1131 21.2489 19.5475 21.1403 19.9095L19.6199 19.4751L18.6063 20.4887L19.5837 21.4661L21.1041 21.0317C21.1765 21.4661 21.3575 21.8281 21.5746 22.1177L20.1629 22.914V24.3258H21.5746L22.371 22.914C22.6606 23.1674 23.095 23.276 23.457 23.3846L22.9864 24.9774L23.9638 25.9548L24.9412 24.9774L24.5792 23.3846C25.0136 23.3122 25.3756 23.1312 25.6651 22.914L26.4615 24.3258H27.8733V22.914L26.4253 22.1177C26.6787 21.8281 26.7873 21.3937 26.8959 21.0317L28.4887 21.4661Z" fill="#FDB913" style="fill:#FDB913;fill:color(display-p3 0.9922 0.7255 0.0745);fill-opacity:1;"/>
<path d="M14.733 27.1493L14.914 26.3529L14.2625 26.2443C14.2625 26.2443 14.1539 26.0633 14.0091 25.9547H14.8054C14.8054 25.9547 14.6968 25.8461 14.6968 25.7737C14.6968 25.7013 14.5882 25.7013 14.4434 25.7013H13.4661C13.5385 25.6289 13.5385 25.3393 13.5747 25.2669C13.5747 25.1945 13.6833 25.0136 14.0091 24.9774C14.4434 24.905 14.8054 24.8688 14.8054 24.8688C14.8054 24.8688 14.9864 24.5792 15.3484 24.5792H16.2896C16.7602 24.5792 16.905 24.9412 16.9412 25.4117C17.0136 25.6651 17.1222 26.4253 17.1946 27.2217H21.0679L20.9593 28.6697L18.2444 28.7421V28.9593L20.8507 29.3212L20.3801 30.6606L18.2082 30.19L18.1358 30.371L20.0905 31.3846L19.2579 32.4706L17.9186 31.4932L17.81 31.6018L18.7149 32.9412L18.3529 33.1945L19.1493 34.2805L19.5837 33.4841H20.3801L20.5611 34.4615L20.1991 35.1855L20.0905 34.5339H19.8371L19.2217 35.5113L19.4027 35.8009H19.8371L19.4751 36.2353H19.1131L18.5701 35.5113L18.8235 34.9683L17.8462 33.5565L17.1946 33.9909L18.6063 36.9593L17.629 37.5746L16.6154 34.8959L17.0498 37.9728L16.0724 38.5882L15.095 37.9728L15.5294 34.8959L14.552 37.6108L13.5747 36.9955L14.9864 34.0271L14.3348 33.5927L13.3575 35.0045L13.6109 35.5475L13.0679 36.3439H12.7059L12.3439 35.9095H12.7783L12.9593 35.6199L12.3439 34.7149H11.9457L11.8371 35.3665L11.4751 34.6425L11.6561 33.6651H12.4525L12.8869 34.4615L13.6833 33.3755L13.3213 33.1221L14.2263 31.7828L14.1177 31.6742L12.7783 32.4706L11.9457 31.3846L13.9005 30.371L13.7557 30.19L11.5837 30.6606L11.1493 29.3212L13.7557 28.9593V28.7059L11.0407 28.6335L10.7873 27.0407H14.733V27.1493Z" fill="#10357F" style="fill:#10357F;fill:color(display-p3 0.0627 0.2078 0.4980);fill-opacity:1;"/>
<path d="M36.5973 32.6154L36.8869 32.0724L36.4525 31.6018L34.3168 31.3122C34.3168 31.0588 34.3168 30.7693 34.3168 30.4797C34.5701 30.5883 34.8597 30.7331 35.1493 30.8417C35.6923 30.4073 36.5973 29.6833 36.5973 29.6833V27.7285L35.8733 28.2715V29.1041L35.0769 29.5747C35.0769 29.5747 34.8235 29.4661 34.2806 29.2127C34.1358 28.9593 33.7738 28.5973 33.7738 28.5973L33.8462 28.2353C33.8462 28.2353 34.4615 28.2353 34.5701 28.2353C34.6787 28.2353 34.9321 28.4163 34.9321 28.4163L35.2217 27.3303H34.1358C33.9548 27.3303 34.0272 27.1493 34.0272 27.0407C34.0996 26.8598 34.0996 26.6788 34.3891 26.6788H35.4027C35.4027 26.6788 35.5837 26.2082 35.6561 25.9548C35.7285 25.7014 35.5475 25.4842 35.3665 25.4842C35.1855 25.4842 34.9321 25.4842 34.7149 25.4842C34.7149 25.3756 34.4615 24.9412 34.2444 24.9412H33.7014L33.4118 24.6878H30.6244L30.9864 25.1584L29.7195 26.353C29.7195 26.353 29.4299 27.0769 29.4299 27.5475L30.5158 27.0045L30.4434 27.2941L29.1403 28.2353C29.1403 28.5973 29.3213 28.9593 29.3937 29.3213L30.1901 28.6697V28.9593L29.5385 29.7919L29.9005 30.5883L30.4434 29.9367L30.5158 30.3711L29.8643 31.7828C29.8643 31.7828 29.2489 31.9638 28.9593 32.5068C27.8733 32.6154 27.5113 31.4932 28.1267 30.6245C29.7557 28.2715 28.2353 27.2217 28.2353 27.2217H27.4389V27.9457C27.4389 27.9457 27.9819 27.9457 28.0543 28.6697C28.1267 29.6471 26.9683 30.1177 26.8959 31.457C26.7873 32.362 27.3303 33.267 28.6697 33.4118C28.6697 33.5204 28.6697 33.6652 28.7421 33.8462C28.7421 33.9548 28.8145 34.0996 28.8507 34.2082C28.9593 34.6426 29.2127 35.2941 29.2127 35.2941C29.2127 35.2941 28.9231 36.2715 28.4163 36.4525C29.0679 37.2851 29.9367 38.4435 29.9367 38.4435H32.4344L32 37.3575L30.914 37.2851L30.4434 36.3077L31.5294 34.8598C31.6018 34.8598 31.6018 34.8598 31.638 34.8598C31.9276 34.8598 32.4706 34.8598 32.724 34.8598C33.086 34.8598 33.086 35.1131 33.086 35.1493C33.0136 35.5837 32.9774 35.8733 32.9774 35.8733H35.5837L36.4163 34.0996L35.5837 34.172L35.1131 34.7874H34.3891C34.3891 34.7874 34.4615 34.534 34.6787 33.8824C34.7511 33.7014 34.6063 33.4118 34.2444 33.4118C34.1358 33.4118 33.7014 33.4118 33.3394 33.4118C33.5204 33.1584 33.7738 32.6878 33.991 32.3982H35.3303L35.2579 32.6878L36.5973 32.6154Z" fill="#10357F" style="fill:#10357F;fill:color(display-p3 0.0627 0.2078 0.4980);fill-opacity:1;"/>
<path d="M24 12.3801L25.4479 13.3937L24.905 11.6923L26.3529 10.6063H24.543L24 8.90497L23.457 10.6063H21.647L23.095 11.6923L22.552 13.3937L24 12.3801Z" fill="#FDB913" style="fill:#FDB913;fill:color(display-p3 0.9922 0.7255 0.0745);fill-opacity:1;"/>
<path d="M15.457 15.276L16.9773 16.362L16.362 14.5882L17.8099 13.5747H16.0724L15.457 11.8009L14.914 13.5747H13.104L14.552 14.5882L14.009 16.362L15.457 15.276Z" fill="#FDB913" style="fill:#FDB913;fill:color(display-p3 0.9922 0.7255 0.0745);fill-opacity:1;"/>
<path d="M32.4706 15.276L31.0226 16.362L31.638 14.5882L30.1176 13.5747H31.9276L32.4706 11.8009L33.086 13.5747H34.8959L33.4118 14.5882L33.991 16.362L32.4706 15.276Z" fill="#FDB913" style="fill:#FDB913;fill:color(display-p3 0.9922 0.7255 0.0745);fill-opacity:1;"/>
</g>
<defs>
<clipPath id="clip0_9_1767">
<rect width="48" height="48" fill="white" style="fill:white;fill-opacity:1;"/>
</clipPath>
</defs>
</svg>
