<svg width="48" height="40" viewBox="0 0 48 40" fill="none" xmlns="http://www.w3.org/2000/svg">
<g clip-path="url(#clip0_9_1844)">
<path d="M14.3577 22.0898C15.5297 22.0898 16.2786 21.4726 16.2786 20.5305V20.498C16.2786 19.491 15.5623 18.9388 14.3251 18.9388H11.9159V22.0898H14.3577ZM10.3206 17.4445H14.4879C15.66 17.4445 16.6041 17.8018 17.1902 18.3865C17.6785 18.9063 17.9715 19.5885 17.9715 20.4006V20.4331C17.9715 21.9598 17.0599 22.9019 15.7576 23.2592L18.2971 26.8001H16.3437L14.0321 23.5516H11.981V26.8001H10.3206V17.4445Z" fill="#4B81C2" style="fill:#4B81C2;fill:color(display-p3 0.2941 0.5059 0.7608);fill-opacity:1;"/>
<path d="M19.404 22.1546C19.404 19.4583 21.39 17.2819 24.2224 17.2819C25.948 17.2819 26.9898 17.8991 27.9014 18.7437L26.8596 19.9456C26.1108 19.2634 25.2968 18.7762 24.2224 18.7762C22.4318 18.7762 21.1295 20.238 21.1295 22.0896V22.1221C21.1295 23.9412 22.4318 25.4355 24.2224 25.4355C25.362 25.4355 26.1108 24.9807 26.9247 24.2336L27.9665 25.3056C26.9898 26.3126 25.9154 26.9623 24.1573 26.9623C21.4551 26.9623 19.404 24.8183 19.404 22.1546Z" fill="#4B81C2" style="fill:#4B81C2;fill:color(display-p3 0.2941 0.5059 0.7608);fill-opacity:1;"/>
<path d="M33.6641 22.772H31.0595V25.3383H33.7943C34.9338 25.3383 35.585 24.8835 35.585 24.0713V24.0389C35.585 23.2592 34.9664 22.772 33.6641 22.772ZM35.0641 20.1082C35.0641 19.3611 34.478 18.9063 33.4036 18.9063H31.027V21.3751H33.2734C34.3478 21.3751 35.0641 20.9853 35.0641 20.1082ZM29.4317 17.4445H33.6315C34.7059 17.4445 35.5524 17.7368 36.0733 18.2566C36.4966 18.6789 36.6919 19.1661 36.6919 19.8158V19.8483C36.6919 20.9853 36.0408 21.57 35.3571 21.9274C36.464 22.3172 37.2128 22.9344 37.2128 24.2013V24.2338C37.2128 25.8905 35.8454 26.8001 33.7618 26.8001H29.4317V17.4445Z" fill="#4B81C2" style="fill:#4B81C2;fill:color(display-p3 0.2941 0.5059 0.7608);fill-opacity:1;"/>
<path d="M38.7105 22.1546C38.7105 19.4583 40.6965 17.2819 43.529 17.2819C45.2545 17.2819 46.2964 17.8991 47.208 18.7437L46.1661 19.9456C45.4173 19.2634 44.6034 18.7762 43.529 18.7762C41.7383 18.7762 40.4361 20.238 40.4361 22.0896V22.1221C40.4361 23.9412 41.7383 25.4355 43.529 25.4355C44.6685 25.4355 45.4173 24.9807 46.2312 24.2336L47.2731 25.3056C46.2964 26.3126 45.222 26.9623 43.4639 26.9623C40.7291 26.9623 38.7105 24.8183 38.7105 22.1546Z" fill="#4B81C2" style="fill:#4B81C2;fill:color(display-p3 0.2941 0.5059 0.7608);fill-opacity:1;"/>
<path d="M17.0925 39.1766L0.0976334 29.3987V9.81038L17.0925 0.0324707L34.0548 10.2327V16.7296H32.6223V11.0448L17.0925 1.72168L1.56271 10.655V28.5541L17.0925 37.4874L32.6223 28.5541V27.5146H34.0548V29.3987L17.0925 39.1766Z" fill="#4B81C2" style="fill:#4B81C2;fill:color(display-p3 0.2941 0.5059 0.7608);fill-opacity:1;"/>
<path d="M14.2599 22.0572C15.432 22.0572 16.1808 21.44 16.1808 20.498V20.4655C16.1808 19.4585 15.4645 18.9062 14.2274 18.9062H11.8181V22.0572H14.2599ZM10.1903 17.4119H14.3576C15.5297 17.4119 16.4738 17.7693 17.0599 18.354C17.5482 18.8737 17.8412 19.5559 17.8412 20.368V20.4005C17.8412 21.9273 16.9296 22.8694 15.6273 23.2267L18.1668 26.7675H16.2134L13.9018 23.5191H11.8507V26.7675H10.1903V17.4119Z" fill="#4B81C2" style="fill:#4B81C2;fill:color(display-p3 0.2941 0.5059 0.7608);fill-opacity:1;"/>
<path d="M19.3063 22.1223C19.3063 19.4261 21.2923 17.2496 24.1248 17.2496C25.8503 17.2496 26.8922 17.8668 27.8038 18.7114L26.7619 19.9133C26.0131 19.2311 25.1992 18.7439 24.1248 18.7439C22.3342 18.7439 21.0319 20.2057 21.0319 22.0573V22.0898C21.0319 23.9089 22.3342 25.4032 24.1248 25.4032C25.2643 25.4032 26.0131 24.9485 26.8271 24.2013L27.8689 25.2733C26.8922 26.2803 25.8178 26.93 24.0597 26.93C21.3574 26.93 19.3063 24.8185 19.3063 22.1223Z" fill="#4B81C2" style="fill:#4B81C2;fill:color(display-p3 0.2941 0.5059 0.7608);fill-opacity:1;"/>
<path d="M33.5665 22.7394H30.9619V25.3057H33.6967C34.8362 25.3057 35.4873 24.8509 35.4873 24.0388V24.0063C35.4873 23.2267 34.8688 22.7394 33.5665 22.7394ZM34.9664 20.0757C34.9664 19.3285 34.3804 18.8737 33.306 18.8737H30.9293V21.3426H33.1758C34.2502 21.3426 34.9664 20.9528 34.9664 20.0757ZM29.334 17.4119H33.5339C34.6083 17.4119 35.4548 17.7043 35.9757 18.224C36.399 18.6463 36.5943 19.1336 36.5943 19.7833V19.8158C36.5943 20.9528 35.9432 21.5375 35.2594 21.8948C36.3664 22.2846 37.1152 22.9018 37.1152 24.1688V24.2012C37.1152 25.858 35.7478 26.7675 33.6641 26.7675H29.334V17.4119Z" fill="#4B81C2" style="fill:#4B81C2;fill:color(display-p3 0.2941 0.5059 0.7608);fill-opacity:1;"/>
<path d="M38.5802 22.1223C38.5802 19.4261 40.5662 17.2496 43.3987 17.2496C45.1242 17.2496 46.166 17.8668 47.0776 18.7114L46.0358 19.9133C45.287 19.2311 44.4731 18.7439 43.3987 18.7439C41.608 18.7439 40.3057 20.2057 40.3057 22.0573V22.0898C40.3057 23.9089 41.608 25.4032 43.3987 25.4032C44.5382 25.4032 45.287 24.9485 46.1009 24.2013L47.1428 25.2733C46.166 26.2803 45.0916 26.93 43.3336 26.93C40.6313 26.93 38.5802 24.8185 38.5802 22.1223Z" fill="#4B81C2" style="fill:#4B81C2;fill:color(display-p3 0.2941 0.5059 0.7608);fill-opacity:1;"/>
<path d="M16.9949 39.1441L0 29.3662V9.77791L16.9949 0L33.9572 10.2002V16.6972H32.5247V11.0123L16.9623 1.68921L1.46508 10.6225V28.5216L16.9949 37.4549L32.5247 28.5216V27.4821H33.9572V29.3662L16.9949 39.1441Z" fill="#4B81C2" style="fill:#4B81C2;fill:color(display-p3 0.2941 0.5059 0.7608);fill-opacity:1;"/>
</g>
<defs>
<clipPath id="clip0_9_1844">
<rect width="47.2731" height="39.1766" fill="white" style="fill:white;fill-opacity:1;"/>
</clipPath>
</defs>
</svg>
