<svg width="48" height="15" viewBox="0 0 48 15" fill="none" xmlns="http://www.w3.org/2000/svg">
<g clip-path="url(#clip0_9_1702)">
<path d="M17.194 5.62135C18.1857 6.53341 18.775 7.74279 18.8694 9.08278C18.9219 10.5384 18.5554 11.7516 17.6015 12.8672C16.7108 13.8055 15.5468 14.4948 14.2324 14.5536C12.5798 14.5918 11.2713 14.201 10.0404 13.0547C9.06354 12.0069 8.58905 10.6304 8.60484 9.21425C8.69874 7.77846 9.30789 6.58753 10.3454 5.60341C12.3835 3.87913 15.1538 3.95604 17.194 5.62135ZM11.5752 7.69996C11.0834 8.3252 10.9421 8.95592 10.9687 9.75001C11.1305 10.694 11.6099 11.3473 12.375 11.9063C12.992 12.2856 13.7384 12.2784 14.4375 12.1875C15.338 11.9082 15.867 11.4076 16.3205 10.6C16.6322 9.91228 16.6021 9.10783 16.3476 8.40822C15.9883 7.62686 15.4947 7.20146 14.7187 6.84376C13.5519 6.45481 12.3872 6.80753 11.5752 7.69996Z" fill="#8362E2" style="fill:#8362E2;fill:color(display-p3 0.5137 0.3843 0.8863);fill-opacity:1;"/>
<path d="M28.7929 5.54299C29.9898 6.67559 30.2299 8.16266 30.2812 9.75002C30.2947 10.5117 30.2901 11.2734 30.2871 12.0352C30.2866 12.2415 30.2862 12.4478 30.2858 12.6541C30.2849 13.1548 30.283 13.6555 30.2812 14.1563C29.4768 14.1563 28.6725 14.1563 27.8437 14.1563C27.8413 13.7689 27.8389 13.3816 27.8364 12.9826C27.8334 12.6711 27.8301 12.3596 27.8265 12.0481C27.8228 11.7207 27.8198 11.3934 27.8183 11.066C27.8166 10.6892 27.8119 10.3125 27.8071 9.93569C27.807 9.82002 27.8069 9.70435 27.8067 9.58518C27.794 8.82105 27.7366 8.00006 27.2055 7.40333C26.6842 6.92982 26.2173 6.90422 25.5278 6.91188C24.9522 6.95962 24.5686 7.18438 24.164 7.58791C23.5544 8.38748 23.4752 9.42325 23.4741 10.3935C23.4725 10.502 23.471 10.6106 23.4694 10.7224C23.4649 11.0643 23.4629 11.4062 23.4609 11.7481C23.4583 11.9819 23.4555 12.2157 23.4525 12.4495C23.4453 13.0185 23.4415 13.5873 23.4375 14.1563C22.664 14.1563 21.8906 14.1563 21.0937 14.1563C21.0937 11.0625 21.0937 7.96877 21.0937 4.78127C21.8672 4.78127 22.6406 4.78127 23.4375 4.78127C23.4684 5.24533 23.4993 5.70939 23.5312 6.18752C23.6202 6.07537 23.7091 5.96322 23.8008 5.84768C24.2984 5.27838 24.9491 4.868 25.6875 4.68752C25.7822 4.66432 25.877 4.64111 25.9746 4.61721C27.0902 4.54637 27.952 4.83448 28.7929 5.54299Z" fill="#8462E4" style="fill:#8462E4;fill:color(display-p3 0.5176 0.3843 0.8941);fill-opacity:1;"/>
<path d="M39.4687 4.78124C40.2731 4.78124 41.0775 4.78124 41.9062 4.78124C41.9372 6.08061 41.9681 7.37999 42 8.71874C42.5104 8.06905 42.5104 8.06905 43.0312 7.40624C43.5468 6.74999 43.5468 6.74999 43.812 6.42699C43.9916 6.20083 44.1268 5.97831 44.2544 5.71947C44.4733 5.31406 44.6679 4.98752 45.0937 4.78124C46.0494 4.61769 47.0388 4.7013 48 4.78124C47.7342 5.18382 47.4563 5.56978 47.1562 5.94725C47.0893 6.03191 47.0893 6.03191 47.0211 6.11827C46.6465 6.59165 46.2691 7.06277 45.8914 7.53368C45.4023 8.14398 44.9195 8.75914 44.4375 9.37499C44.5585 9.63435 44.6912 9.84839 44.8736 10.0686C44.9227 10.1283 44.9718 10.1881 45.0224 10.2496C45.075 10.3129 45.1275 10.3762 45.1816 10.4414C45.2923 10.5761 45.4029 10.7109 45.5134 10.8457C45.5689 10.9134 45.6244 10.981 45.6816 11.0508C45.9209 11.3448 46.1552 11.6427 46.3886 11.9414C47.1009 12.8532 47.1009 12.8532 47.8333 13.7486C48 13.9687 48 13.9687 48 14.1562C47.6132 14.1773 47.2267 14.1925 46.8395 14.2026C46.7082 14.2068 46.5769 14.2125 46.4457 14.2199C45.3617 14.279 45.3617 14.279 44.9464 13.9863C44.7539 13.7716 44.5948 13.5538 44.4375 13.3125C44.3532 13.2061 44.268 13.1004 44.1815 12.9957C44.1045 12.8964 44.0277 12.7969 43.9511 12.6973C43.5043 12.1215 43.0471 11.5549 42.5849 10.9914C42.5358 10.9314 42.4867 10.8713 42.4361 10.8094C42.3926 10.7564 42.3491 10.7034 42.3043 10.6488C42.1958 10.5107 42.0974 10.3649 42 10.2187C41.969 11.5181 41.9381 12.8175 41.9062 14.1562C41.1018 14.1562 40.2975 14.1562 39.4687 14.1562C39.4687 11.0625 39.4687 7.96874 39.4687 4.78124Z" fill="#8161E0" style="fill:#8161E0;fill:color(display-p3 0.5059 0.3804 0.8784);fill-opacity:1;"/>
<path d="M2.24997 1.59375C3.02341 1.59375 3.79684 1.59375 4.59372 1.59375C4.59372 2.64562 4.59372 3.6975 4.59372 4.78125C5.33622 4.78125 6.07872 4.78125 6.84372 4.78125C6.84565 5.15057 6.84759 5.51988 6.84958 5.90039C6.85043 6.017 6.85129 6.13362 6.85216 6.25376C6.8524 6.34489 6.85263 6.43602 6.85287 6.52991C6.85336 6.62368 6.85386 6.71745 6.85436 6.81406C6.84372 7.03125 6.84372 7.03125 6.74997 7.125C6.03841 7.125 5.32684 7.125 4.59372 7.125C4.59372 8.67187 4.59372 10.2187 4.59372 11.8125C5.33622 11.8125 6.07872 11.8125 6.84372 11.8125C6.84372 12.5859 6.84372 13.3594 6.84372 14.1562C6.44683 14.1671 6.05046 14.1764 5.65353 14.182C5.51896 14.1843 5.38441 14.1875 5.24988 14.1916C4.42246 14.2161 3.6924 14.2074 2.99997 13.6875C2.50747 13.1643 2.22545 12.6549 2.22868 11.925C2.2287 11.818 2.22871 11.7111 2.22873 11.6009C2.22969 11.4864 2.23066 11.372 2.23166 11.254C2.23192 11.1361 2.23219 11.0181 2.23246 10.8966C2.23333 10.5842 2.23502 10.2718 2.23709 9.9594C2.23902 9.64015 2.23987 9.3209 2.24081 9.00165C2.24288 8.37609 2.24612 7.75055 2.24997 7.125C1.50747 7.125 0.764969 7.125 -3.05176e-05 7.125C-3.05176e-05 6.35156 -3.05176e-05 5.57812 -3.05176e-05 4.78125C0.742469 4.78125 1.48497 4.78125 2.24997 4.78125C2.24997 3.72937 2.24997 2.6775 2.24997 1.59375Z" fill="#8261E0" style="fill:#8261E0;fill:color(display-p3 0.5098 0.3804 0.8784);fill-opacity:1;"/>
<path d="M32.0625 4.78126C32.4627 4.7726 32.8627 4.76515 33.263 4.76066C33.3988 4.75879 33.5346 4.75624 33.6705 4.75297C34.5602 4.73212 35.1847 4.7593 35.9256 5.31007C35.9753 5.35986 36.025 5.40965 36.0761 5.46095C36.127 5.50977 36.1779 5.5586 36.2303 5.6089C36.6145 6.14969 36.6977 6.70167 36.6881 7.34474C36.6882 7.456 36.6882 7.456 36.6883 7.56951C36.6881 7.812 36.6859 8.05442 36.6837 8.29689C36.6832 8.46607 36.6828 8.63525 36.6825 8.80443C36.6814 9.2477 36.6787 9.69093 36.6755 10.1342C36.6726 10.5873 36.6714 11.0404 36.67 11.4935C36.6669 12.3811 36.662 13.2687 36.6562 14.1563C35.8828 14.1563 35.1093 14.1563 34.3125 14.1563C34.3125 11.836 34.3125 9.51564 34.3125 7.12501C33.57 7.12501 32.8275 7.12501 32.0625 7.12501C32.0625 6.35158 32.0625 5.57814 32.0625 4.78126Z" fill="#8463E4" style="fill:#8463E4;fill:color(display-p3 0.5176 0.3882 0.8941);fill-opacity:1;"/>
<path d="M35.8462 0.0783596C36.3261 0.347203 36.5991 0.689382 36.75 1.21874C36.8285 1.75111 36.7796 2.17366 36.4687 2.62499C36.0434 3.05331 35.7097 3.29118 35.0918 3.3164C34.5681 3.31028 34.2353 3.15433 33.8437 2.81249C33.4638 2.38391 33.353 1.96852 33.375 1.40624C33.47 0.857101 33.7239 0.54357 34.1513 0.199575C34.629 -0.114174 35.3199 -0.108086 35.8462 0.0783596Z" fill="#8362E3" style="fill:#8362E3;fill:color(display-p3 0.5137 0.3843 0.8902);fill-opacity:1;"/>
</g>
<defs>
<clipPath id="clip0_9_1702">
<rect width="48" height="14.5312" fill="white" style="fill:white;fill-opacity:1;"/>
</clipPath>
</defs>
</svg>
