<svg width="42" height="46" viewBox="0 0 42 46" fill="none" xmlns="http://www.w3.org/2000/svg">
<path d="M0.0121136 0C0.167858 0.0464105 0.323577 0.0929037 0.479286 0.139432C0.566005 0.165314 0.652724 0.191196 0.742071 0.217862C1.03949 0.308448 1.33275 0.40825 1.6258 0.512063C1.74142 0.552895 1.85704 0.593727 1.97616 0.635797C2.10013 0.679849 2.2241 0.723908 2.34807 0.767975C2.48051 0.814871 2.61295 0.86175 2.7454 0.908612C3.02359 1.00709 3.30173 1.10573 3.57982 1.20449C3.92061 1.32551 4.26149 1.44626 4.60242 1.56688C6.1357 2.1095 7.66703 2.65735 9.19659 3.21036C9.35816 3.26875 9.51973 3.32713 9.6813 3.38551C10.0701 3.526 10.4589 3.66652 10.8476 3.80708C10.8477 3.86368 10.8478 3.92028 10.8479 3.9786C10.8536 7.33546 10.8608 10.6923 10.87 14.0492C10.8711 14.4525 10.8722 14.8558 10.8733 15.2591C10.8735 15.3394 10.8737 15.4197 10.8739 15.5024C10.8774 16.8015 10.8798 18.1005 10.8818 19.3995C10.884 20.733 10.8872 22.0665 10.8914 23.4001C10.894 24.2225 10.8958 25.0449 10.8964 25.8674C10.8969 26.4318 10.8985 26.9963 10.9009 27.5608C10.9023 27.8861 10.903 28.2114 10.9028 28.5368C10.9026 28.8904 10.9043 29.2439 10.9063 29.5975C10.9059 29.6992 10.9054 29.8009 10.9049 29.9057C10.9185 31.3183 11.3927 32.5278 12.3649 33.5548C13.2534 34.3727 14.2631 34.7248 15.4597 34.6938C16.6634 34.5636 17.7503 34.0656 18.5682 33.159C19.3576 32.1192 19.4964 31.0151 19.4955 29.7432C19.4969 29.5961 19.4983 29.4489 19.5 29.3018C19.504 28.903 19.5056 28.5042 19.5068 28.1053C19.5085 27.6781 19.5124 27.2509 19.516 26.8237C19.5226 26.0036 19.5273 25.1835 19.5313 24.3634C19.5358 23.4486 19.5424 22.5339 19.5493 21.6192C19.5641 19.6204 19.5756 17.6215 19.5861 15.6227C19.5911 14.6811 19.5964 13.7395 19.6017 12.7979C19.6125 10.8747 19.623 8.9516 19.6332 7.02846C20.1997 7.17927 20.7627 7.32998 21.3153 7.52658C21.423 7.56465 21.5306 7.60273 21.6415 7.64196C21.7556 7.68274 21.8696 7.72352 21.9871 7.76554C22.1113 7.80964 22.2355 7.8537 22.3598 7.89772C22.6935 8.01608 23.027 8.13492 23.3605 8.25387C23.7113 8.37891 24.0621 8.50358 24.413 8.62827C24.8497 8.7835 25.2864 8.93876 25.723 9.0942C26.6656 9.42968 27.6088 9.76309 28.5527 10.095C28.9637 10.2396 29.3746 10.3845 29.7855 10.5294C30.1109 10.6442 30.4363 10.7587 30.7619 10.8728C34.1064 12.0448 37.1973 13.3173 38.8638 16.6926C39.0003 17.0021 39.1236 17.3153 39.2421 17.6321C39.2701 17.7066 39.298 17.7811 39.3268 17.8579C40.106 20.0544 39.8993 22.6495 39.0091 24.7853C38.6308 25.5726 38.182 26.3171 37.6924 27.04C37.775 27.1074 37.8575 27.1747 37.9426 27.244C39.8452 28.8121 41.1432 30.7554 41.3893 33.2692C41.4828 34.8557 41.2859 36.3262 40.621 37.7779C40.5801 37.8678 40.5392 37.9576 40.497 38.0502C39.4445 40.1552 37.3864 41.6517 35.1898 42.394C34.7678 42.5213 34.3376 42.6028 33.9052 42.6863C33.8008 42.7068 33.6964 42.7273 33.5888 42.7484C32.1576 43.0261 30.7213 43.2766 29.2854 43.5282C28.9792 43.582 28.673 43.6361 28.3668 43.6902C28.0706 43.7425 27.7744 43.7946 27.4782 43.8467C27.3375 43.8714 27.1968 43.8962 27.0561 43.9211C26.8619 43.9553 26.6677 43.9893 26.4735 44.0233C26.3634 44.0426 26.2533 44.062 26.1398 44.0819C25.8807 44.1231 25.8807 44.1231 25.6855 44.1231C25.8277 43.6988 26.045 43.4073 26.3261 43.0615C27.7828 41.2157 28.598 39.1252 29.2973 36.8994C29.4397 36.8891 29.4397 36.8891 29.585 36.8787C29.9422 36.8526 30.2993 36.8244 30.6564 36.7957C30.81 36.7836 30.9636 36.7721 31.1173 36.7611C32.2842 36.6773 33.4134 36.5816 34.3029 35.7341C34.8349 35.0971 35.0979 34.341 35.0838 33.5125C34.9909 32.7401 34.639 31.9764 34.0806 31.4328C33.2002 30.803 32.3313 30.7179 31.2775 30.6877C31.1002 30.6816 31.1002 30.6816 30.9193 30.6754C30.5434 30.6627 30.1675 30.6512 29.7915 30.6397C29.536 30.6312 29.2804 30.6227 29.0249 30.6141C28.3999 30.5933 27.7748 30.5734 27.1498 30.5543C27.1476 30.6734 27.1476 30.6734 27.1454 30.7949C27.0592 35.1277 26.5138 39.1639 23.3427 42.366C23.2756 42.4389 23.2085 42.5119 23.1394 42.5871C21.1782 44.6846 17.8483 45.8956 15.0258 45.9976C10.9919 46.0687 7.21245 44.5358 4.29432 41.7601C1.67184 39.219 0.111337 35.6706 0.00320136 32.0096C-0.000132856 31.6622 -0.000429485 31.3148 0.000374625 30.9673C0.000331986 30.8332 0.000246382 30.6991 0.000121877 30.565C-9.51731e-05 30.1988 0.000292391 29.8326 0.000783534 29.4664C0.00120674 29.0706 0.00106232 28.6748 0.000988308 28.279C0.000937227 27.5941 0.00124242 26.9092 0.00179247 26.2242C0.00258722 25.2339 0.00284019 24.2436 0.0029627 23.2534C0.00317613 21.6465 0.00382517 20.0397 0.00474936 18.4328C0.00564596 16.8723 0.00633666 15.3118 0.00675128 13.7513C0.00677692 13.655 0.00680257 13.5588 0.00682899 13.4596C0.00695639 12.9767 0.00707975 12.4938 0.0072011 12.0108C0.00821238 8.00723 0.00993113 4.00362 0.0121136 0Z" fill="#FF8000" style="fill:#FF8000;fill:color(display-p3 1.0000 0.5020 0.0000);fill-opacity:1;"/>
<path d="M27.0521 17.083C27.8753 17.2327 28.6824 17.4 29.4933 17.5998C29.6313 17.6336 29.7695 17.6668 29.9078 17.6995C30.9864 17.954 32.1965 18.2607 32.8512 19.2409C33.3783 20.1557 33.6252 21.0671 33.3831 22.1115C33.1272 22.8559 32.6112 23.4684 31.9132 23.8335C30.808 24.3477 29.7615 24.2261 28.5774 24.0688C28.4213 24.0491 28.4213 24.0491 28.262 24.0289C27.8499 23.9758 27.4559 23.9196 27.0521 23.8186C27.0521 21.5959 27.0521 19.3731 27.0521 17.083Z" fill="#FFFEFE" style="fill:#FFFEFE;fill:color(display-p3 1.0000 0.9961 0.9961);fill-opacity:1;"/>
</svg>
